M48
; DRILL file KiCad 10.0.4 date 2026-08-23T13:46:27
; FORMAT={-:-/ absolute / metric / decimal}
; #@! TF.CreationDate,2026-08-23T13:46:27-04:00
; #@! TF.GenerationSoftware,Kicad,Pcbnew,10.0.4
; #@! TF.FileFunction,NonPlated,1,2,NPTH
FMAT,2
METRIC
; #@! TA.AperFunction,NonPlated,NPTH,ComponentDrill
T1C0.889
; #@! TA.AperFunction,NonPlated,NPTH,ComponentDrill
T2C1.600
; #@! TA.AperFunction,NonPlated,NPTH,ComponentDrill
T3C1.750
; #@! TA.AperFunction,NonPlated,NPTH,ComponentDrill
T4C2.100
; #@! TA.AperFunction,NonPlated,NPTH,ComponentDrill
T5C2.200
; #@! TA.AperFunction,NonPlated,NPTH,ComponentDrill
T6C3.050
; #@! TA.AperFunction,NonPlated,NPTH,ComponentDrill
T7C4.000
%
G90
G05
T1
X86.5Y-43.301
X86.5Y-46.298
T3
X92.827Y-57.211
X92.827Y-76.388
X92.827Y-95.565
X92.827Y-114.742
X92.827Y-133.919
X102.987Y-57.211
X102.987Y-76.388
X102.987Y-95.565
X102.987Y-114.742
X102.987Y-133.919
X112.004Y-57.211
X112.004Y-76.388
X112.004Y-95.565
X112.004Y-114.742
X112.004Y-133.919
X122.164Y-57.211
X122.164Y-76.388
X122.164Y-95.565
X122.164Y-114.742
X122.164Y-133.919
X131.181Y-57.211
X131.181Y-76.388
X131.181Y-95.565
X131.181Y-114.742
X131.181Y-133.919
X141.341Y-57.211
X141.341Y-76.388
X141.341Y-95.565
X141.341Y-114.742
X141.341Y-133.919
X150.358Y-57.211
X155.438Y-80.833
X155.438Y-90.993
X155.438Y-119.187
X155.438Y-129.347
X160.518Y-57.211
T4
X99.5Y-33.5
T5
X89.0Y-24.0
X89.0Y-145.0
X166.0Y-146.0
X169.789Y-24.191
T6
X148.438Y-73.975
X148.438Y-97.851
X148.438Y-112.329
X148.438Y-136.205
T7
X97.907Y-57.211
X97.907Y-76.388
X97.907Y-95.565
X97.907Y-114.742
X97.907Y-133.919
X117.084Y-57.211
X117.084Y-76.388
X117.084Y-95.565
X117.084Y-114.742
X117.084Y-133.919
X136.261Y-57.211
X136.261Y-76.388
X136.261Y-95.565
X136.261Y-114.742
X136.261Y-133.919
X155.438Y-57.211
X155.438Y-85.913
X155.438Y-124.267
X163.678Y-73.975
X163.678Y-97.851
X163.678Y-112.329
X163.678Y-136.205
T2
G00X99.5Y-28.7
M15
G01X99.5Y-29.3
M16
G05
M30
