M48
; DRILL file KiCad 10.0.4 date 2026-08-23T13:46:27
; FORMAT={-:-/ absolute / metric / decimal}
; #@! TF.CreationDate,2026-08-23T13:46:27-04:00
; #@! TF.GenerationSoftware,Kicad,Pcbnew,10.0.4
; #@! TF.FileFunction,Plated,1,2,PTH
FMAT,2
METRIC
; #@! TA.AperFunction,Plated,PTH,ViaDrill
T1C0.300
; #@! TA.AperFunction,Plated,PTH,ComponentDrill
T2C0.500
; #@! TA.AperFunction,Plated,PTH,ComponentDrill
T3C0.750
; #@! TA.AperFunction,Plated,PTH,ComponentDrill
T4C1.000
; #@! TA.AperFunction,Plated,PTH,ComponentDrill
T5C1.500
%
G90
G05
T1
X145.5Y-30.668
X145.75Y-33.5
X146.0Y-28.25
X165.0Y-47.75
T2
X94.0Y-45.0
X98.0Y-45.0
T3
X89.95Y-31.0
X89.95Y-33.0
X107.432Y-54.671
X107.432Y-62.291
X107.559Y-73.848
X107.559Y-81.468
X107.559Y-93.025
X107.559Y-100.645
X107.559Y-112.202
X107.559Y-119.822
X107.559Y-131.379
X107.559Y-138.999
X126.609Y-54.671
X126.609Y-62.291
X126.736Y-93.025
X126.736Y-100.645
X126.736Y-112.202
X126.736Y-119.822
X126.736Y-131.379
X126.736Y-138.999
X126.99Y-73.848
X126.99Y-81.468
X145.5Y-73.848
X145.5Y-81.468
X145.5Y-93.0
X145.5Y-100.62
X145.5Y-112.202
X145.5Y-119.822
X145.5Y-131.379
X145.5Y-138.999
X145.913Y-54.671
X145.913Y-62.291
X164.963Y-54.671
X164.963Y-62.291
X165.09Y-81.336
X165.09Y-88.956
X165.09Y-119.695
X165.09Y-127.315
T4
X97.0Y-26.0
X97.0Y-40.5
X99.5Y-26.0
X102.0Y-26.0
X102.0Y-40.5
X143.474Y-30.668
X143.474Y-33.208
X143.474Y-35.748
X143.474Y-38.288
T5
X94.097Y-54.671
X94.097Y-73.848
X94.097Y-93.025
X94.097Y-112.202
X94.097Y-131.379
X100.447Y-52.131
X100.447Y-71.308
X100.447Y-90.485
X100.447Y-109.662
X100.447Y-128.839
X113.274Y-54.671
X113.274Y-73.848
X113.274Y-93.025
X113.274Y-112.202
X113.274Y-131.379
X119.624Y-52.131
X119.624Y-71.308
X119.624Y-90.485
X119.624Y-109.662
X119.624Y-128.839
X132.451Y-54.671
X132.451Y-73.848
X132.451Y-93.025
X132.451Y-112.202
X132.451Y-131.379
X138.801Y-52.131
X138.801Y-71.308
X138.801Y-90.485
X138.801Y-109.662
X138.801Y-128.839
X150.358Y-83.373
X150.358Y-121.727
X151.628Y-54.671
X152.898Y-89.723
X152.898Y-128.077
X157.978Y-52.131
T5
G00X93.9Y-32.85
M15
G01X93.9Y-34.15
M16
G05
G00X105.1Y-32.85
M15
G01X105.1Y-34.15
M16
G05
M30
