%TF.GenerationSoftware,KiCad,Pcbnew,10.0.4*%
%TF.CreationDate,2026-08-23T13:46:25-04:00*%
%TF.ProjectId,BLEkeyboard,424c456b-6579-4626-9f61-72642e6b6963,rev?*%
%TF.SameCoordinates,Original*%
%TF.FileFunction,Legend,Top*%
%TF.FilePolarity,Positive*%
%FSLAX46Y46*%
G04 Gerber Fmt 4.6, Leading zero omitted, Abs format (unit mm)*
G04 Created by KiCad (PCBNEW 10.0.4) date 2026-08-23 13:46:25*
%MOMM*%
%LPD*%
G01*
G04 APERTURE LIST*
%ADD10C,0.150000*%
%ADD11C,0.300000*%
%ADD12C,0.400000*%
%ADD13C,0.508000*%
%ADD14C,0.152400*%
%ADD15C,0.120000*%
%ADD16C,0.000000*%
%ADD17C,0.100000*%
%ADD18C,0.127000*%
%ADD19C,0.504000*%
G04 APERTURE END LIST*
D10*
X177002200Y-166007200D02*
X285002200Y-166007200D01*
X285002200Y-198007200D01*
X177002200Y-198007200D01*
X177002200Y-166007200D01*
X10000000Y-10000000D02*
X287002200Y-10000000D01*
X287002200Y-200007200D01*
X10000000Y-200007200D01*
X10000000Y-10000000D01*
X12000000Y-12000000D02*
X285002200Y-12000000D01*
X285002200Y-198007200D01*
X12000000Y-198007200D01*
X12000000Y-12000000D01*
X60000000Y-12000000D02*
X60000000Y-10000000D01*
X110000000Y-12000000D02*
X110000000Y-10000000D01*
X160000000Y-12000000D02*
X160000000Y-10000000D01*
X210000000Y-12000000D02*
X210000000Y-10000000D01*
X260000000Y-12000000D02*
X260000000Y-10000000D01*
X36089160Y-11593604D02*
X35346303Y-11593604D01*
X35717731Y-11593604D02*
X35717731Y-10293604D01*
X35717731Y-10293604D02*
X35593922Y-10479319D01*
X35593922Y-10479319D02*
X35470112Y-10603128D01*
X35470112Y-10603128D02*
X35346303Y-10665033D01*
X85346303Y-10417414D02*
X85408207Y-10355509D01*
X85408207Y-10355509D02*
X85532017Y-10293604D01*
X85532017Y-10293604D02*
X85841541Y-10293604D01*
X85841541Y-10293604D02*
X85965350Y-10355509D01*
X85965350Y-10355509D02*
X86027255Y-10417414D01*
X86027255Y-10417414D02*
X86089160Y-10541223D01*
X86089160Y-10541223D02*
X86089160Y-10665033D01*
X86089160Y-10665033D02*
X86027255Y-10850747D01*
X86027255Y-10850747D02*
X85284398Y-11593604D01*
X85284398Y-11593604D02*
X86089160Y-11593604D01*
X135284398Y-10293604D02*
X136089160Y-10293604D01*
X136089160Y-10293604D02*
X135655826Y-10788842D01*
X135655826Y-10788842D02*
X135841541Y-10788842D01*
X135841541Y-10788842D02*
X135965350Y-10850747D01*
X135965350Y-10850747D02*
X136027255Y-10912652D01*
X136027255Y-10912652D02*
X136089160Y-11036461D01*
X136089160Y-11036461D02*
X136089160Y-11345985D01*
X136089160Y-11345985D02*
X136027255Y-11469795D01*
X136027255Y-11469795D02*
X135965350Y-11531700D01*
X135965350Y-11531700D02*
X135841541Y-11593604D01*
X135841541Y-11593604D02*
X135470112Y-11593604D01*
X135470112Y-11593604D02*
X135346303Y-11531700D01*
X135346303Y-11531700D02*
X135284398Y-11469795D01*
X185965350Y-10726938D02*
X185965350Y-11593604D01*
X185655826Y-10231700D02*
X185346303Y-11160271D01*
X185346303Y-11160271D02*
X186151064Y-11160271D01*
X236027255Y-10293604D02*
X235408207Y-10293604D01*
X235408207Y-10293604D02*
X235346303Y-10912652D01*
X235346303Y-10912652D02*
X235408207Y-10850747D01*
X235408207Y-10850747D02*
X235532017Y-10788842D01*
X235532017Y-10788842D02*
X235841541Y-10788842D01*
X235841541Y-10788842D02*
X235965350Y-10850747D01*
X235965350Y-10850747D02*
X236027255Y-10912652D01*
X236027255Y-10912652D02*
X236089160Y-11036461D01*
X236089160Y-11036461D02*
X236089160Y-11345985D01*
X236089160Y-11345985D02*
X236027255Y-11469795D01*
X236027255Y-11469795D02*
X235965350Y-11531700D01*
X235965350Y-11531700D02*
X235841541Y-11593604D01*
X235841541Y-11593604D02*
X235532017Y-11593604D01*
X235532017Y-11593604D02*
X235408207Y-11531700D01*
X235408207Y-11531700D02*
X235346303Y-11469795D01*
X285965350Y-10293604D02*
X285717731Y-10293604D01*
X285717731Y-10293604D02*
X285593922Y-10355509D01*
X285593922Y-10355509D02*
X285532017Y-10417414D01*
X285532017Y-10417414D02*
X285408207Y-10603128D01*
X285408207Y-10603128D02*
X285346303Y-10850747D01*
X285346303Y-10850747D02*
X285346303Y-11345985D01*
X285346303Y-11345985D02*
X285408207Y-11469795D01*
X285408207Y-11469795D02*
X285470112Y-11531700D01*
X285470112Y-11531700D02*
X285593922Y-11593604D01*
X285593922Y-11593604D02*
X285841541Y-11593604D01*
X285841541Y-11593604D02*
X285965350Y-11531700D01*
X285965350Y-11531700D02*
X286027255Y-11469795D01*
X286027255Y-11469795D02*
X286089160Y-11345985D01*
X286089160Y-11345985D02*
X286089160Y-11036461D01*
X286089160Y-11036461D02*
X286027255Y-10912652D01*
X286027255Y-10912652D02*
X285965350Y-10850747D01*
X285965350Y-10850747D02*
X285841541Y-10788842D01*
X285841541Y-10788842D02*
X285593922Y-10788842D01*
X285593922Y-10788842D02*
X285470112Y-10850747D01*
X285470112Y-10850747D02*
X285408207Y-10912652D01*
X285408207Y-10912652D02*
X285346303Y-11036461D01*
X60000000Y-198007200D02*
X60000000Y-200007200D01*
X110000000Y-198007200D02*
X110000000Y-200007200D01*
X160000000Y-198007200D02*
X160000000Y-200007200D01*
X210000000Y-198007200D02*
X210000000Y-200007200D01*
X260000000Y-198007200D02*
X260000000Y-200007200D01*
X36089160Y-199600804D02*
X35346303Y-199600804D01*
X35717731Y-199600804D02*
X35717731Y-198300804D01*
X35717731Y-198300804D02*
X35593922Y-198486519D01*
X35593922Y-198486519D02*
X35470112Y-198610328D01*
X35470112Y-198610328D02*
X35346303Y-198672233D01*
X85346303Y-198424614D02*
X85408207Y-198362709D01*
X85408207Y-198362709D02*
X85532017Y-198300804D01*
X85532017Y-198300804D02*
X85841541Y-198300804D01*
X85841541Y-198300804D02*
X85965350Y-198362709D01*
X85965350Y-198362709D02*
X86027255Y-198424614D01*
X86027255Y-198424614D02*
X86089160Y-198548423D01*
X86089160Y-198548423D02*
X86089160Y-198672233D01*
X86089160Y-198672233D02*
X86027255Y-198857947D01*
X86027255Y-198857947D02*
X85284398Y-199600804D01*
X85284398Y-199600804D02*
X86089160Y-199600804D01*
X135284398Y-198300804D02*
X136089160Y-198300804D01*
X136089160Y-198300804D02*
X135655826Y-198796042D01*
X135655826Y-198796042D02*
X135841541Y-198796042D01*
X135841541Y-198796042D02*
X135965350Y-198857947D01*
X135965350Y-198857947D02*
X136027255Y-198919852D01*
X136027255Y-198919852D02*
X136089160Y-199043661D01*
X136089160Y-199043661D02*
X136089160Y-199353185D01*
X136089160Y-199353185D02*
X136027255Y-199476995D01*
X136027255Y-199476995D02*
X135965350Y-199538900D01*
X135965350Y-199538900D02*
X135841541Y-199600804D01*
X135841541Y-199600804D02*
X135470112Y-199600804D01*
X135470112Y-199600804D02*
X135346303Y-199538900D01*
X135346303Y-199538900D02*
X135284398Y-199476995D01*
X185965350Y-198734138D02*
X185965350Y-199600804D01*
X185655826Y-198238900D02*
X185346303Y-199167471D01*
X185346303Y-199167471D02*
X186151064Y-199167471D01*
X236027255Y-198300804D02*
X235408207Y-198300804D01*
X235408207Y-198300804D02*
X235346303Y-198919852D01*
X235346303Y-198919852D02*
X235408207Y-198857947D01*
X235408207Y-198857947D02*
X235532017Y-198796042D01*
X235532017Y-198796042D02*
X235841541Y-198796042D01*
X235841541Y-198796042D02*
X235965350Y-198857947D01*
X235965350Y-198857947D02*
X236027255Y-198919852D01*
X236027255Y-198919852D02*
X236089160Y-199043661D01*
X236089160Y-199043661D02*
X236089160Y-199353185D01*
X236089160Y-199353185D02*
X236027255Y-199476995D01*
X236027255Y-199476995D02*
X235965350Y-199538900D01*
X235965350Y-199538900D02*
X235841541Y-199600804D01*
X235841541Y-199600804D02*
X235532017Y-199600804D01*
X235532017Y-199600804D02*
X235408207Y-199538900D01*
X235408207Y-199538900D02*
X235346303Y-199476995D01*
X285965350Y-198300804D02*
X285717731Y-198300804D01*
X285717731Y-198300804D02*
X285593922Y-198362709D01*
X285593922Y-198362709D02*
X285532017Y-198424614D01*
X285532017Y-198424614D02*
X285408207Y-198610328D01*
X285408207Y-198610328D02*
X285346303Y-198857947D01*
X285346303Y-198857947D02*
X285346303Y-199353185D01*
X285346303Y-199353185D02*
X285408207Y-199476995D01*
X285408207Y-199476995D02*
X285470112Y-199538900D01*
X285470112Y-199538900D02*
X285593922Y-199600804D01*
X285593922Y-199600804D02*
X285841541Y-199600804D01*
X285841541Y-199600804D02*
X285965350Y-199538900D01*
X285965350Y-199538900D02*
X286027255Y-199476995D01*
X286027255Y-199476995D02*
X286089160Y-199353185D01*
X286089160Y-199353185D02*
X286089160Y-199043661D01*
X286089160Y-199043661D02*
X286027255Y-198919852D01*
X286027255Y-198919852D02*
X285965350Y-198857947D01*
X285965350Y-198857947D02*
X285841541Y-198796042D01*
X285841541Y-198796042D02*
X285593922Y-198796042D01*
X285593922Y-198796042D02*
X285470112Y-198857947D01*
X285470112Y-198857947D02*
X285408207Y-198919852D01*
X285408207Y-198919852D02*
X285346303Y-199043661D01*
X10000000Y-60000000D02*
X12000000Y-60000000D01*
X10000000Y-110000000D02*
X12000000Y-110000000D01*
X10000000Y-160000000D02*
X12000000Y-160000000D01*
X10690476Y-35222176D02*
X11309523Y-35222176D01*
X10566666Y-35593604D02*
X10999999Y-34293604D01*
X10999999Y-34293604D02*
X11433333Y-35593604D01*
X11092857Y-84912652D02*
X11278571Y-84974557D01*
X11278571Y-84974557D02*
X11340476Y-85036461D01*
X11340476Y-85036461D02*
X11402380Y-85160271D01*
X11402380Y-85160271D02*
X11402380Y-85345985D01*
X11402380Y-85345985D02*
X11340476Y-85469795D01*
X11340476Y-85469795D02*
X11278571Y-85531700D01*
X11278571Y-85531700D02*
X11154761Y-85593604D01*
X11154761Y-85593604D02*
X10659523Y-85593604D01*
X10659523Y-85593604D02*
X10659523Y-84293604D01*
X10659523Y-84293604D02*
X11092857Y-84293604D01*
X11092857Y-84293604D02*
X11216666Y-84355509D01*
X11216666Y-84355509D02*
X11278571Y-84417414D01*
X11278571Y-84417414D02*
X11340476Y-84541223D01*
X11340476Y-84541223D02*
X11340476Y-84665033D01*
X11340476Y-84665033D02*
X11278571Y-84788842D01*
X11278571Y-84788842D02*
X11216666Y-84850747D01*
X11216666Y-84850747D02*
X11092857Y-84912652D01*
X11092857Y-84912652D02*
X10659523Y-84912652D01*
X11402380Y-135469795D02*
X11340476Y-135531700D01*
X11340476Y-135531700D02*
X11154761Y-135593604D01*
X11154761Y-135593604D02*
X11030952Y-135593604D01*
X11030952Y-135593604D02*
X10845238Y-135531700D01*
X10845238Y-135531700D02*
X10721428Y-135407890D01*
X10721428Y-135407890D02*
X10659523Y-135284080D01*
X10659523Y-135284080D02*
X10597619Y-135036461D01*
X10597619Y-135036461D02*
X10597619Y-134850747D01*
X10597619Y-134850747D02*
X10659523Y-134603128D01*
X10659523Y-134603128D02*
X10721428Y-134479319D01*
X10721428Y-134479319D02*
X10845238Y-134355509D01*
X10845238Y-134355509D02*
X11030952Y-134293604D01*
X11030952Y-134293604D02*
X11154761Y-134293604D01*
X11154761Y-134293604D02*
X11340476Y-134355509D01*
X11340476Y-134355509D02*
X11402380Y-134417414D01*
X10659523Y-185593604D02*
X10659523Y-184293604D01*
X10659523Y-184293604D02*
X10969047Y-184293604D01*
X10969047Y-184293604D02*
X11154761Y-184355509D01*
X11154761Y-184355509D02*
X11278571Y-184479319D01*
X11278571Y-184479319D02*
X11340476Y-184603128D01*
X11340476Y-184603128D02*
X11402380Y-184850747D01*
X11402380Y-184850747D02*
X11402380Y-185036461D01*
X11402380Y-185036461D02*
X11340476Y-185284080D01*
X11340476Y-185284080D02*
X11278571Y-185407890D01*
X11278571Y-185407890D02*
X11154761Y-185531700D01*
X11154761Y-185531700D02*
X10969047Y-185593604D01*
X10969047Y-185593604D02*
X10659523Y-185593604D01*
X287002200Y-60000000D02*
X285002200Y-60000000D01*
X287002200Y-110000000D02*
X285002200Y-110000000D01*
X287002200Y-160000000D02*
X285002200Y-160000000D01*
X285692676Y-35222176D02*
X286311723Y-35222176D01*
X285568866Y-35593604D02*
X286002199Y-34293604D01*
X286002199Y-34293604D02*
X286435533Y-35593604D01*
X286095057Y-84912652D02*
X286280771Y-84974557D01*
X286280771Y-84974557D02*
X286342676Y-85036461D01*
X286342676Y-85036461D02*
X286404580Y-85160271D01*
X286404580Y-85160271D02*
X286404580Y-85345985D01*
X286404580Y-85345985D02*
X286342676Y-85469795D01*
X286342676Y-85469795D02*
X286280771Y-85531700D01*
X286280771Y-85531700D02*
X286156961Y-85593604D01*
X286156961Y-85593604D02*
X285661723Y-85593604D01*
X285661723Y-85593604D02*
X285661723Y-84293604D01*
X285661723Y-84293604D02*
X286095057Y-84293604D01*
X286095057Y-84293604D02*
X286218866Y-84355509D01*
X286218866Y-84355509D02*
X286280771Y-84417414D01*
X286280771Y-84417414D02*
X286342676Y-84541223D01*
X286342676Y-84541223D02*
X286342676Y-84665033D01*
X286342676Y-84665033D02*
X286280771Y-84788842D01*
X286280771Y-84788842D02*
X286218866Y-84850747D01*
X286218866Y-84850747D02*
X286095057Y-84912652D01*
X286095057Y-84912652D02*
X285661723Y-84912652D01*
X286404580Y-135469795D02*
X286342676Y-135531700D01*
X286342676Y-135531700D02*
X286156961Y-135593604D01*
X286156961Y-135593604D02*
X286033152Y-135593604D01*
X286033152Y-135593604D02*
X285847438Y-135531700D01*
X285847438Y-135531700D02*
X285723628Y-135407890D01*
X285723628Y-135407890D02*
X285661723Y-135284080D01*
X285661723Y-135284080D02*
X285599819Y-135036461D01*
X285599819Y-135036461D02*
X285599819Y-134850747D01*
X285599819Y-134850747D02*
X285661723Y-134603128D01*
X285661723Y-134603128D02*
X285723628Y-134479319D01*
X285723628Y-134479319D02*
X285847438Y-134355509D01*
X285847438Y-134355509D02*
X286033152Y-134293604D01*
X286033152Y-134293604D02*
X286156961Y-134293604D01*
X286156961Y-134293604D02*
X286342676Y-134355509D01*
X286342676Y-134355509D02*
X286404580Y-134417414D01*
X285661723Y-185593604D02*
X285661723Y-184293604D01*
X285661723Y-184293604D02*
X285971247Y-184293604D01*
X285971247Y-184293604D02*
X286156961Y-184355509D01*
X286156961Y-184355509D02*
X286280771Y-184479319D01*
X286280771Y-184479319D02*
X286342676Y-184603128D01*
X286342676Y-184603128D02*
X286404580Y-184850747D01*
X286404580Y-184850747D02*
X286404580Y-185036461D01*
X286404580Y-185036461D02*
X286342676Y-185284080D01*
X286342676Y-185284080D02*
X286280771Y-185407890D01*
X286280771Y-185407890D02*
X286156961Y-185531700D01*
X286156961Y-185531700D02*
X285971247Y-185593604D01*
X285971247Y-185593604D02*
X285661723Y-185593604D01*
X200458026Y-193793328D02*
X200458026Y-192293328D01*
X200458026Y-192293328D02*
X200815169Y-192293328D01*
X200815169Y-192293328D02*
X201029455Y-192364757D01*
X201029455Y-192364757D02*
X201172312Y-192507614D01*
X201172312Y-192507614D02*
X201243741Y-192650471D01*
X201243741Y-192650471D02*
X201315169Y-192936185D01*
X201315169Y-192936185D02*
X201315169Y-193150471D01*
X201315169Y-193150471D02*
X201243741Y-193436185D01*
X201243741Y-193436185D02*
X201172312Y-193579042D01*
X201172312Y-193579042D02*
X201029455Y-193721900D01*
X201029455Y-193721900D02*
X200815169Y-193793328D01*
X200815169Y-193793328D02*
X200458026Y-193793328D01*
X202600884Y-193793328D02*
X202600884Y-193007614D01*
X202600884Y-193007614D02*
X202529455Y-192864757D01*
X202529455Y-192864757D02*
X202386598Y-192793328D01*
X202386598Y-192793328D02*
X202100884Y-192793328D01*
X202100884Y-192793328D02*
X201958026Y-192864757D01*
X202600884Y-193721900D02*
X202458026Y-193793328D01*
X202458026Y-193793328D02*
X202100884Y-193793328D01*
X202100884Y-193793328D02*
X201958026Y-193721900D01*
X201958026Y-193721900D02*
X201886598Y-193579042D01*
X201886598Y-193579042D02*
X201886598Y-193436185D01*
X201886598Y-193436185D02*
X201958026Y-193293328D01*
X201958026Y-193293328D02*
X202100884Y-193221900D01*
X202100884Y-193221900D02*
X202458026Y-193221900D01*
X202458026Y-193221900D02*
X202600884Y-193150471D01*
X203100884Y-192793328D02*
X203672312Y-192793328D01*
X203315169Y-192293328D02*
X203315169Y-193579042D01*
X203315169Y-193579042D02*
X203386598Y-193721900D01*
X203386598Y-193721900D02*
X203529455Y-193793328D01*
X203529455Y-193793328D02*
X203672312Y-193793328D01*
X204743741Y-193721900D02*
X204600884Y-193793328D01*
X204600884Y-193793328D02*
X204315170Y-193793328D01*
X204315170Y-193793328D02*
X204172312Y-193721900D01*
X204172312Y-193721900D02*
X204100884Y-193579042D01*
X204100884Y-193579042D02*
X204100884Y-193007614D01*
X204100884Y-193007614D02*
X204172312Y-192864757D01*
X204172312Y-192864757D02*
X204315170Y-192793328D01*
X204315170Y-192793328D02*
X204600884Y-192793328D01*
X204600884Y-192793328D02*
X204743741Y-192864757D01*
X204743741Y-192864757D02*
X204815170Y-193007614D01*
X204815170Y-193007614D02*
X204815170Y-193150471D01*
X204815170Y-193150471D02*
X204100884Y-193293328D01*
X205458026Y-193650471D02*
X205529455Y-193721900D01*
X205529455Y-193721900D02*
X205458026Y-193793328D01*
X205458026Y-193793328D02*
X205386598Y-193721900D01*
X205386598Y-193721900D02*
X205458026Y-193650471D01*
X205458026Y-193650471D02*
X205458026Y-193793328D01*
X205458026Y-192864757D02*
X205529455Y-192936185D01*
X205529455Y-192936185D02*
X205458026Y-193007614D01*
X205458026Y-193007614D02*
X205386598Y-192936185D01*
X205386598Y-192936185D02*
X205458026Y-192864757D01*
X205458026Y-192864757D02*
X205458026Y-193007614D01*
X207243741Y-192436185D02*
X207315169Y-192364757D01*
X207315169Y-192364757D02*
X207458027Y-192293328D01*
X207458027Y-192293328D02*
X207815169Y-192293328D01*
X207815169Y-192293328D02*
X207958027Y-192364757D01*
X207958027Y-192364757D02*
X208029455Y-192436185D01*
X208029455Y-192436185D02*
X208100884Y-192579042D01*
X208100884Y-192579042D02*
X208100884Y-192721900D01*
X208100884Y-192721900D02*
X208029455Y-192936185D01*
X208029455Y-192936185D02*
X207172312Y-193793328D01*
X207172312Y-193793328D02*
X208100884Y-193793328D01*
X209029455Y-192293328D02*
X209172312Y-192293328D01*
X209172312Y-192293328D02*
X209315169Y-192364757D01*
X209315169Y-192364757D02*
X209386598Y-192436185D01*
X209386598Y-192436185D02*
X209458026Y-192579042D01*
X209458026Y-192579042D02*
X209529455Y-192864757D01*
X209529455Y-192864757D02*
X209529455Y-193221900D01*
X209529455Y-193221900D02*
X209458026Y-193507614D01*
X209458026Y-193507614D02*
X209386598Y-193650471D01*
X209386598Y-193650471D02*
X209315169Y-193721900D01*
X209315169Y-193721900D02*
X209172312Y-193793328D01*
X209172312Y-193793328D02*
X209029455Y-193793328D01*
X209029455Y-193793328D02*
X208886598Y-193721900D01*
X208886598Y-193721900D02*
X208815169Y-193650471D01*
X208815169Y-193650471D02*
X208743740Y-193507614D01*
X208743740Y-193507614D02*
X208672312Y-193221900D01*
X208672312Y-193221900D02*
X208672312Y-192864757D01*
X208672312Y-192864757D02*
X208743740Y-192579042D01*
X208743740Y-192579042D02*
X208815169Y-192436185D01*
X208815169Y-192436185D02*
X208886598Y-192364757D01*
X208886598Y-192364757D02*
X209029455Y-192293328D01*
X210100883Y-192436185D02*
X210172311Y-192364757D01*
X210172311Y-192364757D02*
X210315169Y-192293328D01*
X210315169Y-192293328D02*
X210672311Y-192293328D01*
X210672311Y-192293328D02*
X210815169Y-192364757D01*
X210815169Y-192364757D02*
X210886597Y-192436185D01*
X210886597Y-192436185D02*
X210958026Y-192579042D01*
X210958026Y-192579042D02*
X210958026Y-192721900D01*
X210958026Y-192721900D02*
X210886597Y-192936185D01*
X210886597Y-192936185D02*
X210029454Y-193793328D01*
X210029454Y-193793328D02*
X210958026Y-193793328D01*
X212243740Y-192293328D02*
X211958025Y-192293328D01*
X211958025Y-192293328D02*
X211815168Y-192364757D01*
X211815168Y-192364757D02*
X211743740Y-192436185D01*
X211743740Y-192436185D02*
X211600882Y-192650471D01*
X211600882Y-192650471D02*
X211529454Y-192936185D01*
X211529454Y-192936185D02*
X211529454Y-193507614D01*
X211529454Y-193507614D02*
X211600882Y-193650471D01*
X211600882Y-193650471D02*
X211672311Y-193721900D01*
X211672311Y-193721900D02*
X211815168Y-193793328D01*
X211815168Y-193793328D02*
X212100882Y-193793328D01*
X212100882Y-193793328D02*
X212243740Y-193721900D01*
X212243740Y-193721900D02*
X212315168Y-193650471D01*
X212315168Y-193650471D02*
X212386597Y-193507614D01*
X212386597Y-193507614D02*
X212386597Y-193150471D01*
X212386597Y-193150471D02*
X212315168Y-193007614D01*
X212315168Y-193007614D02*
X212243740Y-192936185D01*
X212243740Y-192936185D02*
X212100882Y-192864757D01*
X212100882Y-192864757D02*
X211815168Y-192864757D01*
X211815168Y-192864757D02*
X211672311Y-192936185D01*
X211672311Y-192936185D02*
X211600882Y-193007614D01*
X211600882Y-193007614D02*
X211529454Y-193150471D01*
X213029453Y-193221900D02*
X214172311Y-193221900D01*
X215172311Y-192293328D02*
X215315168Y-192293328D01*
X215315168Y-192293328D02*
X215458025Y-192364757D01*
X215458025Y-192364757D02*
X215529454Y-192436185D01*
X215529454Y-192436185D02*
X215600882Y-192579042D01*
X215600882Y-192579042D02*
X215672311Y-192864757D01*
X215672311Y-192864757D02*
X215672311Y-193221900D01*
X215672311Y-193221900D02*
X215600882Y-193507614D01*
X215600882Y-193507614D02*
X215529454Y-193650471D01*
X215529454Y-193650471D02*
X215458025Y-193721900D01*
X215458025Y-193721900D02*
X215315168Y-193793328D01*
X215315168Y-193793328D02*
X215172311Y-193793328D01*
X215172311Y-193793328D02*
X215029454Y-193721900D01*
X215029454Y-193721900D02*
X214958025Y-193650471D01*
X214958025Y-193650471D02*
X214886596Y-193507614D01*
X214886596Y-193507614D02*
X214815168Y-193221900D01*
X214815168Y-193221900D02*
X214815168Y-192864757D01*
X214815168Y-192864757D02*
X214886596Y-192579042D01*
X214886596Y-192579042D02*
X214958025Y-192436185D01*
X214958025Y-192436185D02*
X215029454Y-192364757D01*
X215029454Y-192364757D02*
X215172311Y-192293328D01*
X216529453Y-192936185D02*
X216386596Y-192864757D01*
X216386596Y-192864757D02*
X216315167Y-192793328D01*
X216315167Y-192793328D02*
X216243739Y-192650471D01*
X216243739Y-192650471D02*
X216243739Y-192579042D01*
X216243739Y-192579042D02*
X216315167Y-192436185D01*
X216315167Y-192436185D02*
X216386596Y-192364757D01*
X216386596Y-192364757D02*
X216529453Y-192293328D01*
X216529453Y-192293328D02*
X216815167Y-192293328D01*
X216815167Y-192293328D02*
X216958025Y-192364757D01*
X216958025Y-192364757D02*
X217029453Y-192436185D01*
X217029453Y-192436185D02*
X217100882Y-192579042D01*
X217100882Y-192579042D02*
X217100882Y-192650471D01*
X217100882Y-192650471D02*
X217029453Y-192793328D01*
X217029453Y-192793328D02*
X216958025Y-192864757D01*
X216958025Y-192864757D02*
X216815167Y-192936185D01*
X216815167Y-192936185D02*
X216529453Y-192936185D01*
X216529453Y-192936185D02*
X216386596Y-193007614D01*
X216386596Y-193007614D02*
X216315167Y-193079042D01*
X216315167Y-193079042D02*
X216243739Y-193221900D01*
X216243739Y-193221900D02*
X216243739Y-193507614D01*
X216243739Y-193507614D02*
X216315167Y-193650471D01*
X216315167Y-193650471D02*
X216386596Y-193721900D01*
X216386596Y-193721900D02*
X216529453Y-193793328D01*
X216529453Y-193793328D02*
X216815167Y-193793328D01*
X216815167Y-193793328D02*
X216958025Y-193721900D01*
X216958025Y-193721900D02*
X217029453Y-193650471D01*
X217029453Y-193650471D02*
X217100882Y-193507614D01*
X217100882Y-193507614D02*
X217100882Y-193221900D01*
X217100882Y-193221900D02*
X217029453Y-193079042D01*
X217029453Y-193079042D02*
X216958025Y-193007614D01*
X216958025Y-193007614D02*
X216815167Y-192936185D01*
X217743738Y-193221900D02*
X218886596Y-193221900D01*
X220386596Y-193793328D02*
X219529453Y-193793328D01*
X219958024Y-193793328D02*
X219958024Y-192293328D01*
X219958024Y-192293328D02*
X219815167Y-192507614D01*
X219815167Y-192507614D02*
X219672310Y-192650471D01*
X219672310Y-192650471D02*
X219529453Y-192721900D01*
X220886595Y-192293328D02*
X221886595Y-192293328D01*
X221886595Y-192293328D02*
X221243738Y-193793328D01*
X177002200Y-194507200D02*
X285002200Y-194507200D01*
X178458026Y-196593328D02*
X178458026Y-195093328D01*
X179315169Y-196593328D02*
X178672312Y-195736185D01*
X179315169Y-195093328D02*
X178458026Y-195950471D01*
X179958026Y-196593328D02*
X179958026Y-195593328D01*
X179958026Y-195093328D02*
X179886598Y-195164757D01*
X179886598Y-195164757D02*
X179958026Y-195236185D01*
X179958026Y-195236185D02*
X180029455Y-195164757D01*
X180029455Y-195164757D02*
X179958026Y-195093328D01*
X179958026Y-195093328D02*
X179958026Y-195236185D01*
X181529455Y-196450471D02*
X181458027Y-196521900D01*
X181458027Y-196521900D02*
X181243741Y-196593328D01*
X181243741Y-196593328D02*
X181100884Y-196593328D01*
X181100884Y-196593328D02*
X180886598Y-196521900D01*
X180886598Y-196521900D02*
X180743741Y-196379042D01*
X180743741Y-196379042D02*
X180672312Y-196236185D01*
X180672312Y-196236185D02*
X180600884Y-195950471D01*
X180600884Y-195950471D02*
X180600884Y-195736185D01*
X180600884Y-195736185D02*
X180672312Y-195450471D01*
X180672312Y-195450471D02*
X180743741Y-195307614D01*
X180743741Y-195307614D02*
X180886598Y-195164757D01*
X180886598Y-195164757D02*
X181100884Y-195093328D01*
X181100884Y-195093328D02*
X181243741Y-195093328D01*
X181243741Y-195093328D02*
X181458027Y-195164757D01*
X181458027Y-195164757D02*
X181529455Y-195236185D01*
X182815170Y-196593328D02*
X182815170Y-195807614D01*
X182815170Y-195807614D02*
X182743741Y-195664757D01*
X182743741Y-195664757D02*
X182600884Y-195593328D01*
X182600884Y-195593328D02*
X182315170Y-195593328D01*
X182315170Y-195593328D02*
X182172312Y-195664757D01*
X182815170Y-196521900D02*
X182672312Y-196593328D01*
X182672312Y-196593328D02*
X182315170Y-196593328D01*
X182315170Y-196593328D02*
X182172312Y-196521900D01*
X182172312Y-196521900D02*
X182100884Y-196379042D01*
X182100884Y-196379042D02*
X182100884Y-196236185D01*
X182100884Y-196236185D02*
X182172312Y-196093328D01*
X182172312Y-196093328D02*
X182315170Y-196021900D01*
X182315170Y-196021900D02*
X182672312Y-196021900D01*
X182672312Y-196021900D02*
X182815170Y-195950471D01*
X184172313Y-196593328D02*
X184172313Y-195093328D01*
X184172313Y-196521900D02*
X184029455Y-196593328D01*
X184029455Y-196593328D02*
X183743741Y-196593328D01*
X183743741Y-196593328D02*
X183600884Y-196521900D01*
X183600884Y-196521900D02*
X183529455Y-196450471D01*
X183529455Y-196450471D02*
X183458027Y-196307614D01*
X183458027Y-196307614D02*
X183458027Y-195879042D01*
X183458027Y-195879042D02*
X183529455Y-195736185D01*
X183529455Y-195736185D02*
X183600884Y-195664757D01*
X183600884Y-195664757D02*
X183743741Y-195593328D01*
X183743741Y-195593328D02*
X184029455Y-195593328D01*
X184029455Y-195593328D02*
X184172313Y-195664757D01*
X186029455Y-195807614D02*
X186529455Y-195807614D01*
X186743741Y-196593328D02*
X186029455Y-196593328D01*
X186029455Y-196593328D02*
X186029455Y-195093328D01*
X186029455Y-195093328D02*
X186743741Y-195093328D01*
X187386598Y-196450471D02*
X187458027Y-196521900D01*
X187458027Y-196521900D02*
X187386598Y-196593328D01*
X187386598Y-196593328D02*
X187315170Y-196521900D01*
X187315170Y-196521900D02*
X187386598Y-196450471D01*
X187386598Y-196450471D02*
X187386598Y-196593328D01*
X188100884Y-196593328D02*
X188100884Y-195093328D01*
X188100884Y-195093328D02*
X188458027Y-195093328D01*
X188458027Y-195093328D02*
X188672313Y-195164757D01*
X188672313Y-195164757D02*
X188815170Y-195307614D01*
X188815170Y-195307614D02*
X188886599Y-195450471D01*
X188886599Y-195450471D02*
X188958027Y-195736185D01*
X188958027Y-195736185D02*
X188958027Y-195950471D01*
X188958027Y-195950471D02*
X188886599Y-196236185D01*
X188886599Y-196236185D02*
X188815170Y-196379042D01*
X188815170Y-196379042D02*
X188672313Y-196521900D01*
X188672313Y-196521900D02*
X188458027Y-196593328D01*
X188458027Y-196593328D02*
X188100884Y-196593328D01*
X189600884Y-196450471D02*
X189672313Y-196521900D01*
X189672313Y-196521900D02*
X189600884Y-196593328D01*
X189600884Y-196593328D02*
X189529456Y-196521900D01*
X189529456Y-196521900D02*
X189600884Y-196450471D01*
X189600884Y-196450471D02*
X189600884Y-196593328D01*
X190243742Y-196164757D02*
X190958028Y-196164757D01*
X190100885Y-196593328D02*
X190600885Y-195093328D01*
X190600885Y-195093328D02*
X191100885Y-196593328D01*
X191600884Y-196450471D02*
X191672313Y-196521900D01*
X191672313Y-196521900D02*
X191600884Y-196593328D01*
X191600884Y-196593328D02*
X191529456Y-196521900D01*
X191529456Y-196521900D02*
X191600884Y-196450471D01*
X191600884Y-196450471D02*
X191600884Y-196593328D01*
X194243742Y-196593328D02*
X193386599Y-196593328D01*
X193815170Y-196593328D02*
X193815170Y-195093328D01*
X193815170Y-195093328D02*
X193672313Y-195307614D01*
X193672313Y-195307614D02*
X193529456Y-195450471D01*
X193529456Y-195450471D02*
X193386599Y-195521900D01*
X195172313Y-195093328D02*
X195315170Y-195093328D01*
X195315170Y-195093328D02*
X195458027Y-195164757D01*
X195458027Y-195164757D02*
X195529456Y-195236185D01*
X195529456Y-195236185D02*
X195600884Y-195379042D01*
X195600884Y-195379042D02*
X195672313Y-195664757D01*
X195672313Y-195664757D02*
X195672313Y-196021900D01*
X195672313Y-196021900D02*
X195600884Y-196307614D01*
X195600884Y-196307614D02*
X195529456Y-196450471D01*
X195529456Y-196450471D02*
X195458027Y-196521900D01*
X195458027Y-196521900D02*
X195315170Y-196593328D01*
X195315170Y-196593328D02*
X195172313Y-196593328D01*
X195172313Y-196593328D02*
X195029456Y-196521900D01*
X195029456Y-196521900D02*
X194958027Y-196450471D01*
X194958027Y-196450471D02*
X194886598Y-196307614D01*
X194886598Y-196307614D02*
X194815170Y-196021900D01*
X194815170Y-196021900D02*
X194815170Y-195664757D01*
X194815170Y-195664757D02*
X194886598Y-195379042D01*
X194886598Y-195379042D02*
X194958027Y-195236185D01*
X194958027Y-195236185D02*
X195029456Y-195164757D01*
X195029456Y-195164757D02*
X195172313Y-195093328D01*
X196315169Y-196450471D02*
X196386598Y-196521900D01*
X196386598Y-196521900D02*
X196315169Y-196593328D01*
X196315169Y-196593328D02*
X196243741Y-196521900D01*
X196243741Y-196521900D02*
X196315169Y-196450471D01*
X196315169Y-196450471D02*
X196315169Y-196593328D01*
X197315170Y-195093328D02*
X197458027Y-195093328D01*
X197458027Y-195093328D02*
X197600884Y-195164757D01*
X197600884Y-195164757D02*
X197672313Y-195236185D01*
X197672313Y-195236185D02*
X197743741Y-195379042D01*
X197743741Y-195379042D02*
X197815170Y-195664757D01*
X197815170Y-195664757D02*
X197815170Y-196021900D01*
X197815170Y-196021900D02*
X197743741Y-196307614D01*
X197743741Y-196307614D02*
X197672313Y-196450471D01*
X197672313Y-196450471D02*
X197600884Y-196521900D01*
X197600884Y-196521900D02*
X197458027Y-196593328D01*
X197458027Y-196593328D02*
X197315170Y-196593328D01*
X197315170Y-196593328D02*
X197172313Y-196521900D01*
X197172313Y-196521900D02*
X197100884Y-196450471D01*
X197100884Y-196450471D02*
X197029455Y-196307614D01*
X197029455Y-196307614D02*
X196958027Y-196021900D01*
X196958027Y-196021900D02*
X196958027Y-195664757D01*
X196958027Y-195664757D02*
X197029455Y-195379042D01*
X197029455Y-195379042D02*
X197100884Y-195236185D01*
X197100884Y-195236185D02*
X197172313Y-195164757D01*
X197172313Y-195164757D02*
X197315170Y-195093328D01*
X198458026Y-196450471D02*
X198529455Y-196521900D01*
X198529455Y-196521900D02*
X198458026Y-196593328D01*
X198458026Y-196593328D02*
X198386598Y-196521900D01*
X198386598Y-196521900D02*
X198458026Y-196450471D01*
X198458026Y-196450471D02*
X198458026Y-196593328D01*
X199815170Y-195593328D02*
X199815170Y-196593328D01*
X199458027Y-195021900D02*
X199100884Y-196093328D01*
X199100884Y-196093328D02*
X200029455Y-196093328D01*
X177002200Y-191507200D02*
X285002200Y-191507200D01*
D11*
X264413853Y-193785528D02*
X263913853Y-193071242D01*
X263556710Y-193785528D02*
X263556710Y-192285528D01*
X263556710Y-192285528D02*
X264128139Y-192285528D01*
X264128139Y-192285528D02*
X264270996Y-192356957D01*
X264270996Y-192356957D02*
X264342425Y-192428385D01*
X264342425Y-192428385D02*
X264413853Y-192571242D01*
X264413853Y-192571242D02*
X264413853Y-192785528D01*
X264413853Y-192785528D02*
X264342425Y-192928385D01*
X264342425Y-192928385D02*
X264270996Y-192999814D01*
X264270996Y-192999814D02*
X264128139Y-193071242D01*
X264128139Y-193071242D02*
X263556710Y-193071242D01*
X265628139Y-193714100D02*
X265485282Y-193785528D01*
X265485282Y-193785528D02*
X265199568Y-193785528D01*
X265199568Y-193785528D02*
X265056710Y-193714100D01*
X265056710Y-193714100D02*
X264985282Y-193571242D01*
X264985282Y-193571242D02*
X264985282Y-192999814D01*
X264985282Y-192999814D02*
X265056710Y-192856957D01*
X265056710Y-192856957D02*
X265199568Y-192785528D01*
X265199568Y-192785528D02*
X265485282Y-192785528D01*
X265485282Y-192785528D02*
X265628139Y-192856957D01*
X265628139Y-192856957D02*
X265699568Y-192999814D01*
X265699568Y-192999814D02*
X265699568Y-193142671D01*
X265699568Y-193142671D02*
X264985282Y-193285528D01*
X266199567Y-192785528D02*
X266556710Y-193785528D01*
X266556710Y-193785528D02*
X266913853Y-192785528D01*
X267485281Y-193642671D02*
X267556710Y-193714100D01*
X267556710Y-193714100D02*
X267485281Y-193785528D01*
X267485281Y-193785528D02*
X267413853Y-193714100D01*
X267413853Y-193714100D02*
X267485281Y-193642671D01*
X267485281Y-193642671D02*
X267485281Y-193785528D01*
X267485281Y-192856957D02*
X267556710Y-192928385D01*
X267556710Y-192928385D02*
X267485281Y-192999814D01*
X267485281Y-192999814D02*
X267413853Y-192928385D01*
X267413853Y-192928385D02*
X267485281Y-192856957D01*
X267485281Y-192856957D02*
X267485281Y-192999814D01*
D10*
X178386598Y-193721900D02*
X178600884Y-193793328D01*
X178600884Y-193793328D02*
X178958026Y-193793328D01*
X178958026Y-193793328D02*
X179100884Y-193721900D01*
X179100884Y-193721900D02*
X179172312Y-193650471D01*
X179172312Y-193650471D02*
X179243741Y-193507614D01*
X179243741Y-193507614D02*
X179243741Y-193364757D01*
X179243741Y-193364757D02*
X179172312Y-193221900D01*
X179172312Y-193221900D02*
X179100884Y-193150471D01*
X179100884Y-193150471D02*
X178958026Y-193079042D01*
X178958026Y-193079042D02*
X178672312Y-193007614D01*
X178672312Y-193007614D02*
X178529455Y-192936185D01*
X178529455Y-192936185D02*
X178458026Y-192864757D01*
X178458026Y-192864757D02*
X178386598Y-192721900D01*
X178386598Y-192721900D02*
X178386598Y-192579042D01*
X178386598Y-192579042D02*
X178458026Y-192436185D01*
X178458026Y-192436185D02*
X178529455Y-192364757D01*
X178529455Y-192364757D02*
X178672312Y-192293328D01*
X178672312Y-192293328D02*
X179029455Y-192293328D01*
X179029455Y-192293328D02*
X179243741Y-192364757D01*
X179886597Y-193793328D02*
X179886597Y-192793328D01*
X179886597Y-192293328D02*
X179815169Y-192364757D01*
X179815169Y-192364757D02*
X179886597Y-192436185D01*
X179886597Y-192436185D02*
X179958026Y-192364757D01*
X179958026Y-192364757D02*
X179886597Y-192293328D01*
X179886597Y-192293328D02*
X179886597Y-192436185D01*
X180458026Y-192793328D02*
X181243741Y-192793328D01*
X181243741Y-192793328D02*
X180458026Y-193793328D01*
X180458026Y-193793328D02*
X181243741Y-193793328D01*
X182386598Y-193721900D02*
X182243741Y-193793328D01*
X182243741Y-193793328D02*
X181958027Y-193793328D01*
X181958027Y-193793328D02*
X181815169Y-193721900D01*
X181815169Y-193721900D02*
X181743741Y-193579042D01*
X181743741Y-193579042D02*
X181743741Y-193007614D01*
X181743741Y-193007614D02*
X181815169Y-192864757D01*
X181815169Y-192864757D02*
X181958027Y-192793328D01*
X181958027Y-192793328D02*
X182243741Y-192793328D01*
X182243741Y-192793328D02*
X182386598Y-192864757D01*
X182386598Y-192864757D02*
X182458027Y-193007614D01*
X182458027Y-193007614D02*
X182458027Y-193150471D01*
X182458027Y-193150471D02*
X181743741Y-193293328D01*
X183100883Y-193650471D02*
X183172312Y-193721900D01*
X183172312Y-193721900D02*
X183100883Y-193793328D01*
X183100883Y-193793328D02*
X183029455Y-193721900D01*
X183029455Y-193721900D02*
X183100883Y-193650471D01*
X183100883Y-193650471D02*
X183100883Y-193793328D01*
X183100883Y-192864757D02*
X183172312Y-192936185D01*
X183172312Y-192936185D02*
X183100883Y-193007614D01*
X183100883Y-193007614D02*
X183029455Y-192936185D01*
X183029455Y-192936185D02*
X183100883Y-192864757D01*
X183100883Y-192864757D02*
X183100883Y-193007614D01*
X184886598Y-193364757D02*
X185600884Y-193364757D01*
X184743741Y-193793328D02*
X185243741Y-192293328D01*
X185243741Y-192293328D02*
X185743741Y-193793328D01*
X186886598Y-192793328D02*
X186886598Y-193793328D01*
X186529455Y-192221900D02*
X186172312Y-193293328D01*
X186172312Y-193293328D02*
X187100883Y-193293328D01*
X263458026Y-196593328D02*
X263458026Y-195093328D01*
X264815170Y-196593328D02*
X264815170Y-195093328D01*
X264815170Y-196521900D02*
X264672312Y-196593328D01*
X264672312Y-196593328D02*
X264386598Y-196593328D01*
X264386598Y-196593328D02*
X264243741Y-196521900D01*
X264243741Y-196521900D02*
X264172312Y-196450471D01*
X264172312Y-196450471D02*
X264100884Y-196307614D01*
X264100884Y-196307614D02*
X264100884Y-195879042D01*
X264100884Y-195879042D02*
X264172312Y-195736185D01*
X264172312Y-195736185D02*
X264243741Y-195664757D01*
X264243741Y-195664757D02*
X264386598Y-195593328D01*
X264386598Y-195593328D02*
X264672312Y-195593328D01*
X264672312Y-195593328D02*
X264815170Y-195664757D01*
X265529455Y-196450471D02*
X265600884Y-196521900D01*
X265600884Y-196521900D02*
X265529455Y-196593328D01*
X265529455Y-196593328D02*
X265458027Y-196521900D01*
X265458027Y-196521900D02*
X265529455Y-196450471D01*
X265529455Y-196450471D02*
X265529455Y-196593328D01*
X265529455Y-195664757D02*
X265600884Y-195736185D01*
X265600884Y-195736185D02*
X265529455Y-195807614D01*
X265529455Y-195807614D02*
X265458027Y-195736185D01*
X265458027Y-195736185D02*
X265529455Y-195664757D01*
X265529455Y-195664757D02*
X265529455Y-195807614D01*
X268100884Y-195093328D02*
X267386598Y-195093328D01*
X267386598Y-195093328D02*
X267315170Y-195807614D01*
X267315170Y-195807614D02*
X267386598Y-195736185D01*
X267386598Y-195736185D02*
X267529456Y-195664757D01*
X267529456Y-195664757D02*
X267886598Y-195664757D01*
X267886598Y-195664757D02*
X268029456Y-195736185D01*
X268029456Y-195736185D02*
X268100884Y-195807614D01*
X268100884Y-195807614D02*
X268172313Y-195950471D01*
X268172313Y-195950471D02*
X268172313Y-196307614D01*
X268172313Y-196307614D02*
X268100884Y-196450471D01*
X268100884Y-196450471D02*
X268029456Y-196521900D01*
X268029456Y-196521900D02*
X267886598Y-196593328D01*
X267886598Y-196593328D02*
X267529456Y-196593328D01*
X267529456Y-196593328D02*
X267386598Y-196521900D01*
X267386598Y-196521900D02*
X267315170Y-196450471D01*
X269886598Y-195021900D02*
X268600884Y-196950471D01*
X271172313Y-196593328D02*
X270315170Y-196593328D01*
X270743741Y-196593328D02*
X270743741Y-195093328D01*
X270743741Y-195093328D02*
X270600884Y-195307614D01*
X270600884Y-195307614D02*
X270458027Y-195450471D01*
X270458027Y-195450471D02*
X270315170Y-195521900D01*
X272600884Y-196593328D02*
X271743741Y-196593328D01*
X272172312Y-196593328D02*
X272172312Y-195093328D01*
X272172312Y-195093328D02*
X272029455Y-195307614D01*
X272029455Y-195307614D02*
X271886598Y-195450471D01*
X271886598Y-195450471D02*
X271743741Y-195521900D01*
X177002200Y-187507200D02*
X285002200Y-187507200D01*
D12*
X178693928Y-188211638D02*
X179836785Y-188211638D01*
X179015357Y-190211638D02*
X179265357Y-188211638D01*
X180253452Y-190211638D02*
X180420119Y-188878304D01*
X180503452Y-188211638D02*
X180396309Y-188306876D01*
X180396309Y-188306876D02*
X180479643Y-188402114D01*
X180479643Y-188402114D02*
X180586786Y-188306876D01*
X180586786Y-188306876D02*
X180503452Y-188211638D01*
X180503452Y-188211638D02*
X180479643Y-188402114D01*
X181086786Y-188878304D02*
X181848690Y-188878304D01*
X181455833Y-188211638D02*
X181241548Y-189925923D01*
X181241548Y-189925923D02*
X181312976Y-190116400D01*
X181312976Y-190116400D02*
X181491548Y-190211638D01*
X181491548Y-190211638D02*
X181682024Y-190211638D01*
X182634405Y-190211638D02*
X182455833Y-190116400D01*
X182455833Y-190116400D02*
X182384405Y-189925923D01*
X182384405Y-189925923D02*
X182598690Y-188211638D01*
X184170119Y-190116400D02*
X183967738Y-190211638D01*
X183967738Y-190211638D02*
X183586785Y-190211638D01*
X183586785Y-190211638D02*
X183408214Y-190116400D01*
X183408214Y-190116400D02*
X183336785Y-189925923D01*
X183336785Y-189925923D02*
X183432024Y-189164019D01*
X183432024Y-189164019D02*
X183551071Y-188973542D01*
X183551071Y-188973542D02*
X183753452Y-188878304D01*
X183753452Y-188878304D02*
X184134404Y-188878304D01*
X184134404Y-188878304D02*
X184312976Y-188973542D01*
X184312976Y-188973542D02*
X184384404Y-189164019D01*
X184384404Y-189164019D02*
X184360595Y-189354495D01*
X184360595Y-189354495D02*
X183384404Y-189544971D01*
X185134405Y-190021161D02*
X185217738Y-190116400D01*
X185217738Y-190116400D02*
X185110595Y-190211638D01*
X185110595Y-190211638D02*
X185027262Y-190116400D01*
X185027262Y-190116400D02*
X185134405Y-190021161D01*
X185134405Y-190021161D02*
X185110595Y-190211638D01*
X185265357Y-188973542D02*
X185348690Y-189068780D01*
X185348690Y-189068780D02*
X185241548Y-189164019D01*
X185241548Y-189164019D02*
X185158214Y-189068780D01*
X185158214Y-189068780D02*
X185265357Y-188973542D01*
X185265357Y-188973542D02*
X185241548Y-189164019D01*
D10*
X178958026Y-185607614D02*
X178458026Y-185607614D01*
X178458026Y-186393328D02*
X178458026Y-184893328D01*
X178458026Y-184893328D02*
X179172312Y-184893328D01*
X179743740Y-186393328D02*
X179743740Y-185393328D01*
X179743740Y-184893328D02*
X179672312Y-184964757D01*
X179672312Y-184964757D02*
X179743740Y-185036185D01*
X179743740Y-185036185D02*
X179815169Y-184964757D01*
X179815169Y-184964757D02*
X179743740Y-184893328D01*
X179743740Y-184893328D02*
X179743740Y-185036185D01*
X180672312Y-186393328D02*
X180529455Y-186321900D01*
X180529455Y-186321900D02*
X180458026Y-186179042D01*
X180458026Y-186179042D02*
X180458026Y-184893328D01*
X181815169Y-186321900D02*
X181672312Y-186393328D01*
X181672312Y-186393328D02*
X181386598Y-186393328D01*
X181386598Y-186393328D02*
X181243740Y-186321900D01*
X181243740Y-186321900D02*
X181172312Y-186179042D01*
X181172312Y-186179042D02*
X181172312Y-185607614D01*
X181172312Y-185607614D02*
X181243740Y-185464757D01*
X181243740Y-185464757D02*
X181386598Y-185393328D01*
X181386598Y-185393328D02*
X181672312Y-185393328D01*
X181672312Y-185393328D02*
X181815169Y-185464757D01*
X181815169Y-185464757D02*
X181886598Y-185607614D01*
X181886598Y-185607614D02*
X181886598Y-185750471D01*
X181886598Y-185750471D02*
X181172312Y-185893328D01*
X182529454Y-186250471D02*
X182600883Y-186321900D01*
X182600883Y-186321900D02*
X182529454Y-186393328D01*
X182529454Y-186393328D02*
X182458026Y-186321900D01*
X182458026Y-186321900D02*
X182529454Y-186250471D01*
X182529454Y-186250471D02*
X182529454Y-186393328D01*
X182529454Y-185464757D02*
X182600883Y-185536185D01*
X182600883Y-185536185D02*
X182529454Y-185607614D01*
X182529454Y-185607614D02*
X182458026Y-185536185D01*
X182458026Y-185536185D02*
X182529454Y-185464757D01*
X182529454Y-185464757D02*
X182529454Y-185607614D01*
X184886597Y-185607614D02*
X185100883Y-185679042D01*
X185100883Y-185679042D02*
X185172312Y-185750471D01*
X185172312Y-185750471D02*
X185243740Y-185893328D01*
X185243740Y-185893328D02*
X185243740Y-186107614D01*
X185243740Y-186107614D02*
X185172312Y-186250471D01*
X185172312Y-186250471D02*
X185100883Y-186321900D01*
X185100883Y-186321900D02*
X184958026Y-186393328D01*
X184958026Y-186393328D02*
X184386597Y-186393328D01*
X184386597Y-186393328D02*
X184386597Y-184893328D01*
X184386597Y-184893328D02*
X184886597Y-184893328D01*
X184886597Y-184893328D02*
X185029455Y-184964757D01*
X185029455Y-184964757D02*
X185100883Y-185036185D01*
X185100883Y-185036185D02*
X185172312Y-185179042D01*
X185172312Y-185179042D02*
X185172312Y-185321900D01*
X185172312Y-185321900D02*
X185100883Y-185464757D01*
X185100883Y-185464757D02*
X185029455Y-185536185D01*
X185029455Y-185536185D02*
X184886597Y-185607614D01*
X184886597Y-185607614D02*
X184386597Y-185607614D01*
X186600883Y-186393328D02*
X185886597Y-186393328D01*
X185886597Y-186393328D02*
X185886597Y-184893328D01*
X187100883Y-185607614D02*
X187600883Y-185607614D01*
X187815169Y-186393328D02*
X187100883Y-186393328D01*
X187100883Y-186393328D02*
X187100883Y-184893328D01*
X187100883Y-184893328D02*
X187815169Y-184893328D01*
X188458026Y-186393328D02*
X188458026Y-184893328D01*
X188600884Y-185821900D02*
X189029455Y-186393328D01*
X189029455Y-185393328D02*
X188458026Y-185964757D01*
X190243741Y-186321900D02*
X190100884Y-186393328D01*
X190100884Y-186393328D02*
X189815170Y-186393328D01*
X189815170Y-186393328D02*
X189672312Y-186321900D01*
X189672312Y-186321900D02*
X189600884Y-186179042D01*
X189600884Y-186179042D02*
X189600884Y-185607614D01*
X189600884Y-185607614D02*
X189672312Y-185464757D01*
X189672312Y-185464757D02*
X189815170Y-185393328D01*
X189815170Y-185393328D02*
X190100884Y-185393328D01*
X190100884Y-185393328D02*
X190243741Y-185464757D01*
X190243741Y-185464757D02*
X190315170Y-185607614D01*
X190315170Y-185607614D02*
X190315170Y-185750471D01*
X190315170Y-185750471D02*
X189600884Y-185893328D01*
X190815169Y-185393328D02*
X191172312Y-186393328D01*
X191529455Y-185393328D02*
X191172312Y-186393328D01*
X191172312Y-186393328D02*
X191029455Y-186750471D01*
X191029455Y-186750471D02*
X190958026Y-186821900D01*
X190958026Y-186821900D02*
X190815169Y-186893328D01*
X192100883Y-186393328D02*
X192100883Y-184893328D01*
X192100883Y-185464757D02*
X192243741Y-185393328D01*
X192243741Y-185393328D02*
X192529455Y-185393328D01*
X192529455Y-185393328D02*
X192672312Y-185464757D01*
X192672312Y-185464757D02*
X192743741Y-185536185D01*
X192743741Y-185536185D02*
X192815169Y-185679042D01*
X192815169Y-185679042D02*
X192815169Y-186107614D01*
X192815169Y-186107614D02*
X192743741Y-186250471D01*
X192743741Y-186250471D02*
X192672312Y-186321900D01*
X192672312Y-186321900D02*
X192529455Y-186393328D01*
X192529455Y-186393328D02*
X192243741Y-186393328D01*
X192243741Y-186393328D02*
X192100883Y-186321900D01*
X193672312Y-186393328D02*
X193529455Y-186321900D01*
X193529455Y-186321900D02*
X193458026Y-186250471D01*
X193458026Y-186250471D02*
X193386598Y-186107614D01*
X193386598Y-186107614D02*
X193386598Y-185679042D01*
X193386598Y-185679042D02*
X193458026Y-185536185D01*
X193458026Y-185536185D02*
X193529455Y-185464757D01*
X193529455Y-185464757D02*
X193672312Y-185393328D01*
X193672312Y-185393328D02*
X193886598Y-185393328D01*
X193886598Y-185393328D02*
X194029455Y-185464757D01*
X194029455Y-185464757D02*
X194100884Y-185536185D01*
X194100884Y-185536185D02*
X194172312Y-185679042D01*
X194172312Y-185679042D02*
X194172312Y-186107614D01*
X194172312Y-186107614D02*
X194100884Y-186250471D01*
X194100884Y-186250471D02*
X194029455Y-186321900D01*
X194029455Y-186321900D02*
X193886598Y-186393328D01*
X193886598Y-186393328D02*
X193672312Y-186393328D01*
X195458027Y-186393328D02*
X195458027Y-185607614D01*
X195458027Y-185607614D02*
X195386598Y-185464757D01*
X195386598Y-185464757D02*
X195243741Y-185393328D01*
X195243741Y-185393328D02*
X194958027Y-185393328D01*
X194958027Y-185393328D02*
X194815169Y-185464757D01*
X195458027Y-186321900D02*
X195315169Y-186393328D01*
X195315169Y-186393328D02*
X194958027Y-186393328D01*
X194958027Y-186393328D02*
X194815169Y-186321900D01*
X194815169Y-186321900D02*
X194743741Y-186179042D01*
X194743741Y-186179042D02*
X194743741Y-186036185D01*
X194743741Y-186036185D02*
X194815169Y-185893328D01*
X194815169Y-185893328D02*
X194958027Y-185821900D01*
X194958027Y-185821900D02*
X195315169Y-185821900D01*
X195315169Y-185821900D02*
X195458027Y-185750471D01*
X196172312Y-186393328D02*
X196172312Y-185393328D01*
X196172312Y-185679042D02*
X196243741Y-185536185D01*
X196243741Y-185536185D02*
X196315170Y-185464757D01*
X196315170Y-185464757D02*
X196458027Y-185393328D01*
X196458027Y-185393328D02*
X196600884Y-185393328D01*
X197743741Y-186393328D02*
X197743741Y-184893328D01*
X197743741Y-186321900D02*
X197600883Y-186393328D01*
X197600883Y-186393328D02*
X197315169Y-186393328D01*
X197315169Y-186393328D02*
X197172312Y-186321900D01*
X197172312Y-186321900D02*
X197100883Y-186250471D01*
X197100883Y-186250471D02*
X197029455Y-186107614D01*
X197029455Y-186107614D02*
X197029455Y-185679042D01*
X197029455Y-185679042D02*
X197100883Y-185536185D01*
X197100883Y-185536185D02*
X197172312Y-185464757D01*
X197172312Y-185464757D02*
X197315169Y-185393328D01*
X197315169Y-185393328D02*
X197600883Y-185393328D01*
X197600883Y-185393328D02*
X197743741Y-185464757D01*
X198458026Y-186250471D02*
X198529455Y-186321900D01*
X198529455Y-186321900D02*
X198458026Y-186393328D01*
X198458026Y-186393328D02*
X198386598Y-186321900D01*
X198386598Y-186321900D02*
X198458026Y-186250471D01*
X198458026Y-186250471D02*
X198458026Y-186393328D01*
X199172312Y-186393328D02*
X199172312Y-184893328D01*
X199315170Y-185821900D02*
X199743741Y-186393328D01*
X199743741Y-185393328D02*
X199172312Y-185964757D01*
X200386598Y-186393328D02*
X200386598Y-185393328D01*
X200386598Y-184893328D02*
X200315170Y-184964757D01*
X200315170Y-184964757D02*
X200386598Y-185036185D01*
X200386598Y-185036185D02*
X200458027Y-184964757D01*
X200458027Y-184964757D02*
X200386598Y-184893328D01*
X200386598Y-184893328D02*
X200386598Y-185036185D01*
X201743742Y-186321900D02*
X201600884Y-186393328D01*
X201600884Y-186393328D02*
X201315170Y-186393328D01*
X201315170Y-186393328D02*
X201172313Y-186321900D01*
X201172313Y-186321900D02*
X201100884Y-186250471D01*
X201100884Y-186250471D02*
X201029456Y-186107614D01*
X201029456Y-186107614D02*
X201029456Y-185679042D01*
X201029456Y-185679042D02*
X201100884Y-185536185D01*
X201100884Y-185536185D02*
X201172313Y-185464757D01*
X201172313Y-185464757D02*
X201315170Y-185393328D01*
X201315170Y-185393328D02*
X201600884Y-185393328D01*
X201600884Y-185393328D02*
X201743742Y-185464757D01*
X203029456Y-186393328D02*
X203029456Y-185607614D01*
X203029456Y-185607614D02*
X202958027Y-185464757D01*
X202958027Y-185464757D02*
X202815170Y-185393328D01*
X202815170Y-185393328D02*
X202529456Y-185393328D01*
X202529456Y-185393328D02*
X202386598Y-185464757D01*
X203029456Y-186321900D02*
X202886598Y-186393328D01*
X202886598Y-186393328D02*
X202529456Y-186393328D01*
X202529456Y-186393328D02*
X202386598Y-186321900D01*
X202386598Y-186321900D02*
X202315170Y-186179042D01*
X202315170Y-186179042D02*
X202315170Y-186036185D01*
X202315170Y-186036185D02*
X202386598Y-185893328D01*
X202386598Y-185893328D02*
X202529456Y-185821900D01*
X202529456Y-185821900D02*
X202886598Y-185821900D01*
X202886598Y-185821900D02*
X203029456Y-185750471D01*
X204386599Y-186393328D02*
X204386599Y-184893328D01*
X204386599Y-186321900D02*
X204243741Y-186393328D01*
X204243741Y-186393328D02*
X203958027Y-186393328D01*
X203958027Y-186393328D02*
X203815170Y-186321900D01*
X203815170Y-186321900D02*
X203743741Y-186250471D01*
X203743741Y-186250471D02*
X203672313Y-186107614D01*
X203672313Y-186107614D02*
X203672313Y-185679042D01*
X203672313Y-185679042D02*
X203743741Y-185536185D01*
X203743741Y-185536185D02*
X203815170Y-185464757D01*
X203815170Y-185464757D02*
X203958027Y-185393328D01*
X203958027Y-185393328D02*
X204243741Y-185393328D01*
X204243741Y-185393328D02*
X204386599Y-185464757D01*
X204743742Y-186536185D02*
X205886599Y-186536185D01*
X206243741Y-185393328D02*
X206243741Y-186893328D01*
X206243741Y-185464757D02*
X206386599Y-185393328D01*
X206386599Y-185393328D02*
X206672313Y-185393328D01*
X206672313Y-185393328D02*
X206815170Y-185464757D01*
X206815170Y-185464757D02*
X206886599Y-185536185D01*
X206886599Y-185536185D02*
X206958027Y-185679042D01*
X206958027Y-185679042D02*
X206958027Y-186107614D01*
X206958027Y-186107614D02*
X206886599Y-186250471D01*
X206886599Y-186250471D02*
X206815170Y-186321900D01*
X206815170Y-186321900D02*
X206672313Y-186393328D01*
X206672313Y-186393328D02*
X206386599Y-186393328D01*
X206386599Y-186393328D02*
X206243741Y-186321900D01*
X208243742Y-186321900D02*
X208100884Y-186393328D01*
X208100884Y-186393328D02*
X207815170Y-186393328D01*
X207815170Y-186393328D02*
X207672313Y-186321900D01*
X207672313Y-186321900D02*
X207600884Y-186250471D01*
X207600884Y-186250471D02*
X207529456Y-186107614D01*
X207529456Y-186107614D02*
X207529456Y-185679042D01*
X207529456Y-185679042D02*
X207600884Y-185536185D01*
X207600884Y-185536185D02*
X207672313Y-185464757D01*
X207672313Y-185464757D02*
X207815170Y-185393328D01*
X207815170Y-185393328D02*
X208100884Y-185393328D01*
X208100884Y-185393328D02*
X208243742Y-185464757D01*
X208886598Y-186393328D02*
X208886598Y-184893328D01*
X208886598Y-185464757D02*
X209029456Y-185393328D01*
X209029456Y-185393328D02*
X209315170Y-185393328D01*
X209315170Y-185393328D02*
X209458027Y-185464757D01*
X209458027Y-185464757D02*
X209529456Y-185536185D01*
X209529456Y-185536185D02*
X209600884Y-185679042D01*
X209600884Y-185679042D02*
X209600884Y-186107614D01*
X209600884Y-186107614D02*
X209529456Y-186250471D01*
X209529456Y-186250471D02*
X209458027Y-186321900D01*
X209458027Y-186321900D02*
X209315170Y-186393328D01*
X209315170Y-186393328D02*
X209029456Y-186393328D01*
X209029456Y-186393328D02*
X208886598Y-186321900D01*
X177002200Y-181507200D02*
X285002200Y-181507200D01*
X178386598Y-183621900D02*
X178600884Y-183693328D01*
X178600884Y-183693328D02*
X178958026Y-183693328D01*
X178958026Y-183693328D02*
X179100884Y-183621900D01*
X179100884Y-183621900D02*
X179172312Y-183550471D01*
X179172312Y-183550471D02*
X179243741Y-183407614D01*
X179243741Y-183407614D02*
X179243741Y-183264757D01*
X179243741Y-183264757D02*
X179172312Y-183121900D01*
X179172312Y-183121900D02*
X179100884Y-183050471D01*
X179100884Y-183050471D02*
X178958026Y-182979042D01*
X178958026Y-182979042D02*
X178672312Y-182907614D01*
X178672312Y-182907614D02*
X178529455Y-182836185D01*
X178529455Y-182836185D02*
X178458026Y-182764757D01*
X178458026Y-182764757D02*
X178386598Y-182621900D01*
X178386598Y-182621900D02*
X178386598Y-182479042D01*
X178386598Y-182479042D02*
X178458026Y-182336185D01*
X178458026Y-182336185D02*
X178529455Y-182264757D01*
X178529455Y-182264757D02*
X178672312Y-182193328D01*
X178672312Y-182193328D02*
X179029455Y-182193328D01*
X179029455Y-182193328D02*
X179243741Y-182264757D01*
X179886597Y-183693328D02*
X179886597Y-182193328D01*
X180529455Y-183693328D02*
X180529455Y-182907614D01*
X180529455Y-182907614D02*
X180458026Y-182764757D01*
X180458026Y-182764757D02*
X180315169Y-182693328D01*
X180315169Y-182693328D02*
X180100883Y-182693328D01*
X180100883Y-182693328D02*
X179958026Y-182764757D01*
X179958026Y-182764757D02*
X179886597Y-182836185D01*
X181815169Y-183621900D02*
X181672312Y-183693328D01*
X181672312Y-183693328D02*
X181386598Y-183693328D01*
X181386598Y-183693328D02*
X181243740Y-183621900D01*
X181243740Y-183621900D02*
X181172312Y-183479042D01*
X181172312Y-183479042D02*
X181172312Y-182907614D01*
X181172312Y-182907614D02*
X181243740Y-182764757D01*
X181243740Y-182764757D02*
X181386598Y-182693328D01*
X181386598Y-182693328D02*
X181672312Y-182693328D01*
X181672312Y-182693328D02*
X181815169Y-182764757D01*
X181815169Y-182764757D02*
X181886598Y-182907614D01*
X181886598Y-182907614D02*
X181886598Y-183050471D01*
X181886598Y-183050471D02*
X181172312Y-183193328D01*
X183100883Y-183621900D02*
X182958026Y-183693328D01*
X182958026Y-183693328D02*
X182672312Y-183693328D01*
X182672312Y-183693328D02*
X182529454Y-183621900D01*
X182529454Y-183621900D02*
X182458026Y-183479042D01*
X182458026Y-183479042D02*
X182458026Y-182907614D01*
X182458026Y-182907614D02*
X182529454Y-182764757D01*
X182529454Y-182764757D02*
X182672312Y-182693328D01*
X182672312Y-182693328D02*
X182958026Y-182693328D01*
X182958026Y-182693328D02*
X183100883Y-182764757D01*
X183100883Y-182764757D02*
X183172312Y-182907614D01*
X183172312Y-182907614D02*
X183172312Y-183050471D01*
X183172312Y-183050471D02*
X182458026Y-183193328D01*
X183600883Y-182693328D02*
X184172311Y-182693328D01*
X183815168Y-182193328D02*
X183815168Y-183479042D01*
X183815168Y-183479042D02*
X183886597Y-183621900D01*
X183886597Y-183621900D02*
X184029454Y-183693328D01*
X184029454Y-183693328D02*
X184172311Y-183693328D01*
X184672311Y-183550471D02*
X184743740Y-183621900D01*
X184743740Y-183621900D02*
X184672311Y-183693328D01*
X184672311Y-183693328D02*
X184600883Y-183621900D01*
X184600883Y-183621900D02*
X184672311Y-183550471D01*
X184672311Y-183550471D02*
X184672311Y-183693328D01*
X184672311Y-182764757D02*
X184743740Y-182836185D01*
X184743740Y-182836185D02*
X184672311Y-182907614D01*
X184672311Y-182907614D02*
X184600883Y-182836185D01*
X184600883Y-182836185D02*
X184672311Y-182764757D01*
X184672311Y-182764757D02*
X184672311Y-182907614D01*
X197002200Y-191507200D02*
X197002200Y-194507200D01*
X261002200Y-191507200D02*
X261002200Y-198007200D01*
X84622493Y-26869819D02*
X84622493Y-27584104D01*
X84622493Y-27584104D02*
X84574874Y-27726961D01*
X84574874Y-27726961D02*
X84479636Y-27822200D01*
X84479636Y-27822200D02*
X84336779Y-27869819D01*
X84336779Y-27869819D02*
X84241541Y-27869819D01*
X85051065Y-27822200D02*
X85193922Y-27869819D01*
X85193922Y-27869819D02*
X85432017Y-27869819D01*
X85432017Y-27869819D02*
X85527255Y-27822200D01*
X85527255Y-27822200D02*
X85574874Y-27774580D01*
X85574874Y-27774580D02*
X85622493Y-27679342D01*
X85622493Y-27679342D02*
X85622493Y-27584104D01*
X85622493Y-27584104D02*
X85574874Y-27488866D01*
X85574874Y-27488866D02*
X85527255Y-27441247D01*
X85527255Y-27441247D02*
X85432017Y-27393628D01*
X85432017Y-27393628D02*
X85241541Y-27346009D01*
X85241541Y-27346009D02*
X85146303Y-27298390D01*
X85146303Y-27298390D02*
X85098684Y-27250771D01*
X85098684Y-27250771D02*
X85051065Y-27155533D01*
X85051065Y-27155533D02*
X85051065Y-27060295D01*
X85051065Y-27060295D02*
X85098684Y-26965057D01*
X85098684Y-26965057D02*
X85146303Y-26917438D01*
X85146303Y-26917438D02*
X85241541Y-26869819D01*
X85241541Y-26869819D02*
X85479636Y-26869819D01*
X85479636Y-26869819D02*
X85622493Y-26917438D01*
X85908208Y-26869819D02*
X86479636Y-26869819D01*
X86193922Y-27869819D02*
X86193922Y-26869819D01*
X87527255Y-26822200D02*
X86670113Y-28107914D01*
X87860589Y-27869819D02*
X87860589Y-26869819D01*
X87860589Y-26869819D02*
X88241541Y-26869819D01*
X88241541Y-26869819D02*
X88336779Y-26917438D01*
X88336779Y-26917438D02*
X88384398Y-26965057D01*
X88384398Y-26965057D02*
X88432017Y-27060295D01*
X88432017Y-27060295D02*
X88432017Y-27203152D01*
X88432017Y-27203152D02*
X88384398Y-27298390D01*
X88384398Y-27298390D02*
X88336779Y-27346009D01*
X88336779Y-27346009D02*
X88241541Y-27393628D01*
X88241541Y-27393628D02*
X87860589Y-27393628D01*
X88860589Y-27869819D02*
X88860589Y-26869819D01*
X88860589Y-27346009D02*
X89432017Y-27346009D01*
X89432017Y-27869819D02*
X89432017Y-26869819D01*
X84527255Y-37869819D02*
X84717731Y-37869819D01*
X84717731Y-37869819D02*
X84812969Y-37917438D01*
X84812969Y-37917438D02*
X84908207Y-38012676D01*
X84908207Y-38012676D02*
X84955826Y-38203152D01*
X84955826Y-38203152D02*
X84955826Y-38536485D01*
X84955826Y-38536485D02*
X84908207Y-38726961D01*
X84908207Y-38726961D02*
X84812969Y-38822200D01*
X84812969Y-38822200D02*
X84717731Y-38869819D01*
X84717731Y-38869819D02*
X84527255Y-38869819D01*
X84527255Y-38869819D02*
X84432017Y-38822200D01*
X84432017Y-38822200D02*
X84336779Y-38726961D01*
X84336779Y-38726961D02*
X84289160Y-38536485D01*
X84289160Y-38536485D02*
X84289160Y-38203152D01*
X84289160Y-38203152D02*
X84336779Y-38012676D01*
X84336779Y-38012676D02*
X84432017Y-37917438D01*
X84432017Y-37917438D02*
X84527255Y-37869819D01*
X85384398Y-38869819D02*
X85384398Y-37869819D01*
X85384398Y-37869819D02*
X85955826Y-38869819D01*
X85955826Y-38869819D02*
X85955826Y-37869819D01*
X87146302Y-37822200D02*
X86289160Y-39107914D01*
X87670112Y-37869819D02*
X87860588Y-37869819D01*
X87860588Y-37869819D02*
X87955826Y-37917438D01*
X87955826Y-37917438D02*
X88051064Y-38012676D01*
X88051064Y-38012676D02*
X88098683Y-38203152D01*
X88098683Y-38203152D02*
X88098683Y-38536485D01*
X88098683Y-38536485D02*
X88051064Y-38726961D01*
X88051064Y-38726961D02*
X87955826Y-38822200D01*
X87955826Y-38822200D02*
X87860588Y-38869819D01*
X87860588Y-38869819D02*
X87670112Y-38869819D01*
X87670112Y-38869819D02*
X87574874Y-38822200D01*
X87574874Y-38822200D02*
X87479636Y-38726961D01*
X87479636Y-38726961D02*
X87432017Y-38536485D01*
X87432017Y-38536485D02*
X87432017Y-38203152D01*
X87432017Y-38203152D02*
X87479636Y-38012676D01*
X87479636Y-38012676D02*
X87574874Y-37917438D01*
X87574874Y-37917438D02*
X87670112Y-37869819D01*
X88860588Y-38346009D02*
X88527255Y-38346009D01*
X88527255Y-38869819D02*
X88527255Y-37869819D01*
X88527255Y-37869819D02*
X89003445Y-37869819D01*
X89717731Y-38346009D02*
X89384398Y-38346009D01*
X89384398Y-38869819D02*
X89384398Y-37869819D01*
X89384398Y-37869819D02*
X89860588Y-37869819D01*
X94765350Y-147869819D02*
X94765350Y-146869819D01*
X94765350Y-147822200D02*
X94670112Y-147869819D01*
X94670112Y-147869819D02*
X94479636Y-147869819D01*
X94479636Y-147869819D02*
X94384398Y-147822200D01*
X94384398Y-147822200D02*
X94336779Y-147774580D01*
X94336779Y-147774580D02*
X94289160Y-147679342D01*
X94289160Y-147679342D02*
X94289160Y-147393628D01*
X94289160Y-147393628D02*
X94336779Y-147298390D01*
X94336779Y-147298390D02*
X94384398Y-147250771D01*
X94384398Y-147250771D02*
X94479636Y-147203152D01*
X94479636Y-147203152D02*
X94670112Y-147203152D01*
X94670112Y-147203152D02*
X94765350Y-147250771D01*
X95622493Y-147822200D02*
X95527255Y-147869819D01*
X95527255Y-147869819D02*
X95336779Y-147869819D01*
X95336779Y-147869819D02*
X95241541Y-147822200D01*
X95241541Y-147822200D02*
X95193922Y-147726961D01*
X95193922Y-147726961D02*
X95193922Y-147346009D01*
X95193922Y-147346009D02*
X95241541Y-147250771D01*
X95241541Y-147250771D02*
X95336779Y-147203152D01*
X95336779Y-147203152D02*
X95527255Y-147203152D01*
X95527255Y-147203152D02*
X95622493Y-147250771D01*
X95622493Y-147250771D02*
X95670112Y-147346009D01*
X95670112Y-147346009D02*
X95670112Y-147441247D01*
X95670112Y-147441247D02*
X95193922Y-147536485D01*
X96051065Y-147822200D02*
X96146303Y-147869819D01*
X96146303Y-147869819D02*
X96336779Y-147869819D01*
X96336779Y-147869819D02*
X96432017Y-147822200D01*
X96432017Y-147822200D02*
X96479636Y-147726961D01*
X96479636Y-147726961D02*
X96479636Y-147679342D01*
X96479636Y-147679342D02*
X96432017Y-147584104D01*
X96432017Y-147584104D02*
X96336779Y-147536485D01*
X96336779Y-147536485D02*
X96193922Y-147536485D01*
X96193922Y-147536485D02*
X96098684Y-147488866D01*
X96098684Y-147488866D02*
X96051065Y-147393628D01*
X96051065Y-147393628D02*
X96051065Y-147346009D01*
X96051065Y-147346009D02*
X96098684Y-147250771D01*
X96098684Y-147250771D02*
X96193922Y-147203152D01*
X96193922Y-147203152D02*
X96336779Y-147203152D01*
X96336779Y-147203152D02*
X96432017Y-147250771D01*
X96908208Y-147869819D02*
X96908208Y-147203152D01*
X96908208Y-146869819D02*
X96860589Y-146917438D01*
X96860589Y-146917438D02*
X96908208Y-146965057D01*
X96908208Y-146965057D02*
X96955827Y-146917438D01*
X96955827Y-146917438D02*
X96908208Y-146869819D01*
X96908208Y-146869819D02*
X96908208Y-146965057D01*
X97812969Y-147203152D02*
X97812969Y-148012676D01*
X97812969Y-148012676D02*
X97765350Y-148107914D01*
X97765350Y-148107914D02*
X97717731Y-148155533D01*
X97717731Y-148155533D02*
X97622493Y-148203152D01*
X97622493Y-148203152D02*
X97479636Y-148203152D01*
X97479636Y-148203152D02*
X97384398Y-148155533D01*
X97812969Y-147822200D02*
X97717731Y-147869819D01*
X97717731Y-147869819D02*
X97527255Y-147869819D01*
X97527255Y-147869819D02*
X97432017Y-147822200D01*
X97432017Y-147822200D02*
X97384398Y-147774580D01*
X97384398Y-147774580D02*
X97336779Y-147679342D01*
X97336779Y-147679342D02*
X97336779Y-147393628D01*
X97336779Y-147393628D02*
X97384398Y-147298390D01*
X97384398Y-147298390D02*
X97432017Y-147250771D01*
X97432017Y-147250771D02*
X97527255Y-147203152D01*
X97527255Y-147203152D02*
X97717731Y-147203152D01*
X97717731Y-147203152D02*
X97812969Y-147250771D01*
X98289160Y-147203152D02*
X98289160Y-147869819D01*
X98289160Y-147298390D02*
X98336779Y-147250771D01*
X98336779Y-147250771D02*
X98432017Y-147203152D01*
X98432017Y-147203152D02*
X98574874Y-147203152D01*
X98574874Y-147203152D02*
X98670112Y-147250771D01*
X98670112Y-147250771D02*
X98717731Y-147346009D01*
X98717731Y-147346009D02*
X98717731Y-147869819D01*
X99574874Y-147822200D02*
X99479636Y-147869819D01*
X99479636Y-147869819D02*
X99289160Y-147869819D01*
X99289160Y-147869819D02*
X99193922Y-147822200D01*
X99193922Y-147822200D02*
X99146303Y-147726961D01*
X99146303Y-147726961D02*
X99146303Y-147346009D01*
X99146303Y-147346009D02*
X99193922Y-147250771D01*
X99193922Y-147250771D02*
X99289160Y-147203152D01*
X99289160Y-147203152D02*
X99479636Y-147203152D01*
X99479636Y-147203152D02*
X99574874Y-147250771D01*
X99574874Y-147250771D02*
X99622493Y-147346009D01*
X99622493Y-147346009D02*
X99622493Y-147441247D01*
X99622493Y-147441247D02*
X99146303Y-147536485D01*
X100479636Y-147869819D02*
X100479636Y-146869819D01*
X100479636Y-147822200D02*
X100384398Y-147869819D01*
X100384398Y-147869819D02*
X100193922Y-147869819D01*
X100193922Y-147869819D02*
X100098684Y-147822200D01*
X100098684Y-147822200D02*
X100051065Y-147774580D01*
X100051065Y-147774580D02*
X100003446Y-147679342D01*
X100003446Y-147679342D02*
X100003446Y-147393628D01*
X100003446Y-147393628D02*
X100051065Y-147298390D01*
X100051065Y-147298390D02*
X100098684Y-147250771D01*
X100098684Y-147250771D02*
X100193922Y-147203152D01*
X100193922Y-147203152D02*
X100384398Y-147203152D01*
X100384398Y-147203152D02*
X100479636Y-147250771D01*
X101717732Y-147869819D02*
X101717732Y-146869819D01*
X101717732Y-147250771D02*
X101812970Y-147203152D01*
X101812970Y-147203152D02*
X102003446Y-147203152D01*
X102003446Y-147203152D02*
X102098684Y-147250771D01*
X102098684Y-147250771D02*
X102146303Y-147298390D01*
X102146303Y-147298390D02*
X102193922Y-147393628D01*
X102193922Y-147393628D02*
X102193922Y-147679342D01*
X102193922Y-147679342D02*
X102146303Y-147774580D01*
X102146303Y-147774580D02*
X102098684Y-147822200D01*
X102098684Y-147822200D02*
X102003446Y-147869819D01*
X102003446Y-147869819D02*
X101812970Y-147869819D01*
X101812970Y-147869819D02*
X101717732Y-147822200D01*
X102527256Y-147203152D02*
X102765351Y-147869819D01*
X103003446Y-147203152D02*
X102765351Y-147869819D01*
X102765351Y-147869819D02*
X102670113Y-148107914D01*
X102670113Y-148107914D02*
X102622494Y-148155533D01*
X102622494Y-148155533D02*
X102527256Y-148203152D01*
X104098685Y-147822200D02*
X104193923Y-147869819D01*
X104193923Y-147869819D02*
X104384399Y-147869819D01*
X104384399Y-147869819D02*
X104479637Y-147822200D01*
X104479637Y-147822200D02*
X104527256Y-147726961D01*
X104527256Y-147726961D02*
X104527256Y-147679342D01*
X104527256Y-147679342D02*
X104479637Y-147584104D01*
X104479637Y-147584104D02*
X104384399Y-147536485D01*
X104384399Y-147536485D02*
X104241542Y-147536485D01*
X104241542Y-147536485D02*
X104146304Y-147488866D01*
X104146304Y-147488866D02*
X104098685Y-147393628D01*
X104098685Y-147393628D02*
X104098685Y-147346009D01*
X104098685Y-147346009D02*
X104146304Y-147250771D01*
X104146304Y-147250771D02*
X104241542Y-147203152D01*
X104241542Y-147203152D02*
X104384399Y-147203152D01*
X104384399Y-147203152D02*
X104479637Y-147250771D01*
X104955828Y-147869819D02*
X104955828Y-147203152D01*
X104955828Y-146869819D02*
X104908209Y-146917438D01*
X104908209Y-146917438D02*
X104955828Y-146965057D01*
X104955828Y-146965057D02*
X105003447Y-146917438D01*
X105003447Y-146917438D02*
X104955828Y-146869819D01*
X104955828Y-146869819D02*
X104955828Y-146965057D01*
X105432018Y-147869819D02*
X105432018Y-146869819D01*
X105527256Y-147488866D02*
X105812970Y-147869819D01*
X105812970Y-147203152D02*
X105432018Y-147584104D01*
X106146304Y-147203152D02*
X106384399Y-147869819D01*
X106622494Y-147203152D02*
X106384399Y-147869819D01*
X106384399Y-147869819D02*
X106289161Y-148107914D01*
X106289161Y-148107914D02*
X106241542Y-148155533D01*
X106241542Y-148155533D02*
X106146304Y-148203152D01*
X107146304Y-147869819D02*
X107051066Y-147822200D01*
X107051066Y-147822200D02*
X107003447Y-147726961D01*
X107003447Y-147726961D02*
X107003447Y-146869819D01*
X107479638Y-146965057D02*
X107527257Y-146917438D01*
X107527257Y-146917438D02*
X107622495Y-146869819D01*
X107622495Y-146869819D02*
X107860590Y-146869819D01*
X107860590Y-146869819D02*
X107955828Y-146917438D01*
X107955828Y-146917438D02*
X108003447Y-146965057D01*
X108003447Y-146965057D02*
X108051066Y-147060295D01*
X108051066Y-147060295D02*
X108051066Y-147155533D01*
X108051066Y-147155533D02*
X108003447Y-147298390D01*
X108003447Y-147298390D02*
X107432019Y-147869819D01*
X107432019Y-147869819D02*
X108051066Y-147869819D01*
X109146305Y-147203152D02*
X109384400Y-147869819D01*
X109384400Y-147869819D02*
X109622495Y-147203152D01*
X110527257Y-147869819D02*
X109955829Y-147869819D01*
X110241543Y-147869819D02*
X110241543Y-146869819D01*
X110241543Y-146869819D02*
X110146305Y-147012676D01*
X110146305Y-147012676D02*
X110051067Y-147107914D01*
X110051067Y-147107914D02*
X109955829Y-147155533D01*
X110955829Y-147774580D02*
X111003448Y-147822200D01*
X111003448Y-147822200D02*
X110955829Y-147869819D01*
X110955829Y-147869819D02*
X110908210Y-147822200D01*
X110908210Y-147822200D02*
X110955829Y-147774580D01*
X110955829Y-147774580D02*
X110955829Y-147869819D01*
X111955828Y-147869819D02*
X111384400Y-147869819D01*
X111670114Y-147869819D02*
X111670114Y-146869819D01*
X111670114Y-146869819D02*
X111574876Y-147012676D01*
X111574876Y-147012676D02*
X111479638Y-147107914D01*
X111479638Y-147107914D02*
X111384400Y-147155533D01*
X119336779Y-42369819D02*
X119336779Y-41369819D01*
X119765350Y-41465057D02*
X119812969Y-41417438D01*
X119812969Y-41417438D02*
X119908207Y-41369819D01*
X119908207Y-41369819D02*
X120146302Y-41369819D01*
X120146302Y-41369819D02*
X120241540Y-41417438D01*
X120241540Y-41417438D02*
X120289159Y-41465057D01*
X120289159Y-41465057D02*
X120336778Y-41560295D01*
X120336778Y-41560295D02*
X120336778Y-41655533D01*
X120336778Y-41655533D02*
X120289159Y-41798390D01*
X120289159Y-41798390D02*
X119717731Y-42369819D01*
X119717731Y-42369819D02*
X120336778Y-42369819D01*
X121336778Y-42274580D02*
X121289159Y-42322200D01*
X121289159Y-42322200D02*
X121146302Y-42369819D01*
X121146302Y-42369819D02*
X121051064Y-42369819D01*
X121051064Y-42369819D02*
X120908207Y-42322200D01*
X120908207Y-42322200D02*
X120812969Y-42226961D01*
X120812969Y-42226961D02*
X120765350Y-42131723D01*
X120765350Y-42131723D02*
X120717731Y-41941247D01*
X120717731Y-41941247D02*
X120717731Y-41798390D01*
X120717731Y-41798390D02*
X120765350Y-41607914D01*
X120765350Y-41607914D02*
X120812969Y-41512676D01*
X120812969Y-41512676D02*
X120908207Y-41417438D01*
X120908207Y-41417438D02*
X121051064Y-41369819D01*
X121051064Y-41369819D02*
X121146302Y-41369819D01*
X121146302Y-41369819D02*
X121289159Y-41417438D01*
X121289159Y-41417438D02*
X121336778Y-41465057D01*
X122717731Y-41369819D02*
X122908207Y-41369819D01*
X122908207Y-41369819D02*
X123003445Y-41417438D01*
X123003445Y-41417438D02*
X123098683Y-41512676D01*
X123098683Y-41512676D02*
X123146302Y-41703152D01*
X123146302Y-41703152D02*
X123146302Y-42036485D01*
X123146302Y-42036485D02*
X123098683Y-42226961D01*
X123098683Y-42226961D02*
X123003445Y-42322200D01*
X123003445Y-42322200D02*
X122908207Y-42369819D01*
X122908207Y-42369819D02*
X122717731Y-42369819D01*
X122717731Y-42369819D02*
X122622493Y-42322200D01*
X122622493Y-42322200D02*
X122527255Y-42226961D01*
X122527255Y-42226961D02*
X122479636Y-42036485D01*
X122479636Y-42036485D02*
X122479636Y-41703152D01*
X122479636Y-41703152D02*
X122527255Y-41512676D01*
X122527255Y-41512676D02*
X122622493Y-41417438D01*
X122622493Y-41417438D02*
X122717731Y-41369819D01*
X124051064Y-42369819D02*
X123574874Y-42369819D01*
X123574874Y-42369819D02*
X123574874Y-41369819D01*
X124384398Y-41846009D02*
X124717731Y-41846009D01*
X124860588Y-42369819D02*
X124384398Y-42369819D01*
X124384398Y-42369819D02*
X124384398Y-41369819D01*
X124384398Y-41369819D02*
X124860588Y-41369819D01*
X125289160Y-42369819D02*
X125289160Y-41369819D01*
X125289160Y-41369819D02*
X125527255Y-41369819D01*
X125527255Y-41369819D02*
X125670112Y-41417438D01*
X125670112Y-41417438D02*
X125765350Y-41512676D01*
X125765350Y-41512676D02*
X125812969Y-41607914D01*
X125812969Y-41607914D02*
X125860588Y-41798390D01*
X125860588Y-41798390D02*
X125860588Y-41941247D01*
X125860588Y-41941247D02*
X125812969Y-42131723D01*
X125812969Y-42131723D02*
X125765350Y-42226961D01*
X125765350Y-42226961D02*
X125670112Y-42322200D01*
X125670112Y-42322200D02*
X125527255Y-42369819D01*
X125527255Y-42369819D02*
X125289160Y-42369819D01*
X127051065Y-42369819D02*
X127051065Y-41369819D01*
X127051065Y-41369819D02*
X127289160Y-41369819D01*
X127289160Y-41369819D02*
X127432017Y-41417438D01*
X127432017Y-41417438D02*
X127527255Y-41512676D01*
X127527255Y-41512676D02*
X127574874Y-41607914D01*
X127574874Y-41607914D02*
X127622493Y-41798390D01*
X127622493Y-41798390D02*
X127622493Y-41941247D01*
X127622493Y-41941247D02*
X127574874Y-42131723D01*
X127574874Y-42131723D02*
X127527255Y-42226961D01*
X127527255Y-42226961D02*
X127432017Y-42322200D01*
X127432017Y-42322200D02*
X127289160Y-42369819D01*
X127289160Y-42369819D02*
X127051065Y-42369819D01*
X128051065Y-42369819D02*
X128051065Y-41369819D01*
X128479636Y-42322200D02*
X128622493Y-42369819D01*
X128622493Y-42369819D02*
X128860588Y-42369819D01*
X128860588Y-42369819D02*
X128955826Y-42322200D01*
X128955826Y-42322200D02*
X129003445Y-42274580D01*
X129003445Y-42274580D02*
X129051064Y-42179342D01*
X129051064Y-42179342D02*
X129051064Y-42084104D01*
X129051064Y-42084104D02*
X129003445Y-41988866D01*
X129003445Y-41988866D02*
X128955826Y-41941247D01*
X128955826Y-41941247D02*
X128860588Y-41893628D01*
X128860588Y-41893628D02*
X128670112Y-41846009D01*
X128670112Y-41846009D02*
X128574874Y-41798390D01*
X128574874Y-41798390D02*
X128527255Y-41750771D01*
X128527255Y-41750771D02*
X128479636Y-41655533D01*
X128479636Y-41655533D02*
X128479636Y-41560295D01*
X128479636Y-41560295D02*
X128527255Y-41465057D01*
X128527255Y-41465057D02*
X128574874Y-41417438D01*
X128574874Y-41417438D02*
X128670112Y-41369819D01*
X128670112Y-41369819D02*
X128908207Y-41369819D01*
X128908207Y-41369819D02*
X129051064Y-41417438D01*
X129479636Y-42369819D02*
X129479636Y-41369819D01*
X129479636Y-41369819D02*
X129860588Y-41369819D01*
X129860588Y-41369819D02*
X129955826Y-41417438D01*
X129955826Y-41417438D02*
X130003445Y-41465057D01*
X130003445Y-41465057D02*
X130051064Y-41560295D01*
X130051064Y-41560295D02*
X130051064Y-41703152D01*
X130051064Y-41703152D02*
X130003445Y-41798390D01*
X130003445Y-41798390D02*
X129955826Y-41846009D01*
X129955826Y-41846009D02*
X129860588Y-41893628D01*
X129860588Y-41893628D02*
X129479636Y-41893628D01*
X167130180Y-35836779D02*
X166320657Y-35836779D01*
X166320657Y-35836779D02*
X166225419Y-35884398D01*
X166225419Y-35884398D02*
X166177800Y-35932017D01*
X166177800Y-35932017D02*
X166130180Y-36027255D01*
X166130180Y-36027255D02*
X166130180Y-36217731D01*
X166130180Y-36217731D02*
X166177800Y-36312969D01*
X166177800Y-36312969D02*
X166225419Y-36360588D01*
X166225419Y-36360588D02*
X166320657Y-36408207D01*
X166320657Y-36408207D02*
X167130180Y-36408207D01*
X166177800Y-36836779D02*
X166130180Y-36979636D01*
X166130180Y-36979636D02*
X166130180Y-37217731D01*
X166130180Y-37217731D02*
X166177800Y-37312969D01*
X166177800Y-37312969D02*
X166225419Y-37360588D01*
X166225419Y-37360588D02*
X166320657Y-37408207D01*
X166320657Y-37408207D02*
X166415895Y-37408207D01*
X166415895Y-37408207D02*
X166511133Y-37360588D01*
X166511133Y-37360588D02*
X166558752Y-37312969D01*
X166558752Y-37312969D02*
X166606371Y-37217731D01*
X166606371Y-37217731D02*
X166653990Y-37027255D01*
X166653990Y-37027255D02*
X166701609Y-36932017D01*
X166701609Y-36932017D02*
X166749228Y-36884398D01*
X166749228Y-36884398D02*
X166844466Y-36836779D01*
X166844466Y-36836779D02*
X166939704Y-36836779D01*
X166939704Y-36836779D02*
X167034942Y-36884398D01*
X167034942Y-36884398D02*
X167082561Y-36932017D01*
X167082561Y-36932017D02*
X167130180Y-37027255D01*
X167130180Y-37027255D02*
X167130180Y-37265350D01*
X167130180Y-37265350D02*
X167082561Y-37408207D01*
X166653990Y-38170112D02*
X166606371Y-38312969D01*
X166606371Y-38312969D02*
X166558752Y-38360588D01*
X166558752Y-38360588D02*
X166463514Y-38408207D01*
X166463514Y-38408207D02*
X166320657Y-38408207D01*
X166320657Y-38408207D02*
X166225419Y-38360588D01*
X166225419Y-38360588D02*
X166177800Y-38312969D01*
X166177800Y-38312969D02*
X166130180Y-38217731D01*
X166130180Y-38217731D02*
X166130180Y-37836779D01*
X166130180Y-37836779D02*
X167130180Y-37836779D01*
X167130180Y-37836779D02*
X167130180Y-38170112D01*
X167130180Y-38170112D02*
X167082561Y-38265350D01*
X167082561Y-38265350D02*
X167034942Y-38312969D01*
X167034942Y-38312969D02*
X166939704Y-38360588D01*
X166939704Y-38360588D02*
X166844466Y-38360588D01*
X166844466Y-38360588D02*
X166749228Y-38312969D01*
X166749228Y-38312969D02*
X166701609Y-38265350D01*
X166701609Y-38265350D02*
X166653990Y-38170112D01*
X166653990Y-38170112D02*
X166653990Y-37836779D01*
X161740124Y-35976191D02*
X160740124Y-36642857D01*
X161740124Y-36642857D02*
X160740124Y-35976191D01*
X160740124Y-37023810D02*
X161740124Y-37023810D01*
X161025839Y-37452381D02*
X161025839Y-37928571D01*
X160740124Y-37357143D02*
X161740124Y-37690476D01*
X161740124Y-37690476D02*
X160740124Y-38023809D01*
X161740124Y-38547619D02*
X161740124Y-38738095D01*
X161740124Y-38738095D02*
X161692505Y-38833333D01*
X161692505Y-38833333D02*
X161597267Y-38928571D01*
X161597267Y-38928571D02*
X161406791Y-38976190D01*
X161406791Y-38976190D02*
X161073458Y-38976190D01*
X161073458Y-38976190D02*
X160882982Y-38928571D01*
X160882982Y-38928571D02*
X160787744Y-38833333D01*
X160787744Y-38833333D02*
X160740124Y-38738095D01*
X160740124Y-38738095D02*
X160740124Y-38547619D01*
X160740124Y-38547619D02*
X160787744Y-38452381D01*
X160787744Y-38452381D02*
X160882982Y-38357143D01*
X160882982Y-38357143D02*
X161073458Y-38309524D01*
X161073458Y-38309524D02*
X161406791Y-38309524D01*
X161406791Y-38309524D02*
X161597267Y-38357143D01*
X161597267Y-38357143D02*
X161692505Y-38452381D01*
X161692505Y-38452381D02*
X161740124Y-38547619D01*
X159130180Y-31619047D02*
X160130180Y-31619047D01*
X160130180Y-31619047D02*
X159130180Y-32190475D01*
X159130180Y-32190475D02*
X160130180Y-32190475D01*
X159130180Y-33238094D02*
X159606371Y-32904761D01*
X159130180Y-32666666D02*
X160130180Y-32666666D01*
X160130180Y-32666666D02*
X160130180Y-33047618D01*
X160130180Y-33047618D02*
X160082561Y-33142856D01*
X160082561Y-33142856D02*
X160034942Y-33190475D01*
X160034942Y-33190475D02*
X159939704Y-33238094D01*
X159939704Y-33238094D02*
X159796847Y-33238094D01*
X159796847Y-33238094D02*
X159701609Y-33190475D01*
X159701609Y-33190475D02*
X159653990Y-33142856D01*
X159653990Y-33142856D02*
X159606371Y-33047618D01*
X159606371Y-33047618D02*
X159606371Y-32666666D01*
X159653990Y-33999999D02*
X159653990Y-33666666D01*
X159130180Y-33666666D02*
X160130180Y-33666666D01*
X160130180Y-33666666D02*
X160130180Y-34142856D01*
X160130180Y-34999999D02*
X160130180Y-34523809D01*
X160130180Y-34523809D02*
X159653990Y-34476190D01*
X159653990Y-34476190D02*
X159701609Y-34523809D01*
X159701609Y-34523809D02*
X159749228Y-34619047D01*
X159749228Y-34619047D02*
X159749228Y-34857142D01*
X159749228Y-34857142D02*
X159701609Y-34952380D01*
X159701609Y-34952380D02*
X159653990Y-34999999D01*
X159653990Y-34999999D02*
X159558752Y-35047618D01*
X159558752Y-35047618D02*
X159320657Y-35047618D01*
X159320657Y-35047618D02*
X159225419Y-34999999D01*
X159225419Y-34999999D02*
X159177800Y-34952380D01*
X159177800Y-34952380D02*
X159130180Y-34857142D01*
X159130180Y-34857142D02*
X159130180Y-34619047D01*
X159130180Y-34619047D02*
X159177800Y-34523809D01*
X159177800Y-34523809D02*
X159225419Y-34476190D01*
X160034942Y-35428571D02*
X160082561Y-35476190D01*
X160082561Y-35476190D02*
X160130180Y-35571428D01*
X160130180Y-35571428D02*
X160130180Y-35809523D01*
X160130180Y-35809523D02*
X160082561Y-35904761D01*
X160082561Y-35904761D02*
X160034942Y-35952380D01*
X160034942Y-35952380D02*
X159939704Y-35999999D01*
X159939704Y-35999999D02*
X159844466Y-35999999D01*
X159844466Y-35999999D02*
X159701609Y-35952380D01*
X159701609Y-35952380D02*
X159130180Y-35380952D01*
X159130180Y-35380952D02*
X159130180Y-35999999D01*
X159701609Y-36571428D02*
X159749228Y-36476190D01*
X159749228Y-36476190D02*
X159796847Y-36428571D01*
X159796847Y-36428571D02*
X159892085Y-36380952D01*
X159892085Y-36380952D02*
X159939704Y-36380952D01*
X159939704Y-36380952D02*
X160034942Y-36428571D01*
X160034942Y-36428571D02*
X160082561Y-36476190D01*
X160082561Y-36476190D02*
X160130180Y-36571428D01*
X160130180Y-36571428D02*
X160130180Y-36761904D01*
X160130180Y-36761904D02*
X160082561Y-36857142D01*
X160082561Y-36857142D02*
X160034942Y-36904761D01*
X160034942Y-36904761D02*
X159939704Y-36952380D01*
X159939704Y-36952380D02*
X159892085Y-36952380D01*
X159892085Y-36952380D02*
X159796847Y-36904761D01*
X159796847Y-36904761D02*
X159749228Y-36857142D01*
X159749228Y-36857142D02*
X159701609Y-36761904D01*
X159701609Y-36761904D02*
X159701609Y-36571428D01*
X159701609Y-36571428D02*
X159653990Y-36476190D01*
X159653990Y-36476190D02*
X159606371Y-36428571D01*
X159606371Y-36428571D02*
X159511133Y-36380952D01*
X159511133Y-36380952D02*
X159320657Y-36380952D01*
X159320657Y-36380952D02*
X159225419Y-36428571D01*
X159225419Y-36428571D02*
X159177800Y-36476190D01*
X159177800Y-36476190D02*
X159130180Y-36571428D01*
X159130180Y-36571428D02*
X159130180Y-36761904D01*
X159130180Y-36761904D02*
X159177800Y-36857142D01*
X159177800Y-36857142D02*
X159225419Y-36904761D01*
X159225419Y-36904761D02*
X159320657Y-36952380D01*
X159320657Y-36952380D02*
X159511133Y-36952380D01*
X159511133Y-36952380D02*
X159606371Y-36904761D01*
X159606371Y-36904761D02*
X159653990Y-36857142D01*
X159653990Y-36857142D02*
X159701609Y-36761904D01*
X159796847Y-37809523D02*
X159130180Y-37809523D01*
X160177800Y-37571428D02*
X159463514Y-37333333D01*
X159463514Y-37333333D02*
X159463514Y-37952380D01*
X160130180Y-38523809D02*
X160130180Y-38619047D01*
X160130180Y-38619047D02*
X160082561Y-38714285D01*
X160082561Y-38714285D02*
X160034942Y-38761904D01*
X160034942Y-38761904D02*
X159939704Y-38809523D01*
X159939704Y-38809523D02*
X159749228Y-38857142D01*
X159749228Y-38857142D02*
X159511133Y-38857142D01*
X159511133Y-38857142D02*
X159320657Y-38809523D01*
X159320657Y-38809523D02*
X159225419Y-38761904D01*
X159225419Y-38761904D02*
X159177800Y-38714285D01*
X159177800Y-38714285D02*
X159130180Y-38619047D01*
X159130180Y-38619047D02*
X159130180Y-38523809D01*
X159130180Y-38523809D02*
X159177800Y-38428571D01*
X159177800Y-38428571D02*
X159225419Y-38380952D01*
X159225419Y-38380952D02*
X159320657Y-38333333D01*
X159320657Y-38333333D02*
X159511133Y-38285714D01*
X159511133Y-38285714D02*
X159749228Y-38285714D01*
X159749228Y-38285714D02*
X159939704Y-38333333D01*
X159939704Y-38333333D02*
X160034942Y-38380952D01*
X160034942Y-38380952D02*
X160082561Y-38428571D01*
X160082561Y-38428571D02*
X160130180Y-38523809D01*
X159130180Y-40047619D02*
X160130180Y-40047619D01*
X160130180Y-40047619D02*
X160130180Y-40428571D01*
X160130180Y-40428571D02*
X160082561Y-40523809D01*
X160082561Y-40523809D02*
X160034942Y-40571428D01*
X160034942Y-40571428D02*
X159939704Y-40619047D01*
X159939704Y-40619047D02*
X159796847Y-40619047D01*
X159796847Y-40619047D02*
X159701609Y-40571428D01*
X159701609Y-40571428D02*
X159653990Y-40523809D01*
X159653990Y-40523809D02*
X159606371Y-40428571D01*
X159606371Y-40428571D02*
X159606371Y-40047619D01*
X159130180Y-41523809D02*
X159130180Y-41047619D01*
X159130180Y-41047619D02*
X160130180Y-41047619D01*
X160130180Y-41857143D02*
X159320657Y-41857143D01*
X159320657Y-41857143D02*
X159225419Y-41904762D01*
X159225419Y-41904762D02*
X159177800Y-41952381D01*
X159177800Y-41952381D02*
X159130180Y-42047619D01*
X159130180Y-42047619D02*
X159130180Y-42238095D01*
X159130180Y-42238095D02*
X159177800Y-42333333D01*
X159177800Y-42333333D02*
X159225419Y-42380952D01*
X159225419Y-42380952D02*
X159320657Y-42428571D01*
X159320657Y-42428571D02*
X160130180Y-42428571D01*
X159177800Y-42857143D02*
X159130180Y-43000000D01*
X159130180Y-43000000D02*
X159130180Y-43238095D01*
X159130180Y-43238095D02*
X159177800Y-43333333D01*
X159177800Y-43333333D02*
X159225419Y-43380952D01*
X159225419Y-43380952D02*
X159320657Y-43428571D01*
X159320657Y-43428571D02*
X159415895Y-43428571D01*
X159415895Y-43428571D02*
X159511133Y-43380952D01*
X159511133Y-43380952D02*
X159558752Y-43333333D01*
X159558752Y-43333333D02*
X159606371Y-43238095D01*
X159606371Y-43238095D02*
X159653990Y-43047619D01*
X159653990Y-43047619D02*
X159701609Y-42952381D01*
X159701609Y-42952381D02*
X159749228Y-42904762D01*
X159749228Y-42904762D02*
X159844466Y-42857143D01*
X159844466Y-42857143D02*
X159939704Y-42857143D01*
X159939704Y-42857143D02*
X160034942Y-42904762D01*
X160034942Y-42904762D02*
X160082561Y-42952381D01*
X160082561Y-42952381D02*
X160130180Y-43047619D01*
X160130180Y-43047619D02*
X160130180Y-43285714D01*
X160130180Y-43285714D02*
X160082561Y-43428571D01*
D12*
X95406014Y-144686819D02*
X95691728Y-144782057D01*
X95691728Y-144782057D02*
X95786966Y-144877295D01*
X95786966Y-144877295D02*
X95882204Y-145067771D01*
X95882204Y-145067771D02*
X95882204Y-145353485D01*
X95882204Y-145353485D02*
X95786966Y-145543961D01*
X95786966Y-145543961D02*
X95691728Y-145639200D01*
X95691728Y-145639200D02*
X95501252Y-145734438D01*
X95501252Y-145734438D02*
X94739347Y-145734438D01*
X94739347Y-145734438D02*
X94739347Y-143734438D01*
X94739347Y-143734438D02*
X95406014Y-143734438D01*
X95406014Y-143734438D02*
X95596490Y-143829676D01*
X95596490Y-143829676D02*
X95691728Y-143924914D01*
X95691728Y-143924914D02*
X95786966Y-144115390D01*
X95786966Y-144115390D02*
X95786966Y-144305866D01*
X95786966Y-144305866D02*
X95691728Y-144496342D01*
X95691728Y-144496342D02*
X95596490Y-144591580D01*
X95596490Y-144591580D02*
X95406014Y-144686819D01*
X95406014Y-144686819D02*
X94739347Y-144686819D01*
X97025061Y-145734438D02*
X96834585Y-145639200D01*
X96834585Y-145639200D02*
X96739347Y-145543961D01*
X96739347Y-145543961D02*
X96644109Y-145353485D01*
X96644109Y-145353485D02*
X96644109Y-144782057D01*
X96644109Y-144782057D02*
X96739347Y-144591580D01*
X96739347Y-144591580D02*
X96834585Y-144496342D01*
X96834585Y-144496342D02*
X97025061Y-144401104D01*
X97025061Y-144401104D02*
X97310776Y-144401104D01*
X97310776Y-144401104D02*
X97501252Y-144496342D01*
X97501252Y-144496342D02*
X97596490Y-144591580D01*
X97596490Y-144591580D02*
X97691728Y-144782057D01*
X97691728Y-144782057D02*
X97691728Y-145353485D01*
X97691728Y-145353485D02*
X97596490Y-145543961D01*
X97596490Y-145543961D02*
X97501252Y-145639200D01*
X97501252Y-145639200D02*
X97310776Y-145734438D01*
X97310776Y-145734438D02*
X97025061Y-145734438D01*
X98548871Y-144401104D02*
X98548871Y-145734438D01*
X98548871Y-144591580D02*
X98644109Y-144496342D01*
X98644109Y-144496342D02*
X98834585Y-144401104D01*
X98834585Y-144401104D02*
X99120300Y-144401104D01*
X99120300Y-144401104D02*
X99310776Y-144496342D01*
X99310776Y-144496342D02*
X99406014Y-144686819D01*
X99406014Y-144686819D02*
X99406014Y-145734438D01*
X101215538Y-144401104D02*
X101215538Y-146020152D01*
X101215538Y-146020152D02*
X101120300Y-146210628D01*
X101120300Y-146210628D02*
X101025062Y-146305866D01*
X101025062Y-146305866D02*
X100834585Y-146401104D01*
X100834585Y-146401104D02*
X100548871Y-146401104D01*
X100548871Y-146401104D02*
X100358395Y-146305866D01*
X101215538Y-145639200D02*
X101025062Y-145734438D01*
X101025062Y-145734438D02*
X100644109Y-145734438D01*
X100644109Y-145734438D02*
X100453633Y-145639200D01*
X100453633Y-145639200D02*
X100358395Y-145543961D01*
X100358395Y-145543961D02*
X100263157Y-145353485D01*
X100263157Y-145353485D02*
X100263157Y-144782057D01*
X100263157Y-144782057D02*
X100358395Y-144591580D01*
X100358395Y-144591580D02*
X100453633Y-144496342D01*
X100453633Y-144496342D02*
X100644109Y-144401104D01*
X100644109Y-144401104D02*
X101025062Y-144401104D01*
X101025062Y-144401104D02*
X101215538Y-144496342D01*
X102453633Y-145734438D02*
X102263157Y-145639200D01*
X102263157Y-145639200D02*
X102167919Y-145543961D01*
X102167919Y-145543961D02*
X102072681Y-145353485D01*
X102072681Y-145353485D02*
X102072681Y-144782057D01*
X102072681Y-144782057D02*
X102167919Y-144591580D01*
X102167919Y-144591580D02*
X102263157Y-144496342D01*
X102263157Y-144496342D02*
X102453633Y-144401104D01*
X102453633Y-144401104D02*
X102739348Y-144401104D01*
X102739348Y-144401104D02*
X102929824Y-144496342D01*
X102929824Y-144496342D02*
X103025062Y-144591580D01*
X103025062Y-144591580D02*
X103120300Y-144782057D01*
X103120300Y-144782057D02*
X103120300Y-145353485D01*
X103120300Y-145353485D02*
X103025062Y-145543961D01*
X103025062Y-145543961D02*
X102929824Y-145639200D01*
X102929824Y-145639200D02*
X102739348Y-145734438D01*
X102739348Y-145734438D02*
X102453633Y-145734438D01*
X106167920Y-144686819D02*
X106453634Y-144782057D01*
X106453634Y-144782057D02*
X106548872Y-144877295D01*
X106548872Y-144877295D02*
X106644110Y-145067771D01*
X106644110Y-145067771D02*
X106644110Y-145353485D01*
X106644110Y-145353485D02*
X106548872Y-145543961D01*
X106548872Y-145543961D02*
X106453634Y-145639200D01*
X106453634Y-145639200D02*
X106263158Y-145734438D01*
X106263158Y-145734438D02*
X105501253Y-145734438D01*
X105501253Y-145734438D02*
X105501253Y-143734438D01*
X105501253Y-143734438D02*
X106167920Y-143734438D01*
X106167920Y-143734438D02*
X106358396Y-143829676D01*
X106358396Y-143829676D02*
X106453634Y-143924914D01*
X106453634Y-143924914D02*
X106548872Y-144115390D01*
X106548872Y-144115390D02*
X106548872Y-144305866D01*
X106548872Y-144305866D02*
X106453634Y-144496342D01*
X106453634Y-144496342D02*
X106358396Y-144591580D01*
X106358396Y-144591580D02*
X106167920Y-144686819D01*
X106167920Y-144686819D02*
X105501253Y-144686819D01*
X107786967Y-145734438D02*
X107596491Y-145639200D01*
X107596491Y-145639200D02*
X107501253Y-145543961D01*
X107501253Y-145543961D02*
X107406015Y-145353485D01*
X107406015Y-145353485D02*
X107406015Y-144782057D01*
X107406015Y-144782057D02*
X107501253Y-144591580D01*
X107501253Y-144591580D02*
X107596491Y-144496342D01*
X107596491Y-144496342D02*
X107786967Y-144401104D01*
X107786967Y-144401104D02*
X108072682Y-144401104D01*
X108072682Y-144401104D02*
X108263158Y-144496342D01*
X108263158Y-144496342D02*
X108358396Y-144591580D01*
X108358396Y-144591580D02*
X108453634Y-144782057D01*
X108453634Y-144782057D02*
X108453634Y-145353485D01*
X108453634Y-145353485D02*
X108358396Y-145543961D01*
X108358396Y-145543961D02*
X108263158Y-145639200D01*
X108263158Y-145639200D02*
X108072682Y-145734438D01*
X108072682Y-145734438D02*
X107786967Y-145734438D01*
X110167920Y-145734438D02*
X110167920Y-144686819D01*
X110167920Y-144686819D02*
X110072682Y-144496342D01*
X110072682Y-144496342D02*
X109882206Y-144401104D01*
X109882206Y-144401104D02*
X109501253Y-144401104D01*
X109501253Y-144401104D02*
X109310777Y-144496342D01*
X110167920Y-145639200D02*
X109977444Y-145734438D01*
X109977444Y-145734438D02*
X109501253Y-145734438D01*
X109501253Y-145734438D02*
X109310777Y-145639200D01*
X109310777Y-145639200D02*
X109215539Y-145448723D01*
X109215539Y-145448723D02*
X109215539Y-145258247D01*
X109215539Y-145258247D02*
X109310777Y-145067771D01*
X109310777Y-145067771D02*
X109501253Y-144972533D01*
X109501253Y-144972533D02*
X109977444Y-144972533D01*
X109977444Y-144972533D02*
X110167920Y-144877295D01*
X111120301Y-145734438D02*
X111120301Y-144401104D01*
X111120301Y-144782057D02*
X111215539Y-144591580D01*
X111215539Y-144591580D02*
X111310777Y-144496342D01*
X111310777Y-144496342D02*
X111501253Y-144401104D01*
X111501253Y-144401104D02*
X111691730Y-144401104D01*
X113215539Y-145734438D02*
X113215539Y-143734438D01*
X113215539Y-145639200D02*
X113025063Y-145734438D01*
X113025063Y-145734438D02*
X112644110Y-145734438D01*
X112644110Y-145734438D02*
X112453634Y-145639200D01*
X112453634Y-145639200D02*
X112358396Y-145543961D01*
X112358396Y-145543961D02*
X112263158Y-145353485D01*
X112263158Y-145353485D02*
X112263158Y-144782057D01*
X112263158Y-144782057D02*
X112358396Y-144591580D01*
X112358396Y-144591580D02*
X112453634Y-144496342D01*
X112453634Y-144496342D02*
X112644110Y-144401104D01*
X112644110Y-144401104D02*
X113025063Y-144401104D01*
X113025063Y-144401104D02*
X113215539Y-144496342D01*
D11*
X154678328Y-33928571D02*
X154964042Y-34071428D01*
D10*
X159976191Y-22454819D02*
X159976191Y-21454819D01*
X159976191Y-21454819D02*
X160214286Y-21454819D01*
X160214286Y-21454819D02*
X160357143Y-21502438D01*
X160357143Y-21502438D02*
X160452381Y-21597676D01*
X160452381Y-21597676D02*
X160500000Y-21692914D01*
X160500000Y-21692914D02*
X160547619Y-21883390D01*
X160547619Y-21883390D02*
X160547619Y-22026247D01*
X160547619Y-22026247D02*
X160500000Y-22216723D01*
X160500000Y-22216723D02*
X160452381Y-22311961D01*
X160452381Y-22311961D02*
X160357143Y-22407200D01*
X160357143Y-22407200D02*
X160214286Y-22454819D01*
X160214286Y-22454819D02*
X159976191Y-22454819D01*
X160976191Y-22454819D02*
X160976191Y-21454819D01*
X161642857Y-21454819D02*
X161833333Y-21454819D01*
X161833333Y-21454819D02*
X161928571Y-21502438D01*
X161928571Y-21502438D02*
X162023809Y-21597676D01*
X162023809Y-21597676D02*
X162071428Y-21788152D01*
X162071428Y-21788152D02*
X162071428Y-22121485D01*
X162071428Y-22121485D02*
X162023809Y-22311961D01*
X162023809Y-22311961D02*
X161928571Y-22407200D01*
X161928571Y-22407200D02*
X161833333Y-22454819D01*
X161833333Y-22454819D02*
X161642857Y-22454819D01*
X161642857Y-22454819D02*
X161547619Y-22407200D01*
X161547619Y-22407200D02*
X161452381Y-22311961D01*
X161452381Y-22311961D02*
X161404762Y-22121485D01*
X161404762Y-22121485D02*
X161404762Y-21788152D01*
X161404762Y-21788152D02*
X161452381Y-21597676D01*
X161452381Y-21597676D02*
X161547619Y-21502438D01*
X161547619Y-21502438D02*
X161642857Y-21454819D01*
X164404761Y-22359580D02*
X164357142Y-22407200D01*
X164357142Y-22407200D02*
X164214285Y-22454819D01*
X164214285Y-22454819D02*
X164119047Y-22454819D01*
X164119047Y-22454819D02*
X163976190Y-22407200D01*
X163976190Y-22407200D02*
X163880952Y-22311961D01*
X163880952Y-22311961D02*
X163833333Y-22216723D01*
X163833333Y-22216723D02*
X163785714Y-22026247D01*
X163785714Y-22026247D02*
X163785714Y-21883390D01*
X163785714Y-21883390D02*
X163833333Y-21692914D01*
X163833333Y-21692914D02*
X163880952Y-21597676D01*
X163880952Y-21597676D02*
X163976190Y-21502438D01*
X163976190Y-21502438D02*
X164119047Y-21454819D01*
X164119047Y-21454819D02*
X164214285Y-21454819D01*
X164214285Y-21454819D02*
X164357142Y-21502438D01*
X164357142Y-21502438D02*
X164404761Y-21550057D01*
X165309523Y-22454819D02*
X164833333Y-22454819D01*
X164833333Y-22454819D02*
X164833333Y-21454819D01*
X165642857Y-22454819D02*
X165642857Y-21454819D01*
X166214285Y-22454819D02*
X165785714Y-21883390D01*
X166214285Y-21454819D02*
X165642857Y-22026247D01*
X97619048Y-43073866D02*
X98380953Y-43073866D01*
D11*
X164021361Y-36002190D02*
X162402314Y-36002190D01*
X162402314Y-36002190D02*
X162211838Y-36097428D01*
X162211838Y-36097428D02*
X162116600Y-36192666D01*
X162116600Y-36192666D02*
X162021361Y-36383142D01*
X162021361Y-36383142D02*
X162021361Y-36764095D01*
X162021361Y-36764095D02*
X162116600Y-36954571D01*
X162116600Y-36954571D02*
X162211838Y-37049809D01*
X162211838Y-37049809D02*
X162402314Y-37145047D01*
X162402314Y-37145047D02*
X164021361Y-37145047D01*
X163830885Y-38002190D02*
X163926123Y-38097428D01*
X163926123Y-38097428D02*
X164021361Y-38287904D01*
X164021361Y-38287904D02*
X164021361Y-38764095D01*
X164021361Y-38764095D02*
X163926123Y-38954571D01*
X163926123Y-38954571D02*
X163830885Y-39049809D01*
X163830885Y-39049809D02*
X163640409Y-39145047D01*
X163640409Y-39145047D02*
X163449933Y-39145047D01*
X163449933Y-39145047D02*
X163164219Y-39049809D01*
X163164219Y-39049809D02*
X162021361Y-37906952D01*
X162021361Y-37906952D02*
X162021361Y-39145047D01*
D10*
X93619048Y-43073866D02*
X94380953Y-43073866D01*
X94000000Y-43454819D02*
X94000000Y-42692914D01*
%TO.C,SW1*%
D13*
X88849500Y-39592840D02*
G75*
G02*
X88087500Y-39592840I-381000J0D01*
G01*
X88087500Y-39592840D02*
G75*
G02*
X88849500Y-39592840I381000J0D01*
G01*
D14*
X87973200Y-44771900D02*
X87973200Y-43329180D01*
X86827660Y-41370840D02*
X86172340Y-41370840D01*
X86172340Y-48228840D02*
X86827660Y-48228840D01*
X85026800Y-41739140D02*
X85026800Y-47860540D01*
%TO.C,SW8*%
D15*
X109984000Y-50111000D02*
X109984000Y-64311000D01*
X109984000Y-64311000D02*
X124184000Y-64311000D01*
X124184000Y-50111000D02*
X109984000Y-50111000D01*
X124184000Y-64311000D02*
X124184000Y-50111000D01*
%TO.C,SW10*%
X109984000Y-88465000D02*
X109984000Y-102665000D01*
X109984000Y-102665000D02*
X124184000Y-102665000D01*
X124184000Y-88465000D02*
X109984000Y-88465000D01*
X124184000Y-102665000D02*
X124184000Y-88465000D01*
%TO.C,SW20*%
X148438000Y-117267000D02*
X162438000Y-117267000D01*
X148438000Y-131267000D02*
X148438000Y-117267000D01*
X148438000Y-131267000D02*
X162438000Y-131267000D01*
X162438000Y-117267000D02*
X162438000Y-131267000D01*
%TO.C,SW4*%
X90807000Y-69288000D02*
X90807000Y-83488000D01*
X90807000Y-83488000D02*
X105007000Y-83488000D01*
X105007000Y-69288000D02*
X90807000Y-69288000D01*
X105007000Y-83488000D02*
X105007000Y-69288000D01*
D16*
%TO.C,'*%
G36*
X153604114Y-32633072D02*
G01*
X153660826Y-32650775D01*
X153668101Y-32661304D01*
X153636613Y-32682313D01*
X153556947Y-32694916D01*
X153509571Y-32696532D01*
X153415027Y-32689535D01*
X153358315Y-32671832D01*
X153351041Y-32661304D01*
X153382528Y-32640294D01*
X153462194Y-32627691D01*
X153509571Y-32626075D01*
X153604114Y-32633072D01*
G37*
G36*
X153656901Y-35224601D02*
G01*
X153664568Y-35281046D01*
X153665319Y-35301393D01*
X153663737Y-35377380D01*
X153649882Y-35392659D01*
X153624065Y-35365236D01*
X153558379Y-35318768D01*
X153474342Y-35293323D01*
X153412571Y-35283692D01*
X153413983Y-35278259D01*
X153481952Y-35274177D01*
X153497828Y-35273517D01*
X153587129Y-35259132D01*
X153640956Y-35230488D01*
X153644769Y-35224202D01*
X153656901Y-35224601D01*
G37*
G36*
X153566812Y-33752269D02*
G01*
X153447910Y-33853963D01*
X153566812Y-33868500D01*
X153619900Y-33877115D01*
X153608410Y-33882895D01*
X153529634Y-33886727D01*
X153509571Y-33887244D01*
X153333427Y-33891450D01*
X153452329Y-33789756D01*
X153571232Y-33688062D01*
X153452329Y-33673525D01*
X153399242Y-33664910D01*
X153410731Y-33659130D01*
X153489508Y-33655297D01*
X153509571Y-33654781D01*
X153685715Y-33650575D01*
X153566812Y-33752269D01*
G37*
G36*
X153578722Y-32821021D02*
G01*
X153643134Y-32879724D01*
X153664589Y-32970795D01*
X153661077Y-33066435D01*
X153636579Y-32978363D01*
X153591028Y-32905872D01*
X153525000Y-32883666D01*
X153462654Y-32910655D01*
X153428152Y-32985750D01*
X153427908Y-32987768D01*
X153410079Y-33051122D01*
X153383872Y-33064953D01*
X153353340Y-33010356D01*
X153362301Y-32930629D01*
X153406401Y-32857579D01*
X153492614Y-32810483D01*
X153578722Y-32821021D01*
G37*
G36*
X155908560Y-33262735D02*
G01*
X156017912Y-33269570D01*
X156079970Y-33279522D01*
X156088459Y-33286616D01*
X155993210Y-33453676D01*
X155904553Y-33599281D01*
X155829217Y-33713245D01*
X155773930Y-33785380D01*
X155745631Y-33805641D01*
X155718121Y-33770495D01*
X155667107Y-33692039D01*
X155603190Y-33588081D01*
X155536973Y-33476424D01*
X155479055Y-33374877D01*
X155440037Y-33301245D01*
X155429543Y-33274714D01*
X155462228Y-33268492D01*
X155550113Y-33263603D01*
X155677946Y-33260704D01*
X155766296Y-33260194D01*
X155908560Y-33262735D01*
G37*
G36*
X153611448Y-34426826D02*
G01*
X153662118Y-34445040D01*
X153668101Y-34457975D01*
X153637086Y-34481068D01*
X153560628Y-34492825D01*
X153542216Y-34493204D01*
X153452374Y-34508948D01*
X153420870Y-34546558D01*
X153445654Y-34591600D01*
X153524680Y-34629642D01*
X153562814Y-34638289D01*
X153685715Y-34660073D01*
X153539761Y-34664710D01*
X153431389Y-34657564D01*
X153378035Y-34624811D01*
X153372424Y-34613623D01*
X153352862Y-34538028D01*
X153374229Y-34485725D01*
X153393316Y-34465021D01*
X153449695Y-34437517D01*
X153531523Y-34424552D01*
X153611448Y-34426826D01*
G37*
G36*
X153586383Y-34824876D02*
G01*
X153625826Y-34852538D01*
X153655625Y-34908787D01*
X153667457Y-34981251D01*
X153659405Y-35039936D01*
X153638882Y-35056865D01*
X153617144Y-35027063D01*
X153612460Y-34977600D01*
X153597233Y-34915803D01*
X153533748Y-34889251D01*
X153518378Y-34887188D01*
X153448101Y-34888578D01*
X153423508Y-34927801D01*
X153421499Y-34966453D01*
X153409724Y-35033770D01*
X153386270Y-35056865D01*
X153355606Y-35030207D01*
X153355066Y-34968154D01*
X153381818Y-34897588D01*
X153406401Y-34865623D01*
X153495000Y-34815742D01*
X153586383Y-34824876D01*
G37*
G36*
X153418473Y-31514090D02*
G01*
X153412741Y-31563665D01*
X153409930Y-31637564D01*
X153441524Y-31658470D01*
X153490921Y-31618299D01*
X153499278Y-31605805D01*
X153559170Y-31546461D01*
X153619744Y-31535962D01*
X153659884Y-31573365D01*
X153665625Y-31613245D01*
X153660858Y-31665131D01*
X153647069Y-31650635D01*
X153637936Y-31628561D01*
X153615795Y-31587169D01*
X153586718Y-31596058D01*
X153546880Y-31637369D01*
X153467920Y-31699802D01*
X153405363Y-31699183D01*
X153372424Y-31654400D01*
X153352612Y-31571835D01*
X153377530Y-31523016D01*
X153391819Y-31512936D01*
X153418473Y-31514090D01*
G37*
G36*
X154515902Y-35128014D02*
G01*
X154635577Y-35131385D01*
X154708150Y-35139382D01*
X154745296Y-35153951D01*
X154758693Y-35177038D01*
X154760195Y-35197781D01*
X154756047Y-35227523D01*
X154735820Y-35247469D01*
X154687838Y-35259564D01*
X154600425Y-35265755D01*
X154461905Y-35267988D01*
X154337449Y-35268238D01*
X154158996Y-35267547D01*
X154039321Y-35264176D01*
X153966748Y-35256179D01*
X153929601Y-35241610D01*
X153916205Y-35218523D01*
X153914703Y-35197781D01*
X153918850Y-35168038D01*
X153939077Y-35148093D01*
X153987059Y-35135997D01*
X154074472Y-35129806D01*
X154212992Y-35127573D01*
X154337449Y-35127323D01*
X154515902Y-35128014D01*
G37*
G36*
X153606910Y-31854169D02*
G01*
X153652282Y-31871306D01*
X153664138Y-31914080D01*
X153663303Y-31947919D01*
X153658500Y-32008395D01*
X153650959Y-32001786D01*
X153643238Y-31965534D01*
X153616449Y-31901934D01*
X153582947Y-31889781D01*
X153562223Y-31933266D01*
X153561343Y-31947919D01*
X153557351Y-31990783D01*
X153538652Y-31971974D01*
X153524363Y-31947919D01*
X153474689Y-31893267D01*
X153435456Y-31899739D01*
X153421499Y-31956727D01*
X153406746Y-32013972D01*
X153386270Y-32027184D01*
X153359787Y-31997036D01*
X153351041Y-31939112D01*
X153357612Y-31884765D01*
X153389909Y-31859015D01*
X153466812Y-31851376D01*
X153509571Y-31851040D01*
X153606910Y-31854169D01*
G37*
G36*
X153527185Y-34037146D02*
G01*
X153619550Y-34047201D01*
X153669062Y-34089484D01*
X153664969Y-34171630D01*
X153646717Y-34226106D01*
X153597344Y-34270999D01*
X153517128Y-34281551D01*
X153435929Y-34259193D01*
X153387509Y-34213689D01*
X153361086Y-34146950D01*
X153426261Y-34146950D01*
X153428205Y-34167337D01*
X153470126Y-34218201D01*
X153527185Y-34228987D01*
X153603431Y-34206250D01*
X153626165Y-34167337D01*
X153618920Y-34123382D01*
X153563630Y-34106788D01*
X153527185Y-34105686D01*
X153449833Y-34114423D01*
X153426261Y-34146950D01*
X153361086Y-34146950D01*
X153349844Y-34118555D01*
X153366177Y-34062720D01*
X153441949Y-34038226D01*
X153509571Y-34035229D01*
X153527185Y-34037146D01*
G37*
G36*
X153612083Y-33228350D02*
G01*
X153660985Y-33301261D01*
X153668101Y-33348266D01*
X153640835Y-33443957D01*
X153572870Y-33496992D01*
X153484953Y-33499193D01*
X153406401Y-33451436D01*
X153357260Y-33374898D01*
X153360445Y-33352035D01*
X153421499Y-33352035D01*
X153436748Y-33416209D01*
X153495712Y-33436030D01*
X153510676Y-33436338D01*
X153591636Y-33412669D01*
X153625416Y-33355504D01*
X153601743Y-33285604D01*
X153591100Y-33273782D01*
X153520394Y-33239992D01*
X153456348Y-33263710D01*
X153422553Y-33334051D01*
X153421499Y-33352035D01*
X153360445Y-33352035D01*
X153369028Y-33290427D01*
X153389092Y-33251387D01*
X153453793Y-33195654D01*
X153520394Y-33191506D01*
X153535571Y-33190561D01*
X153612083Y-33228350D01*
G37*
G36*
X153612083Y-35553454D02*
G01*
X153660985Y-35626365D01*
X153668101Y-35673370D01*
X153640835Y-35769061D01*
X153572870Y-35822096D01*
X153484953Y-35824297D01*
X153406401Y-35776540D01*
X153357260Y-35700002D01*
X153360445Y-35677139D01*
X153421499Y-35677139D01*
X153436748Y-35741313D01*
X153495712Y-35761134D01*
X153510676Y-35761442D01*
X153591636Y-35737773D01*
X153625416Y-35680608D01*
X153601743Y-35610708D01*
X153591100Y-35598886D01*
X153520394Y-35565096D01*
X153456348Y-35588814D01*
X153422553Y-35659155D01*
X153421499Y-35677139D01*
X153360445Y-35677139D01*
X153369028Y-35615531D01*
X153389092Y-35576491D01*
X153453793Y-35520758D01*
X153520394Y-35516610D01*
X153535571Y-35515665D01*
X153612083Y-35553454D01*
G37*
G36*
X154337449Y-34246602D02*
G01*
X154760195Y-34246602D01*
X154760195Y-34406263D01*
X154735410Y-34609672D01*
X154663456Y-34766869D01*
X154547936Y-34873367D01*
X154392455Y-34924681D01*
X154340732Y-34928590D01*
X154167423Y-34906436D01*
X154038860Y-34829961D01*
X153955366Y-34699534D01*
X153917262Y-34515522D01*
X153914703Y-34442110D01*
X153914703Y-34387517D01*
X154055618Y-34387517D01*
X154055618Y-34510818D01*
X154080997Y-34636277D01*
X154126076Y-34704577D01*
X154231513Y-34765518D01*
X154357500Y-34776986D01*
X154477020Y-34740421D01*
X154546265Y-34682211D01*
X154598404Y-34585478D01*
X154619280Y-34488453D01*
X154619280Y-34387517D01*
X154337449Y-34387517D01*
X154055618Y-34387517D01*
X153914703Y-34387517D01*
X153914703Y-34246602D01*
X154337449Y-34246602D01*
G37*
G36*
X153582964Y-35976937D02*
G01*
X153604756Y-35977104D01*
X153652870Y-35990355D01*
X153664451Y-36024155D01*
X153661708Y-36052080D01*
X153639011Y-36108941D01*
X153579332Y-36125083D01*
X153546860Y-36123794D01*
X153456133Y-36130567D01*
X153397173Y-36154529D01*
X153358218Y-36174590D01*
X153351041Y-36154513D01*
X153378729Y-36110425D01*
X153430306Y-36073093D01*
X153447348Y-36063823D01*
X153527185Y-36063823D01*
X153547669Y-36104910D01*
X153569019Y-36105657D01*
X153615541Y-36070593D01*
X153621456Y-36028379D01*
X153582964Y-36008044D01*
X153534435Y-36036409D01*
X153527185Y-36063823D01*
X153447348Y-36063823D01*
X153509571Y-36029976D01*
X153421499Y-36004907D01*
X153383990Y-35989849D01*
X153406467Y-35980976D01*
X153493956Y-35976530D01*
X153503214Y-35976327D01*
X153582964Y-35976937D01*
G37*
G36*
X153432123Y-32182323D02*
G01*
X153452324Y-32185368D01*
X153548318Y-32197815D01*
X153617646Y-32203314D01*
X153619661Y-32203328D01*
X153665534Y-32217116D01*
X153657018Y-32248501D01*
X153602207Y-32282513D01*
X153571221Y-32292931D01*
X153474342Y-32319715D01*
X153571221Y-32356394D01*
X153647799Y-32396593D01*
X153663003Y-32430463D01*
X153615167Y-32449115D01*
X153588836Y-32450411D01*
X153488839Y-32457980D01*
X153421499Y-32468410D01*
X153367714Y-32477472D01*
X153373634Y-32468050D01*
X153434437Y-32438055D01*
X153498734Y-32403450D01*
X153503967Y-32381753D01*
X153469666Y-32364697D01*
X153424084Y-32341739D01*
X153437673Y-32315253D01*
X153467402Y-32292443D01*
X153505836Y-32257466D01*
X153491156Y-32232683D01*
X153432173Y-32206541D01*
X153369326Y-32180717D01*
X153368085Y-32173931D01*
X153432123Y-32182323D01*
G37*
G36*
X154488933Y-35474609D02*
G01*
X154627255Y-35560424D01*
X154719811Y-35694477D01*
X154759289Y-35869284D01*
X154760195Y-35902924D01*
X154747617Y-36048687D01*
X154711325Y-36135667D01*
X154653477Y-36160161D01*
X154617352Y-36147928D01*
X154569555Y-36105482D01*
X154582339Y-36046495D01*
X154583603Y-36044110D01*
X154617717Y-35911620D01*
X154586459Y-35780021D01*
X154540015Y-35712498D01*
X154430459Y-35632604D01*
X154312790Y-35611251D01*
X154201480Y-35640244D01*
X154111005Y-35711384D01*
X154055835Y-35816476D01*
X154050445Y-35947322D01*
X154059079Y-35984883D01*
X154070020Y-36091015D01*
X154050585Y-36137410D01*
X153999390Y-36179490D01*
X153958396Y-36160131D01*
X153918784Y-36075061D01*
X153918149Y-36073245D01*
X153883936Y-35923173D01*
X153900101Y-35785918D01*
X153931704Y-35700486D01*
X154013095Y-35586449D01*
X154134903Y-35496165D01*
X154269802Y-35448021D01*
X154312159Y-35444514D01*
X154488933Y-35474609D01*
G37*
G36*
X154470875Y-32423380D02*
G01*
X154554727Y-32459601D01*
X154640417Y-32534480D01*
X154713711Y-32617219D01*
X154749144Y-32694374D01*
X154759844Y-32799146D01*
X154760195Y-32837448D01*
X154754019Y-32955720D01*
X154726740Y-33037192D01*
X154665231Y-33115065D01*
X154640417Y-33140416D01*
X154551506Y-33217459D01*
X154467142Y-33252289D01*
X154356837Y-33260194D01*
X154169242Y-33235599D01*
X154029941Y-33160891D01*
X153937067Y-33036241D01*
X153887006Y-32884303D01*
X153890222Y-32830555D01*
X154038738Y-32830555D01*
X154074659Y-32950921D01*
X154148502Y-33040014D01*
X154268568Y-33107762D01*
X154396657Y-33110568D01*
X154515673Y-33048752D01*
X154532809Y-33032808D01*
X154603571Y-32923519D01*
X154616178Y-32810344D01*
X154581108Y-32705320D01*
X154508841Y-32620480D01*
X154409856Y-32567861D01*
X154294632Y-32559498D01*
X154173648Y-32607427D01*
X154166613Y-32612230D01*
X154069539Y-32714126D01*
X154038738Y-32830555D01*
X153890222Y-32830555D01*
X153895403Y-32743975D01*
X153938405Y-32633053D01*
X154034896Y-32509231D01*
X154177914Y-32436797D01*
X154294632Y-32422384D01*
X154356837Y-32414702D01*
X154470875Y-32423380D01*
G37*
G36*
X154498211Y-33471567D02*
G01*
X154760195Y-33471567D01*
X154760195Y-33666927D01*
X154753920Y-33792976D01*
X154729588Y-33876183D01*
X154678934Y-33943482D01*
X154673724Y-33948758D01*
X154561739Y-34021501D01*
X154446167Y-34024955D01*
X154335255Y-33959287D01*
X154317692Y-33941515D01*
X154230841Y-33847802D01*
X154072772Y-33961319D01*
X153914703Y-34074835D01*
X153914703Y-33987879D01*
X153933812Y-33921263D01*
X153997789Y-33847036D01*
X154099654Y-33765510D01*
X154170206Y-33713855D01*
X154372678Y-33713855D01*
X154391107Y-33804271D01*
X154428474Y-33861535D01*
X154499932Y-33887030D01*
X154563305Y-33852345D01*
X154605153Y-33767555D01*
X154612704Y-33723423D01*
X154614690Y-33649615D01*
X154587478Y-33618915D01*
X154511653Y-33612512D01*
X154498211Y-33612482D01*
X154414309Y-33618246D01*
X154379504Y-33646906D01*
X154372678Y-33713855D01*
X154170206Y-33713855D01*
X154284605Y-33630097D01*
X154099654Y-33619449D01*
X153989889Y-33609153D01*
X153934009Y-33589916D01*
X153915461Y-33554643D01*
X153914703Y-33540184D01*
X153919253Y-33511197D01*
X153940669Y-33491755D01*
X153990602Y-33479967D01*
X154080701Y-33473941D01*
X154222615Y-33471787D01*
X154337449Y-33471567D01*
X154498211Y-33471567D01*
G37*
G36*
X154543027Y-31537165D02*
G01*
X154680236Y-31549578D01*
X154750991Y-31575502D01*
X154757208Y-31619223D01*
X154700801Y-31685027D01*
X154583685Y-31777199D01*
X154479151Y-31851040D01*
X154359048Y-31936598D01*
X154264424Y-32008718D01*
X154208006Y-32057438D01*
X154197792Y-32071220D01*
X154229620Y-32083485D01*
X154315319Y-32092723D01*
X154438320Y-32097374D01*
X154478364Y-32097642D01*
X154618784Y-32099113D01*
X154702942Y-32105888D01*
X154745008Y-32121510D01*
X154759158Y-32149523D01*
X154760195Y-32168100D01*
X154756047Y-32197842D01*
X154735820Y-32217788D01*
X154687838Y-32229883D01*
X154600425Y-32236074D01*
X154461905Y-32238307D01*
X154337449Y-32238557D01*
X154159326Y-32238070D01*
X154039960Y-32235140D01*
X153967649Y-32227568D01*
X153930692Y-32213153D01*
X153917387Y-32189695D01*
X153915961Y-32159292D01*
X153934855Y-32106106D01*
X153995251Y-32039340D01*
X154105053Y-31951293D01*
X154196176Y-31886269D01*
X154475133Y-31692510D01*
X154194918Y-31682278D01*
X154054561Y-31675447D01*
X153970575Y-31664950D01*
X153928874Y-31646801D01*
X153915373Y-31617017D01*
X153914703Y-31603013D01*
X153919158Y-31573856D01*
X153940297Y-31554301D01*
X153989773Y-31542443D01*
X154079245Y-31536380D01*
X154220367Y-31534208D01*
X154337449Y-31533980D01*
X154543027Y-31537165D01*
G37*
G36*
X157311592Y-32654644D02*
G01*
X157368412Y-32731330D01*
X157440509Y-32842746D01*
X157484613Y-32916320D01*
X157542486Y-33013012D01*
X157585792Y-33089048D01*
X157612211Y-33154366D01*
X157619426Y-33218909D01*
X157605118Y-33292615D01*
X157566969Y-33385425D01*
X157502662Y-33507279D01*
X157409877Y-33668117D01*
X157286296Y-33877880D01*
X157243277Y-33951142D01*
X157144352Y-34120875D01*
X157059249Y-34268618D01*
X156993836Y-34384046D01*
X156953978Y-34456836D01*
X156944384Y-34477222D01*
X156977134Y-34483909D01*
X157065477Y-34489222D01*
X157194551Y-34492490D01*
X157299153Y-34493204D01*
X157653921Y-34493204D01*
X157519333Y-34742541D01*
X157452782Y-34867322D01*
X157398567Y-34961848D01*
X157346032Y-35030299D01*
X157284518Y-35076852D01*
X157203369Y-35105685D01*
X157091926Y-35120978D01*
X156939532Y-35126907D01*
X156735529Y-35127653D01*
X156537879Y-35127323D01*
X156321277Y-35126096D01*
X156130874Y-35122670D01*
X155977068Y-35117426D01*
X155870253Y-35110746D01*
X155820826Y-35103013D01*
X155818656Y-35100901D01*
X155836206Y-35064632D01*
X155884863Y-34975874D01*
X155959954Y-34842836D01*
X156056809Y-34673727D01*
X156170758Y-34476757D01*
X156294737Y-34264216D01*
X156437506Y-34020065D01*
X156583140Y-33770388D01*
X156723350Y-33529442D01*
X156849848Y-33311481D01*
X156954346Y-33130762D01*
X157006526Y-33040050D01*
X157095969Y-32888394D01*
X157175453Y-32761685D01*
X157237553Y-32671181D01*
X157274842Y-32628139D01*
X157279535Y-32626111D01*
X157311592Y-32654644D01*
G37*
%TO.C,DIO*%
D15*
X162200000Y-24699000D02*
G75*
G02*
X159800000Y-24699000I-1200000J0D01*
G01*
X159800000Y-24699000D02*
G75*
G02*
X162200000Y-24699000I1200000J0D01*
G01*
%TO.C,CLK*%
X166200000Y-24699000D02*
G75*
G02*
X163800000Y-24699000I-1200000J0D01*
G01*
X163800000Y-24699000D02*
G75*
G02*
X166200000Y-24699000I1200000J0D01*
G01*
%TO.C,-*%
X98700000Y-45000000D02*
G75*
G02*
X97300000Y-45000000I-700000J0D01*
G01*
X97300000Y-45000000D02*
G75*
G02*
X98700000Y-45000000I700000J0D01*
G01*
%TO.C,SW16*%
X129161000Y-107642000D02*
X129161000Y-121842000D01*
X129161000Y-121842000D02*
X143361000Y-121842000D01*
X143361000Y-107642000D02*
X129161000Y-107642000D01*
X143361000Y-121842000D02*
X143361000Y-107642000D01*
%TO.C,J1*%
X83590000Y-28940000D02*
X83590000Y-35060000D01*
X83590000Y-31500000D02*
X87950000Y-31500000D01*
X83590000Y-35060000D02*
X91410000Y-35060000D01*
X85850000Y-30200000D02*
X83590000Y-30200000D01*
X85850000Y-30700000D02*
X83590000Y-30700000D01*
X87950000Y-31500000D02*
X87950000Y-32500000D01*
X87950000Y-32500000D02*
X83590000Y-32500000D01*
X89810000Y-28940000D02*
X89810000Y-29860000D01*
X89810000Y-29860000D02*
X91410000Y-29860000D01*
X89810000Y-30140000D02*
X89810000Y-29860000D01*
X89810000Y-30140000D02*
X91025000Y-30140000D01*
X89810000Y-34140000D02*
X89810000Y-33860000D01*
X89810000Y-35060000D02*
X89810000Y-34140000D01*
X91410000Y-28940000D02*
X83590000Y-28940000D01*
X91410000Y-29860000D02*
X91410000Y-28940000D01*
X91410000Y-34140000D02*
X89810000Y-34140000D01*
X91410000Y-35060000D02*
X91410000Y-34140000D01*
X85850000Y-29700000D02*
X87450000Y-29700000D01*
X87450000Y-30700000D01*
X85850000Y-30700000D01*
X85850000Y-29700000D01*
X85850000Y-33300000D02*
X87450000Y-33300000D01*
X87450000Y-34300000D01*
X85850000Y-34300000D01*
X85850000Y-33300000D01*
%TO.C,SW13*%
X129161000Y-50111000D02*
X129161000Y-64311000D01*
X129161000Y-64311000D02*
X143361000Y-64311000D01*
X143361000Y-50111000D02*
X129161000Y-50111000D01*
X143361000Y-64311000D02*
X143361000Y-50111000D01*
%TO.C,SW9*%
X109984000Y-69288000D02*
X109984000Y-83488000D01*
X109984000Y-83488000D02*
X124184000Y-83488000D01*
X124184000Y-69288000D02*
X109984000Y-69288000D01*
X124184000Y-83488000D02*
X124184000Y-69288000D01*
%TO.C,SW15*%
X129161000Y-88465000D02*
X129161000Y-102665000D01*
X129161000Y-102665000D02*
X143361000Y-102665000D01*
X143361000Y-88465000D02*
X129161000Y-88465000D01*
X143361000Y-102665000D02*
X143361000Y-88465000D01*
%TO.C,SW12*%
X109984000Y-126819000D02*
X109984000Y-141019000D01*
X109984000Y-141019000D02*
X124184000Y-141019000D01*
X124184000Y-126819000D02*
X109984000Y-126819000D01*
X124184000Y-141019000D02*
X124184000Y-126819000D01*
%TO.C,SW14*%
X129161000Y-69288000D02*
X129161000Y-83488000D01*
X129161000Y-83488000D02*
X143361000Y-83488000D01*
X143361000Y-69288000D02*
X129161000Y-69288000D01*
X143361000Y-83488000D02*
X143361000Y-69288000D01*
%TO.C,U2*%
D17*
X152517000Y-30541000D02*
X152517000Y-44511000D01*
X154422000Y-28636000D02*
X171567000Y-28636000D01*
X154422000Y-46416000D02*
X171567000Y-46416000D01*
D18*
X173472000Y-33031000D02*
X174482272Y-33034728D01*
D17*
X173472000Y-44511000D02*
X173472000Y-30541000D01*
D18*
X174482000Y-42030000D02*
X173472000Y-42030000D01*
X174982000Y-33534728D02*
X174982000Y-41530000D01*
D17*
X152517000Y-30541000D02*
G75*
G02*
X154422000Y-28636000I1905001J-1D01*
G01*
X154422000Y-46416000D02*
G75*
G02*
X152517000Y-44511000I1J1905001D01*
G01*
X171571000Y-28636000D02*
G75*
G02*
X173476000Y-30541000I0J-1905000D01*
G01*
X173472000Y-44511000D02*
G75*
G02*
X171567000Y-46416000I-1905050J50D01*
G01*
D18*
X174482272Y-33034728D02*
G75*
G02*
X174981972Y-33534728I-272J-499972D01*
G01*
X174982000Y-41530000D02*
G75*
G02*
X174482000Y-42030000I-500100J100D01*
G01*
D19*
X172591000Y-29700000D02*
G75*
G02*
X172087000Y-29700000I-252000J0D01*
G01*
X172087000Y-29700000D02*
G75*
G02*
X172591000Y-29700000I252000J0D01*
G01*
X173308000Y-28426000D02*
G75*
G02*
X172804000Y-28426000I-252000J0D01*
G01*
X172804000Y-28426000D02*
G75*
G02*
X173308000Y-28426000I252000J0D01*
G01*
%TO.C,SW7*%
D15*
X90807000Y-126819000D02*
X90807000Y-141019000D01*
X90807000Y-141019000D02*
X105007000Y-141019000D01*
X105007000Y-126819000D02*
X90807000Y-126819000D01*
X105007000Y-141019000D02*
X105007000Y-126819000D01*
%TO.C,SW17*%
X129161000Y-126819000D02*
X129161000Y-141019000D01*
X129161000Y-141019000D02*
X143361000Y-141019000D01*
X143361000Y-126819000D02*
X129161000Y-126819000D01*
X143361000Y-141019000D02*
X143361000Y-126819000D01*
%TO.C,SW2*%
X93600000Y-31500000D02*
X93600000Y-27400000D01*
X93600000Y-39600000D02*
X93600000Y-35500000D01*
X96000000Y-39600000D02*
X93600000Y-39600000D01*
X100800000Y-39600000D02*
X98200000Y-39600000D01*
X103300000Y-26000000D02*
X103600000Y-25700000D01*
X103600000Y-25700000D02*
X103600000Y-26300000D01*
X103600000Y-26300000D02*
X103300000Y-26000000D01*
X105400000Y-27400000D02*
X93600000Y-27400000D01*
X105400000Y-31500000D02*
X105400000Y-27400000D01*
X105400000Y-35500000D02*
X105400000Y-39600000D01*
X105400000Y-39600000D02*
X103000000Y-39600000D01*
X102500000Y-33500000D02*
G75*
G02*
X96500000Y-33500000I-3000000J0D01*
G01*
X96500000Y-33500000D02*
G75*
G02*
X102500000Y-33500000I3000000J0D01*
G01*
%TO.C,SW19*%
X148438000Y-78913000D02*
X162438000Y-78913000D01*
X148438000Y-92913000D02*
X148438000Y-78913000D01*
X148438000Y-92913000D02*
X162438000Y-92913000D01*
X162438000Y-78913000D02*
X162438000Y-92913000D01*
%TO.C,SW5*%
X90807000Y-88465000D02*
X90807000Y-102665000D01*
X90807000Y-102665000D02*
X105007000Y-102665000D01*
X105007000Y-88465000D02*
X90807000Y-88465000D01*
X105007000Y-102665000D02*
X105007000Y-88465000D01*
%TO.C,SW11*%
X109984000Y-107642000D02*
X109984000Y-121842000D01*
X109984000Y-121842000D02*
X124184000Y-121842000D01*
X124184000Y-107642000D02*
X109984000Y-107642000D01*
X124184000Y-121842000D02*
X124184000Y-107642000D01*
%TO.C,SW18*%
X148338000Y-50111000D02*
X148338000Y-64311000D01*
X148338000Y-64311000D02*
X162538000Y-64311000D01*
X162538000Y-50111000D02*
X148338000Y-50111000D01*
X162538000Y-64311000D02*
X162538000Y-50111000D01*
%TO.C,SW6*%
X90807000Y-107642000D02*
X90807000Y-121842000D01*
X90807000Y-121842000D02*
X105007000Y-121842000D01*
X105007000Y-107642000D02*
X90807000Y-107642000D01*
X105007000Y-121842000D02*
X105007000Y-107642000D01*
%TO.C,+*%
X94700000Y-45000000D02*
G75*
G02*
X93300000Y-45000000I-700000J0D01*
G01*
X93300000Y-45000000D02*
G75*
G02*
X94700000Y-45000000I700000J0D01*
G01*
%TO.C,U1*%
X142094000Y-30668000D02*
X142094000Y-29288000D01*
X143474000Y-29288000D02*
X142094000Y-29288000D01*
X106974000Y-28478000D02*
X144974000Y-28478000D01*
X144974000Y-40478000D01*
X106974000Y-40478000D01*
X106974000Y-28478000D01*
%TO.C,SW3*%
X90807000Y-50111000D02*
X90807000Y-64311000D01*
X90807000Y-64311000D02*
X105007000Y-64311000D01*
X105007000Y-50111000D02*
X90807000Y-50111000D01*
X105007000Y-64311000D02*
X105007000Y-50111000D01*
%TD*%
M02*
