%TF.GenerationSoftware,KiCad,Pcbnew,10.0.4*%
%TF.CreationDate,2026-08-23T13:46:25-04:00*%
%TF.ProjectId,BLEkeyboard,424c456b-6579-4626-9f61-72642e6b6963,rev?*%
%TF.SameCoordinates,Original*%
%TF.FileFunction,Legend,Bot*%
%TF.FilePolarity,Positive*%
%FSLAX46Y46*%
G04 Gerber Fmt 4.6, Leading zero omitted, Abs format (unit mm)*
G04 Created by KiCad (PCBNEW 10.0.4) date 2026-08-23 13:46:25*
%MOMM*%
%LPD*%
G01*
G04 APERTURE LIST*
%ADD10C,0.150000*%
%ADD11C,0.300000*%
%ADD12C,0.400000*%
%ADD13C,0.120000*%
%ADD14C,0.000000*%
G04 APERTURE END LIST*
D10*
X177002200Y-166007200D02*
X285002200Y-166007200D01*
X285002200Y-198007200D01*
X177002200Y-198007200D01*
X177002200Y-166007200D01*
X10000000Y-10000000D02*
X287002200Y-10000000D01*
X287002200Y-200007200D01*
X10000000Y-200007200D01*
X10000000Y-10000000D01*
X12000000Y-12000000D02*
X285002200Y-12000000D01*
X285002200Y-198007200D01*
X12000000Y-198007200D01*
X12000000Y-12000000D01*
X60000000Y-12000000D02*
X60000000Y-10000000D01*
X110000000Y-12000000D02*
X110000000Y-10000000D01*
X160000000Y-12000000D02*
X160000000Y-10000000D01*
X210000000Y-12000000D02*
X210000000Y-10000000D01*
X260000000Y-12000000D02*
X260000000Y-10000000D01*
X36089160Y-11593604D02*
X35346303Y-11593604D01*
X35717731Y-11593604D02*
X35717731Y-10293604D01*
X35717731Y-10293604D02*
X35593922Y-10479319D01*
X35593922Y-10479319D02*
X35470112Y-10603128D01*
X35470112Y-10603128D02*
X35346303Y-10665033D01*
X85346303Y-10417414D02*
X85408207Y-10355509D01*
X85408207Y-10355509D02*
X85532017Y-10293604D01*
X85532017Y-10293604D02*
X85841541Y-10293604D01*
X85841541Y-10293604D02*
X85965350Y-10355509D01*
X85965350Y-10355509D02*
X86027255Y-10417414D01*
X86027255Y-10417414D02*
X86089160Y-10541223D01*
X86089160Y-10541223D02*
X86089160Y-10665033D01*
X86089160Y-10665033D02*
X86027255Y-10850747D01*
X86027255Y-10850747D02*
X85284398Y-11593604D01*
X85284398Y-11593604D02*
X86089160Y-11593604D01*
X135284398Y-10293604D02*
X136089160Y-10293604D01*
X136089160Y-10293604D02*
X135655826Y-10788842D01*
X135655826Y-10788842D02*
X135841541Y-10788842D01*
X135841541Y-10788842D02*
X135965350Y-10850747D01*
X135965350Y-10850747D02*
X136027255Y-10912652D01*
X136027255Y-10912652D02*
X136089160Y-11036461D01*
X136089160Y-11036461D02*
X136089160Y-11345985D01*
X136089160Y-11345985D02*
X136027255Y-11469795D01*
X136027255Y-11469795D02*
X135965350Y-11531700D01*
X135965350Y-11531700D02*
X135841541Y-11593604D01*
X135841541Y-11593604D02*
X135470112Y-11593604D01*
X135470112Y-11593604D02*
X135346303Y-11531700D01*
X135346303Y-11531700D02*
X135284398Y-11469795D01*
X185965350Y-10726938D02*
X185965350Y-11593604D01*
X185655826Y-10231700D02*
X185346303Y-11160271D01*
X185346303Y-11160271D02*
X186151064Y-11160271D01*
X236027255Y-10293604D02*
X235408207Y-10293604D01*
X235408207Y-10293604D02*
X235346303Y-10912652D01*
X235346303Y-10912652D02*
X235408207Y-10850747D01*
X235408207Y-10850747D02*
X235532017Y-10788842D01*
X235532017Y-10788842D02*
X235841541Y-10788842D01*
X235841541Y-10788842D02*
X235965350Y-10850747D01*
X235965350Y-10850747D02*
X236027255Y-10912652D01*
X236027255Y-10912652D02*
X236089160Y-11036461D01*
X236089160Y-11036461D02*
X236089160Y-11345985D01*
X236089160Y-11345985D02*
X236027255Y-11469795D01*
X236027255Y-11469795D02*
X235965350Y-11531700D01*
X235965350Y-11531700D02*
X235841541Y-11593604D01*
X235841541Y-11593604D02*
X235532017Y-11593604D01*
X235532017Y-11593604D02*
X235408207Y-11531700D01*
X235408207Y-11531700D02*
X235346303Y-11469795D01*
X285965350Y-10293604D02*
X285717731Y-10293604D01*
X285717731Y-10293604D02*
X285593922Y-10355509D01*
X285593922Y-10355509D02*
X285532017Y-10417414D01*
X285532017Y-10417414D02*
X285408207Y-10603128D01*
X285408207Y-10603128D02*
X285346303Y-10850747D01*
X285346303Y-10850747D02*
X285346303Y-11345985D01*
X285346303Y-11345985D02*
X285408207Y-11469795D01*
X285408207Y-11469795D02*
X285470112Y-11531700D01*
X285470112Y-11531700D02*
X285593922Y-11593604D01*
X285593922Y-11593604D02*
X285841541Y-11593604D01*
X285841541Y-11593604D02*
X285965350Y-11531700D01*
X285965350Y-11531700D02*
X286027255Y-11469795D01*
X286027255Y-11469795D02*
X286089160Y-11345985D01*
X286089160Y-11345985D02*
X286089160Y-11036461D01*
X286089160Y-11036461D02*
X286027255Y-10912652D01*
X286027255Y-10912652D02*
X285965350Y-10850747D01*
X285965350Y-10850747D02*
X285841541Y-10788842D01*
X285841541Y-10788842D02*
X285593922Y-10788842D01*
X285593922Y-10788842D02*
X285470112Y-10850747D01*
X285470112Y-10850747D02*
X285408207Y-10912652D01*
X285408207Y-10912652D02*
X285346303Y-11036461D01*
X60000000Y-198007200D02*
X60000000Y-200007200D01*
X110000000Y-198007200D02*
X110000000Y-200007200D01*
X160000000Y-198007200D02*
X160000000Y-200007200D01*
X210000000Y-198007200D02*
X210000000Y-200007200D01*
X260000000Y-198007200D02*
X260000000Y-200007200D01*
X36089160Y-199600804D02*
X35346303Y-199600804D01*
X35717731Y-199600804D02*
X35717731Y-198300804D01*
X35717731Y-198300804D02*
X35593922Y-198486519D01*
X35593922Y-198486519D02*
X35470112Y-198610328D01*
X35470112Y-198610328D02*
X35346303Y-198672233D01*
X85346303Y-198424614D02*
X85408207Y-198362709D01*
X85408207Y-198362709D02*
X85532017Y-198300804D01*
X85532017Y-198300804D02*
X85841541Y-198300804D01*
X85841541Y-198300804D02*
X85965350Y-198362709D01*
X85965350Y-198362709D02*
X86027255Y-198424614D01*
X86027255Y-198424614D02*
X86089160Y-198548423D01*
X86089160Y-198548423D02*
X86089160Y-198672233D01*
X86089160Y-198672233D02*
X86027255Y-198857947D01*
X86027255Y-198857947D02*
X85284398Y-199600804D01*
X85284398Y-199600804D02*
X86089160Y-199600804D01*
X135284398Y-198300804D02*
X136089160Y-198300804D01*
X136089160Y-198300804D02*
X135655826Y-198796042D01*
X135655826Y-198796042D02*
X135841541Y-198796042D01*
X135841541Y-198796042D02*
X135965350Y-198857947D01*
X135965350Y-198857947D02*
X136027255Y-198919852D01*
X136027255Y-198919852D02*
X136089160Y-199043661D01*
X136089160Y-199043661D02*
X136089160Y-199353185D01*
X136089160Y-199353185D02*
X136027255Y-199476995D01*
X136027255Y-199476995D02*
X135965350Y-199538900D01*
X135965350Y-199538900D02*
X135841541Y-199600804D01*
X135841541Y-199600804D02*
X135470112Y-199600804D01*
X135470112Y-199600804D02*
X135346303Y-199538900D01*
X135346303Y-199538900D02*
X135284398Y-199476995D01*
X185965350Y-198734138D02*
X185965350Y-199600804D01*
X185655826Y-198238900D02*
X185346303Y-199167471D01*
X185346303Y-199167471D02*
X186151064Y-199167471D01*
X236027255Y-198300804D02*
X235408207Y-198300804D01*
X235408207Y-198300804D02*
X235346303Y-198919852D01*
X235346303Y-198919852D02*
X235408207Y-198857947D01*
X235408207Y-198857947D02*
X235532017Y-198796042D01*
X235532017Y-198796042D02*
X235841541Y-198796042D01*
X235841541Y-198796042D02*
X235965350Y-198857947D01*
X235965350Y-198857947D02*
X236027255Y-198919852D01*
X236027255Y-198919852D02*
X236089160Y-199043661D01*
X236089160Y-199043661D02*
X236089160Y-199353185D01*
X236089160Y-199353185D02*
X236027255Y-199476995D01*
X236027255Y-199476995D02*
X235965350Y-199538900D01*
X235965350Y-199538900D02*
X235841541Y-199600804D01*
X235841541Y-199600804D02*
X235532017Y-199600804D01*
X235532017Y-199600804D02*
X235408207Y-199538900D01*
X235408207Y-199538900D02*
X235346303Y-199476995D01*
X285965350Y-198300804D02*
X285717731Y-198300804D01*
X285717731Y-198300804D02*
X285593922Y-198362709D01*
X285593922Y-198362709D02*
X285532017Y-198424614D01*
X285532017Y-198424614D02*
X285408207Y-198610328D01*
X285408207Y-198610328D02*
X285346303Y-198857947D01*
X285346303Y-198857947D02*
X285346303Y-199353185D01*
X285346303Y-199353185D02*
X285408207Y-199476995D01*
X285408207Y-199476995D02*
X285470112Y-199538900D01*
X285470112Y-199538900D02*
X285593922Y-199600804D01*
X285593922Y-199600804D02*
X285841541Y-199600804D01*
X285841541Y-199600804D02*
X285965350Y-199538900D01*
X285965350Y-199538900D02*
X286027255Y-199476995D01*
X286027255Y-199476995D02*
X286089160Y-199353185D01*
X286089160Y-199353185D02*
X286089160Y-199043661D01*
X286089160Y-199043661D02*
X286027255Y-198919852D01*
X286027255Y-198919852D02*
X285965350Y-198857947D01*
X285965350Y-198857947D02*
X285841541Y-198796042D01*
X285841541Y-198796042D02*
X285593922Y-198796042D01*
X285593922Y-198796042D02*
X285470112Y-198857947D01*
X285470112Y-198857947D02*
X285408207Y-198919852D01*
X285408207Y-198919852D02*
X285346303Y-199043661D01*
X10000000Y-60000000D02*
X12000000Y-60000000D01*
X10000000Y-110000000D02*
X12000000Y-110000000D01*
X10000000Y-160000000D02*
X12000000Y-160000000D01*
X10690476Y-35222176D02*
X11309523Y-35222176D01*
X10566666Y-35593604D02*
X10999999Y-34293604D01*
X10999999Y-34293604D02*
X11433333Y-35593604D01*
X11092857Y-84912652D02*
X11278571Y-84974557D01*
X11278571Y-84974557D02*
X11340476Y-85036461D01*
X11340476Y-85036461D02*
X11402380Y-85160271D01*
X11402380Y-85160271D02*
X11402380Y-85345985D01*
X11402380Y-85345985D02*
X11340476Y-85469795D01*
X11340476Y-85469795D02*
X11278571Y-85531700D01*
X11278571Y-85531700D02*
X11154761Y-85593604D01*
X11154761Y-85593604D02*
X10659523Y-85593604D01*
X10659523Y-85593604D02*
X10659523Y-84293604D01*
X10659523Y-84293604D02*
X11092857Y-84293604D01*
X11092857Y-84293604D02*
X11216666Y-84355509D01*
X11216666Y-84355509D02*
X11278571Y-84417414D01*
X11278571Y-84417414D02*
X11340476Y-84541223D01*
X11340476Y-84541223D02*
X11340476Y-84665033D01*
X11340476Y-84665033D02*
X11278571Y-84788842D01*
X11278571Y-84788842D02*
X11216666Y-84850747D01*
X11216666Y-84850747D02*
X11092857Y-84912652D01*
X11092857Y-84912652D02*
X10659523Y-84912652D01*
X11402380Y-135469795D02*
X11340476Y-135531700D01*
X11340476Y-135531700D02*
X11154761Y-135593604D01*
X11154761Y-135593604D02*
X11030952Y-135593604D01*
X11030952Y-135593604D02*
X10845238Y-135531700D01*
X10845238Y-135531700D02*
X10721428Y-135407890D01*
X10721428Y-135407890D02*
X10659523Y-135284080D01*
X10659523Y-135284080D02*
X10597619Y-135036461D01*
X10597619Y-135036461D02*
X10597619Y-134850747D01*
X10597619Y-134850747D02*
X10659523Y-134603128D01*
X10659523Y-134603128D02*
X10721428Y-134479319D01*
X10721428Y-134479319D02*
X10845238Y-134355509D01*
X10845238Y-134355509D02*
X11030952Y-134293604D01*
X11030952Y-134293604D02*
X11154761Y-134293604D01*
X11154761Y-134293604D02*
X11340476Y-134355509D01*
X11340476Y-134355509D02*
X11402380Y-134417414D01*
X10659523Y-185593604D02*
X10659523Y-184293604D01*
X10659523Y-184293604D02*
X10969047Y-184293604D01*
X10969047Y-184293604D02*
X11154761Y-184355509D01*
X11154761Y-184355509D02*
X11278571Y-184479319D01*
X11278571Y-184479319D02*
X11340476Y-184603128D01*
X11340476Y-184603128D02*
X11402380Y-184850747D01*
X11402380Y-184850747D02*
X11402380Y-185036461D01*
X11402380Y-185036461D02*
X11340476Y-185284080D01*
X11340476Y-185284080D02*
X11278571Y-185407890D01*
X11278571Y-185407890D02*
X11154761Y-185531700D01*
X11154761Y-185531700D02*
X10969047Y-185593604D01*
X10969047Y-185593604D02*
X10659523Y-185593604D01*
X287002200Y-60000000D02*
X285002200Y-60000000D01*
X287002200Y-110000000D02*
X285002200Y-110000000D01*
X287002200Y-160000000D02*
X285002200Y-160000000D01*
X285692676Y-35222176D02*
X286311723Y-35222176D01*
X285568866Y-35593604D02*
X286002199Y-34293604D01*
X286002199Y-34293604D02*
X286435533Y-35593604D01*
X286095057Y-84912652D02*
X286280771Y-84974557D01*
X286280771Y-84974557D02*
X286342676Y-85036461D01*
X286342676Y-85036461D02*
X286404580Y-85160271D01*
X286404580Y-85160271D02*
X286404580Y-85345985D01*
X286404580Y-85345985D02*
X286342676Y-85469795D01*
X286342676Y-85469795D02*
X286280771Y-85531700D01*
X286280771Y-85531700D02*
X286156961Y-85593604D01*
X286156961Y-85593604D02*
X285661723Y-85593604D01*
X285661723Y-85593604D02*
X285661723Y-84293604D01*
X285661723Y-84293604D02*
X286095057Y-84293604D01*
X286095057Y-84293604D02*
X286218866Y-84355509D01*
X286218866Y-84355509D02*
X286280771Y-84417414D01*
X286280771Y-84417414D02*
X286342676Y-84541223D01*
X286342676Y-84541223D02*
X286342676Y-84665033D01*
X286342676Y-84665033D02*
X286280771Y-84788842D01*
X286280771Y-84788842D02*
X286218866Y-84850747D01*
X286218866Y-84850747D02*
X286095057Y-84912652D01*
X286095057Y-84912652D02*
X285661723Y-84912652D01*
X286404580Y-135469795D02*
X286342676Y-135531700D01*
X286342676Y-135531700D02*
X286156961Y-135593604D01*
X286156961Y-135593604D02*
X286033152Y-135593604D01*
X286033152Y-135593604D02*
X285847438Y-135531700D01*
X285847438Y-135531700D02*
X285723628Y-135407890D01*
X285723628Y-135407890D02*
X285661723Y-135284080D01*
X285661723Y-135284080D02*
X285599819Y-135036461D01*
X285599819Y-135036461D02*
X285599819Y-134850747D01*
X285599819Y-134850747D02*
X285661723Y-134603128D01*
X285661723Y-134603128D02*
X285723628Y-134479319D01*
X285723628Y-134479319D02*
X285847438Y-134355509D01*
X285847438Y-134355509D02*
X286033152Y-134293604D01*
X286033152Y-134293604D02*
X286156961Y-134293604D01*
X286156961Y-134293604D02*
X286342676Y-134355509D01*
X286342676Y-134355509D02*
X286404580Y-134417414D01*
X285661723Y-185593604D02*
X285661723Y-184293604D01*
X285661723Y-184293604D02*
X285971247Y-184293604D01*
X285971247Y-184293604D02*
X286156961Y-184355509D01*
X286156961Y-184355509D02*
X286280771Y-184479319D01*
X286280771Y-184479319D02*
X286342676Y-184603128D01*
X286342676Y-184603128D02*
X286404580Y-184850747D01*
X286404580Y-184850747D02*
X286404580Y-185036461D01*
X286404580Y-185036461D02*
X286342676Y-185284080D01*
X286342676Y-185284080D02*
X286280771Y-185407890D01*
X286280771Y-185407890D02*
X286156961Y-185531700D01*
X286156961Y-185531700D02*
X285971247Y-185593604D01*
X285971247Y-185593604D02*
X285661723Y-185593604D01*
X200458026Y-193793328D02*
X200458026Y-192293328D01*
X200458026Y-192293328D02*
X200815169Y-192293328D01*
X200815169Y-192293328D02*
X201029455Y-192364757D01*
X201029455Y-192364757D02*
X201172312Y-192507614D01*
X201172312Y-192507614D02*
X201243741Y-192650471D01*
X201243741Y-192650471D02*
X201315169Y-192936185D01*
X201315169Y-192936185D02*
X201315169Y-193150471D01*
X201315169Y-193150471D02*
X201243741Y-193436185D01*
X201243741Y-193436185D02*
X201172312Y-193579042D01*
X201172312Y-193579042D02*
X201029455Y-193721900D01*
X201029455Y-193721900D02*
X200815169Y-193793328D01*
X200815169Y-193793328D02*
X200458026Y-193793328D01*
X202600884Y-193793328D02*
X202600884Y-193007614D01*
X202600884Y-193007614D02*
X202529455Y-192864757D01*
X202529455Y-192864757D02*
X202386598Y-192793328D01*
X202386598Y-192793328D02*
X202100884Y-192793328D01*
X202100884Y-192793328D02*
X201958026Y-192864757D01*
X202600884Y-193721900D02*
X202458026Y-193793328D01*
X202458026Y-193793328D02*
X202100884Y-193793328D01*
X202100884Y-193793328D02*
X201958026Y-193721900D01*
X201958026Y-193721900D02*
X201886598Y-193579042D01*
X201886598Y-193579042D02*
X201886598Y-193436185D01*
X201886598Y-193436185D02*
X201958026Y-193293328D01*
X201958026Y-193293328D02*
X202100884Y-193221900D01*
X202100884Y-193221900D02*
X202458026Y-193221900D01*
X202458026Y-193221900D02*
X202600884Y-193150471D01*
X203100884Y-192793328D02*
X203672312Y-192793328D01*
X203315169Y-192293328D02*
X203315169Y-193579042D01*
X203315169Y-193579042D02*
X203386598Y-193721900D01*
X203386598Y-193721900D02*
X203529455Y-193793328D01*
X203529455Y-193793328D02*
X203672312Y-193793328D01*
X204743741Y-193721900D02*
X204600884Y-193793328D01*
X204600884Y-193793328D02*
X204315170Y-193793328D01*
X204315170Y-193793328D02*
X204172312Y-193721900D01*
X204172312Y-193721900D02*
X204100884Y-193579042D01*
X204100884Y-193579042D02*
X204100884Y-193007614D01*
X204100884Y-193007614D02*
X204172312Y-192864757D01*
X204172312Y-192864757D02*
X204315170Y-192793328D01*
X204315170Y-192793328D02*
X204600884Y-192793328D01*
X204600884Y-192793328D02*
X204743741Y-192864757D01*
X204743741Y-192864757D02*
X204815170Y-193007614D01*
X204815170Y-193007614D02*
X204815170Y-193150471D01*
X204815170Y-193150471D02*
X204100884Y-193293328D01*
X205458026Y-193650471D02*
X205529455Y-193721900D01*
X205529455Y-193721900D02*
X205458026Y-193793328D01*
X205458026Y-193793328D02*
X205386598Y-193721900D01*
X205386598Y-193721900D02*
X205458026Y-193650471D01*
X205458026Y-193650471D02*
X205458026Y-193793328D01*
X205458026Y-192864757D02*
X205529455Y-192936185D01*
X205529455Y-192936185D02*
X205458026Y-193007614D01*
X205458026Y-193007614D02*
X205386598Y-192936185D01*
X205386598Y-192936185D02*
X205458026Y-192864757D01*
X205458026Y-192864757D02*
X205458026Y-193007614D01*
X207243741Y-192436185D02*
X207315169Y-192364757D01*
X207315169Y-192364757D02*
X207458027Y-192293328D01*
X207458027Y-192293328D02*
X207815169Y-192293328D01*
X207815169Y-192293328D02*
X207958027Y-192364757D01*
X207958027Y-192364757D02*
X208029455Y-192436185D01*
X208029455Y-192436185D02*
X208100884Y-192579042D01*
X208100884Y-192579042D02*
X208100884Y-192721900D01*
X208100884Y-192721900D02*
X208029455Y-192936185D01*
X208029455Y-192936185D02*
X207172312Y-193793328D01*
X207172312Y-193793328D02*
X208100884Y-193793328D01*
X209029455Y-192293328D02*
X209172312Y-192293328D01*
X209172312Y-192293328D02*
X209315169Y-192364757D01*
X209315169Y-192364757D02*
X209386598Y-192436185D01*
X209386598Y-192436185D02*
X209458026Y-192579042D01*
X209458026Y-192579042D02*
X209529455Y-192864757D01*
X209529455Y-192864757D02*
X209529455Y-193221900D01*
X209529455Y-193221900D02*
X209458026Y-193507614D01*
X209458026Y-193507614D02*
X209386598Y-193650471D01*
X209386598Y-193650471D02*
X209315169Y-193721900D01*
X209315169Y-193721900D02*
X209172312Y-193793328D01*
X209172312Y-193793328D02*
X209029455Y-193793328D01*
X209029455Y-193793328D02*
X208886598Y-193721900D01*
X208886598Y-193721900D02*
X208815169Y-193650471D01*
X208815169Y-193650471D02*
X208743740Y-193507614D01*
X208743740Y-193507614D02*
X208672312Y-193221900D01*
X208672312Y-193221900D02*
X208672312Y-192864757D01*
X208672312Y-192864757D02*
X208743740Y-192579042D01*
X208743740Y-192579042D02*
X208815169Y-192436185D01*
X208815169Y-192436185D02*
X208886598Y-192364757D01*
X208886598Y-192364757D02*
X209029455Y-192293328D01*
X210100883Y-192436185D02*
X210172311Y-192364757D01*
X210172311Y-192364757D02*
X210315169Y-192293328D01*
X210315169Y-192293328D02*
X210672311Y-192293328D01*
X210672311Y-192293328D02*
X210815169Y-192364757D01*
X210815169Y-192364757D02*
X210886597Y-192436185D01*
X210886597Y-192436185D02*
X210958026Y-192579042D01*
X210958026Y-192579042D02*
X210958026Y-192721900D01*
X210958026Y-192721900D02*
X210886597Y-192936185D01*
X210886597Y-192936185D02*
X210029454Y-193793328D01*
X210029454Y-193793328D02*
X210958026Y-193793328D01*
X212243740Y-192293328D02*
X211958025Y-192293328D01*
X211958025Y-192293328D02*
X211815168Y-192364757D01*
X211815168Y-192364757D02*
X211743740Y-192436185D01*
X211743740Y-192436185D02*
X211600882Y-192650471D01*
X211600882Y-192650471D02*
X211529454Y-192936185D01*
X211529454Y-192936185D02*
X211529454Y-193507614D01*
X211529454Y-193507614D02*
X211600882Y-193650471D01*
X211600882Y-193650471D02*
X211672311Y-193721900D01*
X211672311Y-193721900D02*
X211815168Y-193793328D01*
X211815168Y-193793328D02*
X212100882Y-193793328D01*
X212100882Y-193793328D02*
X212243740Y-193721900D01*
X212243740Y-193721900D02*
X212315168Y-193650471D01*
X212315168Y-193650471D02*
X212386597Y-193507614D01*
X212386597Y-193507614D02*
X212386597Y-193150471D01*
X212386597Y-193150471D02*
X212315168Y-193007614D01*
X212315168Y-193007614D02*
X212243740Y-192936185D01*
X212243740Y-192936185D02*
X212100882Y-192864757D01*
X212100882Y-192864757D02*
X211815168Y-192864757D01*
X211815168Y-192864757D02*
X211672311Y-192936185D01*
X211672311Y-192936185D02*
X211600882Y-193007614D01*
X211600882Y-193007614D02*
X211529454Y-193150471D01*
X213029453Y-193221900D02*
X214172311Y-193221900D01*
X215172311Y-192293328D02*
X215315168Y-192293328D01*
X215315168Y-192293328D02*
X215458025Y-192364757D01*
X215458025Y-192364757D02*
X215529454Y-192436185D01*
X215529454Y-192436185D02*
X215600882Y-192579042D01*
X215600882Y-192579042D02*
X215672311Y-192864757D01*
X215672311Y-192864757D02*
X215672311Y-193221900D01*
X215672311Y-193221900D02*
X215600882Y-193507614D01*
X215600882Y-193507614D02*
X215529454Y-193650471D01*
X215529454Y-193650471D02*
X215458025Y-193721900D01*
X215458025Y-193721900D02*
X215315168Y-193793328D01*
X215315168Y-193793328D02*
X215172311Y-193793328D01*
X215172311Y-193793328D02*
X215029454Y-193721900D01*
X215029454Y-193721900D02*
X214958025Y-193650471D01*
X214958025Y-193650471D02*
X214886596Y-193507614D01*
X214886596Y-193507614D02*
X214815168Y-193221900D01*
X214815168Y-193221900D02*
X214815168Y-192864757D01*
X214815168Y-192864757D02*
X214886596Y-192579042D01*
X214886596Y-192579042D02*
X214958025Y-192436185D01*
X214958025Y-192436185D02*
X215029454Y-192364757D01*
X215029454Y-192364757D02*
X215172311Y-192293328D01*
X216529453Y-192936185D02*
X216386596Y-192864757D01*
X216386596Y-192864757D02*
X216315167Y-192793328D01*
X216315167Y-192793328D02*
X216243739Y-192650471D01*
X216243739Y-192650471D02*
X216243739Y-192579042D01*
X216243739Y-192579042D02*
X216315167Y-192436185D01*
X216315167Y-192436185D02*
X216386596Y-192364757D01*
X216386596Y-192364757D02*
X216529453Y-192293328D01*
X216529453Y-192293328D02*
X216815167Y-192293328D01*
X216815167Y-192293328D02*
X216958025Y-192364757D01*
X216958025Y-192364757D02*
X217029453Y-192436185D01*
X217029453Y-192436185D02*
X217100882Y-192579042D01*
X217100882Y-192579042D02*
X217100882Y-192650471D01*
X217100882Y-192650471D02*
X217029453Y-192793328D01*
X217029453Y-192793328D02*
X216958025Y-192864757D01*
X216958025Y-192864757D02*
X216815167Y-192936185D01*
X216815167Y-192936185D02*
X216529453Y-192936185D01*
X216529453Y-192936185D02*
X216386596Y-193007614D01*
X216386596Y-193007614D02*
X216315167Y-193079042D01*
X216315167Y-193079042D02*
X216243739Y-193221900D01*
X216243739Y-193221900D02*
X216243739Y-193507614D01*
X216243739Y-193507614D02*
X216315167Y-193650471D01*
X216315167Y-193650471D02*
X216386596Y-193721900D01*
X216386596Y-193721900D02*
X216529453Y-193793328D01*
X216529453Y-193793328D02*
X216815167Y-193793328D01*
X216815167Y-193793328D02*
X216958025Y-193721900D01*
X216958025Y-193721900D02*
X217029453Y-193650471D01*
X217029453Y-193650471D02*
X217100882Y-193507614D01*
X217100882Y-193507614D02*
X217100882Y-193221900D01*
X217100882Y-193221900D02*
X217029453Y-193079042D01*
X217029453Y-193079042D02*
X216958025Y-193007614D01*
X216958025Y-193007614D02*
X216815167Y-192936185D01*
X217743738Y-193221900D02*
X218886596Y-193221900D01*
X220386596Y-193793328D02*
X219529453Y-193793328D01*
X219958024Y-193793328D02*
X219958024Y-192293328D01*
X219958024Y-192293328D02*
X219815167Y-192507614D01*
X219815167Y-192507614D02*
X219672310Y-192650471D01*
X219672310Y-192650471D02*
X219529453Y-192721900D01*
X220886595Y-192293328D02*
X221886595Y-192293328D01*
X221886595Y-192293328D02*
X221243738Y-193793328D01*
X177002200Y-194507200D02*
X285002200Y-194507200D01*
X178458026Y-196593328D02*
X178458026Y-195093328D01*
X179315169Y-196593328D02*
X178672312Y-195736185D01*
X179315169Y-195093328D02*
X178458026Y-195950471D01*
X179958026Y-196593328D02*
X179958026Y-195593328D01*
X179958026Y-195093328D02*
X179886598Y-195164757D01*
X179886598Y-195164757D02*
X179958026Y-195236185D01*
X179958026Y-195236185D02*
X180029455Y-195164757D01*
X180029455Y-195164757D02*
X179958026Y-195093328D01*
X179958026Y-195093328D02*
X179958026Y-195236185D01*
X181529455Y-196450471D02*
X181458027Y-196521900D01*
X181458027Y-196521900D02*
X181243741Y-196593328D01*
X181243741Y-196593328D02*
X181100884Y-196593328D01*
X181100884Y-196593328D02*
X180886598Y-196521900D01*
X180886598Y-196521900D02*
X180743741Y-196379042D01*
X180743741Y-196379042D02*
X180672312Y-196236185D01*
X180672312Y-196236185D02*
X180600884Y-195950471D01*
X180600884Y-195950471D02*
X180600884Y-195736185D01*
X180600884Y-195736185D02*
X180672312Y-195450471D01*
X180672312Y-195450471D02*
X180743741Y-195307614D01*
X180743741Y-195307614D02*
X180886598Y-195164757D01*
X180886598Y-195164757D02*
X181100884Y-195093328D01*
X181100884Y-195093328D02*
X181243741Y-195093328D01*
X181243741Y-195093328D02*
X181458027Y-195164757D01*
X181458027Y-195164757D02*
X181529455Y-195236185D01*
X182815170Y-196593328D02*
X182815170Y-195807614D01*
X182815170Y-195807614D02*
X182743741Y-195664757D01*
X182743741Y-195664757D02*
X182600884Y-195593328D01*
X182600884Y-195593328D02*
X182315170Y-195593328D01*
X182315170Y-195593328D02*
X182172312Y-195664757D01*
X182815170Y-196521900D02*
X182672312Y-196593328D01*
X182672312Y-196593328D02*
X182315170Y-196593328D01*
X182315170Y-196593328D02*
X182172312Y-196521900D01*
X182172312Y-196521900D02*
X182100884Y-196379042D01*
X182100884Y-196379042D02*
X182100884Y-196236185D01*
X182100884Y-196236185D02*
X182172312Y-196093328D01*
X182172312Y-196093328D02*
X182315170Y-196021900D01*
X182315170Y-196021900D02*
X182672312Y-196021900D01*
X182672312Y-196021900D02*
X182815170Y-195950471D01*
X184172313Y-196593328D02*
X184172313Y-195093328D01*
X184172313Y-196521900D02*
X184029455Y-196593328D01*
X184029455Y-196593328D02*
X183743741Y-196593328D01*
X183743741Y-196593328D02*
X183600884Y-196521900D01*
X183600884Y-196521900D02*
X183529455Y-196450471D01*
X183529455Y-196450471D02*
X183458027Y-196307614D01*
X183458027Y-196307614D02*
X183458027Y-195879042D01*
X183458027Y-195879042D02*
X183529455Y-195736185D01*
X183529455Y-195736185D02*
X183600884Y-195664757D01*
X183600884Y-195664757D02*
X183743741Y-195593328D01*
X183743741Y-195593328D02*
X184029455Y-195593328D01*
X184029455Y-195593328D02*
X184172313Y-195664757D01*
X186029455Y-195807614D02*
X186529455Y-195807614D01*
X186743741Y-196593328D02*
X186029455Y-196593328D01*
X186029455Y-196593328D02*
X186029455Y-195093328D01*
X186029455Y-195093328D02*
X186743741Y-195093328D01*
X187386598Y-196450471D02*
X187458027Y-196521900D01*
X187458027Y-196521900D02*
X187386598Y-196593328D01*
X187386598Y-196593328D02*
X187315170Y-196521900D01*
X187315170Y-196521900D02*
X187386598Y-196450471D01*
X187386598Y-196450471D02*
X187386598Y-196593328D01*
X188100884Y-196593328D02*
X188100884Y-195093328D01*
X188100884Y-195093328D02*
X188458027Y-195093328D01*
X188458027Y-195093328D02*
X188672313Y-195164757D01*
X188672313Y-195164757D02*
X188815170Y-195307614D01*
X188815170Y-195307614D02*
X188886599Y-195450471D01*
X188886599Y-195450471D02*
X188958027Y-195736185D01*
X188958027Y-195736185D02*
X188958027Y-195950471D01*
X188958027Y-195950471D02*
X188886599Y-196236185D01*
X188886599Y-196236185D02*
X188815170Y-196379042D01*
X188815170Y-196379042D02*
X188672313Y-196521900D01*
X188672313Y-196521900D02*
X188458027Y-196593328D01*
X188458027Y-196593328D02*
X188100884Y-196593328D01*
X189600884Y-196450471D02*
X189672313Y-196521900D01*
X189672313Y-196521900D02*
X189600884Y-196593328D01*
X189600884Y-196593328D02*
X189529456Y-196521900D01*
X189529456Y-196521900D02*
X189600884Y-196450471D01*
X189600884Y-196450471D02*
X189600884Y-196593328D01*
X190243742Y-196164757D02*
X190958028Y-196164757D01*
X190100885Y-196593328D02*
X190600885Y-195093328D01*
X190600885Y-195093328D02*
X191100885Y-196593328D01*
X191600884Y-196450471D02*
X191672313Y-196521900D01*
X191672313Y-196521900D02*
X191600884Y-196593328D01*
X191600884Y-196593328D02*
X191529456Y-196521900D01*
X191529456Y-196521900D02*
X191600884Y-196450471D01*
X191600884Y-196450471D02*
X191600884Y-196593328D01*
X194243742Y-196593328D02*
X193386599Y-196593328D01*
X193815170Y-196593328D02*
X193815170Y-195093328D01*
X193815170Y-195093328D02*
X193672313Y-195307614D01*
X193672313Y-195307614D02*
X193529456Y-195450471D01*
X193529456Y-195450471D02*
X193386599Y-195521900D01*
X195172313Y-195093328D02*
X195315170Y-195093328D01*
X195315170Y-195093328D02*
X195458027Y-195164757D01*
X195458027Y-195164757D02*
X195529456Y-195236185D01*
X195529456Y-195236185D02*
X195600884Y-195379042D01*
X195600884Y-195379042D02*
X195672313Y-195664757D01*
X195672313Y-195664757D02*
X195672313Y-196021900D01*
X195672313Y-196021900D02*
X195600884Y-196307614D01*
X195600884Y-196307614D02*
X195529456Y-196450471D01*
X195529456Y-196450471D02*
X195458027Y-196521900D01*
X195458027Y-196521900D02*
X195315170Y-196593328D01*
X195315170Y-196593328D02*
X195172313Y-196593328D01*
X195172313Y-196593328D02*
X195029456Y-196521900D01*
X195029456Y-196521900D02*
X194958027Y-196450471D01*
X194958027Y-196450471D02*
X194886598Y-196307614D01*
X194886598Y-196307614D02*
X194815170Y-196021900D01*
X194815170Y-196021900D02*
X194815170Y-195664757D01*
X194815170Y-195664757D02*
X194886598Y-195379042D01*
X194886598Y-195379042D02*
X194958027Y-195236185D01*
X194958027Y-195236185D02*
X195029456Y-195164757D01*
X195029456Y-195164757D02*
X195172313Y-195093328D01*
X196315169Y-196450471D02*
X196386598Y-196521900D01*
X196386598Y-196521900D02*
X196315169Y-196593328D01*
X196315169Y-196593328D02*
X196243741Y-196521900D01*
X196243741Y-196521900D02*
X196315169Y-196450471D01*
X196315169Y-196450471D02*
X196315169Y-196593328D01*
X197315170Y-195093328D02*
X197458027Y-195093328D01*
X197458027Y-195093328D02*
X197600884Y-195164757D01*
X197600884Y-195164757D02*
X197672313Y-195236185D01*
X197672313Y-195236185D02*
X197743741Y-195379042D01*
X197743741Y-195379042D02*
X197815170Y-195664757D01*
X197815170Y-195664757D02*
X197815170Y-196021900D01*
X197815170Y-196021900D02*
X197743741Y-196307614D01*
X197743741Y-196307614D02*
X197672313Y-196450471D01*
X197672313Y-196450471D02*
X197600884Y-196521900D01*
X197600884Y-196521900D02*
X197458027Y-196593328D01*
X197458027Y-196593328D02*
X197315170Y-196593328D01*
X197315170Y-196593328D02*
X197172313Y-196521900D01*
X197172313Y-196521900D02*
X197100884Y-196450471D01*
X197100884Y-196450471D02*
X197029455Y-196307614D01*
X197029455Y-196307614D02*
X196958027Y-196021900D01*
X196958027Y-196021900D02*
X196958027Y-195664757D01*
X196958027Y-195664757D02*
X197029455Y-195379042D01*
X197029455Y-195379042D02*
X197100884Y-195236185D01*
X197100884Y-195236185D02*
X197172313Y-195164757D01*
X197172313Y-195164757D02*
X197315170Y-195093328D01*
X198458026Y-196450471D02*
X198529455Y-196521900D01*
X198529455Y-196521900D02*
X198458026Y-196593328D01*
X198458026Y-196593328D02*
X198386598Y-196521900D01*
X198386598Y-196521900D02*
X198458026Y-196450471D01*
X198458026Y-196450471D02*
X198458026Y-196593328D01*
X199815170Y-195593328D02*
X199815170Y-196593328D01*
X199458027Y-195021900D02*
X199100884Y-196093328D01*
X199100884Y-196093328D02*
X200029455Y-196093328D01*
X177002200Y-191507200D02*
X285002200Y-191507200D01*
D11*
X264413853Y-193785528D02*
X263913853Y-193071242D01*
X263556710Y-193785528D02*
X263556710Y-192285528D01*
X263556710Y-192285528D02*
X264128139Y-192285528D01*
X264128139Y-192285528D02*
X264270996Y-192356957D01*
X264270996Y-192356957D02*
X264342425Y-192428385D01*
X264342425Y-192428385D02*
X264413853Y-192571242D01*
X264413853Y-192571242D02*
X264413853Y-192785528D01*
X264413853Y-192785528D02*
X264342425Y-192928385D01*
X264342425Y-192928385D02*
X264270996Y-192999814D01*
X264270996Y-192999814D02*
X264128139Y-193071242D01*
X264128139Y-193071242D02*
X263556710Y-193071242D01*
X265628139Y-193714100D02*
X265485282Y-193785528D01*
X265485282Y-193785528D02*
X265199568Y-193785528D01*
X265199568Y-193785528D02*
X265056710Y-193714100D01*
X265056710Y-193714100D02*
X264985282Y-193571242D01*
X264985282Y-193571242D02*
X264985282Y-192999814D01*
X264985282Y-192999814D02*
X265056710Y-192856957D01*
X265056710Y-192856957D02*
X265199568Y-192785528D01*
X265199568Y-192785528D02*
X265485282Y-192785528D01*
X265485282Y-192785528D02*
X265628139Y-192856957D01*
X265628139Y-192856957D02*
X265699568Y-192999814D01*
X265699568Y-192999814D02*
X265699568Y-193142671D01*
X265699568Y-193142671D02*
X264985282Y-193285528D01*
X266199567Y-192785528D02*
X266556710Y-193785528D01*
X266556710Y-193785528D02*
X266913853Y-192785528D01*
X267485281Y-193642671D02*
X267556710Y-193714100D01*
X267556710Y-193714100D02*
X267485281Y-193785528D01*
X267485281Y-193785528D02*
X267413853Y-193714100D01*
X267413853Y-193714100D02*
X267485281Y-193642671D01*
X267485281Y-193642671D02*
X267485281Y-193785528D01*
X267485281Y-192856957D02*
X267556710Y-192928385D01*
X267556710Y-192928385D02*
X267485281Y-192999814D01*
X267485281Y-192999814D02*
X267413853Y-192928385D01*
X267413853Y-192928385D02*
X267485281Y-192856957D01*
X267485281Y-192856957D02*
X267485281Y-192999814D01*
D10*
X178386598Y-193721900D02*
X178600884Y-193793328D01*
X178600884Y-193793328D02*
X178958026Y-193793328D01*
X178958026Y-193793328D02*
X179100884Y-193721900D01*
X179100884Y-193721900D02*
X179172312Y-193650471D01*
X179172312Y-193650471D02*
X179243741Y-193507614D01*
X179243741Y-193507614D02*
X179243741Y-193364757D01*
X179243741Y-193364757D02*
X179172312Y-193221900D01*
X179172312Y-193221900D02*
X179100884Y-193150471D01*
X179100884Y-193150471D02*
X178958026Y-193079042D01*
X178958026Y-193079042D02*
X178672312Y-193007614D01*
X178672312Y-193007614D02*
X178529455Y-192936185D01*
X178529455Y-192936185D02*
X178458026Y-192864757D01*
X178458026Y-192864757D02*
X178386598Y-192721900D01*
X178386598Y-192721900D02*
X178386598Y-192579042D01*
X178386598Y-192579042D02*
X178458026Y-192436185D01*
X178458026Y-192436185D02*
X178529455Y-192364757D01*
X178529455Y-192364757D02*
X178672312Y-192293328D01*
X178672312Y-192293328D02*
X179029455Y-192293328D01*
X179029455Y-192293328D02*
X179243741Y-192364757D01*
X179886597Y-193793328D02*
X179886597Y-192793328D01*
X179886597Y-192293328D02*
X179815169Y-192364757D01*
X179815169Y-192364757D02*
X179886597Y-192436185D01*
X179886597Y-192436185D02*
X179958026Y-192364757D01*
X179958026Y-192364757D02*
X179886597Y-192293328D01*
X179886597Y-192293328D02*
X179886597Y-192436185D01*
X180458026Y-192793328D02*
X181243741Y-192793328D01*
X181243741Y-192793328D02*
X180458026Y-193793328D01*
X180458026Y-193793328D02*
X181243741Y-193793328D01*
X182386598Y-193721900D02*
X182243741Y-193793328D01*
X182243741Y-193793328D02*
X181958027Y-193793328D01*
X181958027Y-193793328D02*
X181815169Y-193721900D01*
X181815169Y-193721900D02*
X181743741Y-193579042D01*
X181743741Y-193579042D02*
X181743741Y-193007614D01*
X181743741Y-193007614D02*
X181815169Y-192864757D01*
X181815169Y-192864757D02*
X181958027Y-192793328D01*
X181958027Y-192793328D02*
X182243741Y-192793328D01*
X182243741Y-192793328D02*
X182386598Y-192864757D01*
X182386598Y-192864757D02*
X182458027Y-193007614D01*
X182458027Y-193007614D02*
X182458027Y-193150471D01*
X182458027Y-193150471D02*
X181743741Y-193293328D01*
X183100883Y-193650471D02*
X183172312Y-193721900D01*
X183172312Y-193721900D02*
X183100883Y-193793328D01*
X183100883Y-193793328D02*
X183029455Y-193721900D01*
X183029455Y-193721900D02*
X183100883Y-193650471D01*
X183100883Y-193650471D02*
X183100883Y-193793328D01*
X183100883Y-192864757D02*
X183172312Y-192936185D01*
X183172312Y-192936185D02*
X183100883Y-193007614D01*
X183100883Y-193007614D02*
X183029455Y-192936185D01*
X183029455Y-192936185D02*
X183100883Y-192864757D01*
X183100883Y-192864757D02*
X183100883Y-193007614D01*
X184886598Y-193364757D02*
X185600884Y-193364757D01*
X184743741Y-193793328D02*
X185243741Y-192293328D01*
X185243741Y-192293328D02*
X185743741Y-193793328D01*
X186886598Y-192793328D02*
X186886598Y-193793328D01*
X186529455Y-192221900D02*
X186172312Y-193293328D01*
X186172312Y-193293328D02*
X187100883Y-193293328D01*
X263458026Y-196593328D02*
X263458026Y-195093328D01*
X264815170Y-196593328D02*
X264815170Y-195093328D01*
X264815170Y-196521900D02*
X264672312Y-196593328D01*
X264672312Y-196593328D02*
X264386598Y-196593328D01*
X264386598Y-196593328D02*
X264243741Y-196521900D01*
X264243741Y-196521900D02*
X264172312Y-196450471D01*
X264172312Y-196450471D02*
X264100884Y-196307614D01*
X264100884Y-196307614D02*
X264100884Y-195879042D01*
X264100884Y-195879042D02*
X264172312Y-195736185D01*
X264172312Y-195736185D02*
X264243741Y-195664757D01*
X264243741Y-195664757D02*
X264386598Y-195593328D01*
X264386598Y-195593328D02*
X264672312Y-195593328D01*
X264672312Y-195593328D02*
X264815170Y-195664757D01*
X265529455Y-196450471D02*
X265600884Y-196521900D01*
X265600884Y-196521900D02*
X265529455Y-196593328D01*
X265529455Y-196593328D02*
X265458027Y-196521900D01*
X265458027Y-196521900D02*
X265529455Y-196450471D01*
X265529455Y-196450471D02*
X265529455Y-196593328D01*
X265529455Y-195664757D02*
X265600884Y-195736185D01*
X265600884Y-195736185D02*
X265529455Y-195807614D01*
X265529455Y-195807614D02*
X265458027Y-195736185D01*
X265458027Y-195736185D02*
X265529455Y-195664757D01*
X265529455Y-195664757D02*
X265529455Y-195807614D01*
X268029456Y-195093328D02*
X267743741Y-195093328D01*
X267743741Y-195093328D02*
X267600884Y-195164757D01*
X267600884Y-195164757D02*
X267529456Y-195236185D01*
X267529456Y-195236185D02*
X267386598Y-195450471D01*
X267386598Y-195450471D02*
X267315170Y-195736185D01*
X267315170Y-195736185D02*
X267315170Y-196307614D01*
X267315170Y-196307614D02*
X267386598Y-196450471D01*
X267386598Y-196450471D02*
X267458027Y-196521900D01*
X267458027Y-196521900D02*
X267600884Y-196593328D01*
X267600884Y-196593328D02*
X267886598Y-196593328D01*
X267886598Y-196593328D02*
X268029456Y-196521900D01*
X268029456Y-196521900D02*
X268100884Y-196450471D01*
X268100884Y-196450471D02*
X268172313Y-196307614D01*
X268172313Y-196307614D02*
X268172313Y-195950471D01*
X268172313Y-195950471D02*
X268100884Y-195807614D01*
X268100884Y-195807614D02*
X268029456Y-195736185D01*
X268029456Y-195736185D02*
X267886598Y-195664757D01*
X267886598Y-195664757D02*
X267600884Y-195664757D01*
X267600884Y-195664757D02*
X267458027Y-195736185D01*
X267458027Y-195736185D02*
X267386598Y-195807614D01*
X267386598Y-195807614D02*
X267315170Y-195950471D01*
X269886598Y-195021900D02*
X268600884Y-196950471D01*
X271172313Y-196593328D02*
X270315170Y-196593328D01*
X270743741Y-196593328D02*
X270743741Y-195093328D01*
X270743741Y-195093328D02*
X270600884Y-195307614D01*
X270600884Y-195307614D02*
X270458027Y-195450471D01*
X270458027Y-195450471D02*
X270315170Y-195521900D01*
X272600884Y-196593328D02*
X271743741Y-196593328D01*
X272172312Y-196593328D02*
X272172312Y-195093328D01*
X272172312Y-195093328D02*
X272029455Y-195307614D01*
X272029455Y-195307614D02*
X271886598Y-195450471D01*
X271886598Y-195450471D02*
X271743741Y-195521900D01*
X177002200Y-187507200D02*
X285002200Y-187507200D01*
D12*
X178693928Y-188211638D02*
X179836785Y-188211638D01*
X179015357Y-190211638D02*
X179265357Y-188211638D01*
X180253452Y-190211638D02*
X180420119Y-188878304D01*
X180503452Y-188211638D02*
X180396309Y-188306876D01*
X180396309Y-188306876D02*
X180479643Y-188402114D01*
X180479643Y-188402114D02*
X180586786Y-188306876D01*
X180586786Y-188306876D02*
X180503452Y-188211638D01*
X180503452Y-188211638D02*
X180479643Y-188402114D01*
X181086786Y-188878304D02*
X181848690Y-188878304D01*
X181455833Y-188211638D02*
X181241548Y-189925923D01*
X181241548Y-189925923D02*
X181312976Y-190116400D01*
X181312976Y-190116400D02*
X181491548Y-190211638D01*
X181491548Y-190211638D02*
X181682024Y-190211638D01*
X182634405Y-190211638D02*
X182455833Y-190116400D01*
X182455833Y-190116400D02*
X182384405Y-189925923D01*
X182384405Y-189925923D02*
X182598690Y-188211638D01*
X184170119Y-190116400D02*
X183967738Y-190211638D01*
X183967738Y-190211638D02*
X183586785Y-190211638D01*
X183586785Y-190211638D02*
X183408214Y-190116400D01*
X183408214Y-190116400D02*
X183336785Y-189925923D01*
X183336785Y-189925923D02*
X183432024Y-189164019D01*
X183432024Y-189164019D02*
X183551071Y-188973542D01*
X183551071Y-188973542D02*
X183753452Y-188878304D01*
X183753452Y-188878304D02*
X184134404Y-188878304D01*
X184134404Y-188878304D02*
X184312976Y-188973542D01*
X184312976Y-188973542D02*
X184384404Y-189164019D01*
X184384404Y-189164019D02*
X184360595Y-189354495D01*
X184360595Y-189354495D02*
X183384404Y-189544971D01*
X185134405Y-190021161D02*
X185217738Y-190116400D01*
X185217738Y-190116400D02*
X185110595Y-190211638D01*
X185110595Y-190211638D02*
X185027262Y-190116400D01*
X185027262Y-190116400D02*
X185134405Y-190021161D01*
X185134405Y-190021161D02*
X185110595Y-190211638D01*
X185265357Y-188973542D02*
X185348690Y-189068780D01*
X185348690Y-189068780D02*
X185241548Y-189164019D01*
X185241548Y-189164019D02*
X185158214Y-189068780D01*
X185158214Y-189068780D02*
X185265357Y-188973542D01*
X185265357Y-188973542D02*
X185241548Y-189164019D01*
D10*
X178958026Y-185607614D02*
X178458026Y-185607614D01*
X178458026Y-186393328D02*
X178458026Y-184893328D01*
X178458026Y-184893328D02*
X179172312Y-184893328D01*
X179743740Y-186393328D02*
X179743740Y-185393328D01*
X179743740Y-184893328D02*
X179672312Y-184964757D01*
X179672312Y-184964757D02*
X179743740Y-185036185D01*
X179743740Y-185036185D02*
X179815169Y-184964757D01*
X179815169Y-184964757D02*
X179743740Y-184893328D01*
X179743740Y-184893328D02*
X179743740Y-185036185D01*
X180672312Y-186393328D02*
X180529455Y-186321900D01*
X180529455Y-186321900D02*
X180458026Y-186179042D01*
X180458026Y-186179042D02*
X180458026Y-184893328D01*
X181815169Y-186321900D02*
X181672312Y-186393328D01*
X181672312Y-186393328D02*
X181386598Y-186393328D01*
X181386598Y-186393328D02*
X181243740Y-186321900D01*
X181243740Y-186321900D02*
X181172312Y-186179042D01*
X181172312Y-186179042D02*
X181172312Y-185607614D01*
X181172312Y-185607614D02*
X181243740Y-185464757D01*
X181243740Y-185464757D02*
X181386598Y-185393328D01*
X181386598Y-185393328D02*
X181672312Y-185393328D01*
X181672312Y-185393328D02*
X181815169Y-185464757D01*
X181815169Y-185464757D02*
X181886598Y-185607614D01*
X181886598Y-185607614D02*
X181886598Y-185750471D01*
X181886598Y-185750471D02*
X181172312Y-185893328D01*
X182529454Y-186250471D02*
X182600883Y-186321900D01*
X182600883Y-186321900D02*
X182529454Y-186393328D01*
X182529454Y-186393328D02*
X182458026Y-186321900D01*
X182458026Y-186321900D02*
X182529454Y-186250471D01*
X182529454Y-186250471D02*
X182529454Y-186393328D01*
X182529454Y-185464757D02*
X182600883Y-185536185D01*
X182600883Y-185536185D02*
X182529454Y-185607614D01*
X182529454Y-185607614D02*
X182458026Y-185536185D01*
X182458026Y-185536185D02*
X182529454Y-185464757D01*
X182529454Y-185464757D02*
X182529454Y-185607614D01*
X184886597Y-185607614D02*
X185100883Y-185679042D01*
X185100883Y-185679042D02*
X185172312Y-185750471D01*
X185172312Y-185750471D02*
X185243740Y-185893328D01*
X185243740Y-185893328D02*
X185243740Y-186107614D01*
X185243740Y-186107614D02*
X185172312Y-186250471D01*
X185172312Y-186250471D02*
X185100883Y-186321900D01*
X185100883Y-186321900D02*
X184958026Y-186393328D01*
X184958026Y-186393328D02*
X184386597Y-186393328D01*
X184386597Y-186393328D02*
X184386597Y-184893328D01*
X184386597Y-184893328D02*
X184886597Y-184893328D01*
X184886597Y-184893328D02*
X185029455Y-184964757D01*
X185029455Y-184964757D02*
X185100883Y-185036185D01*
X185100883Y-185036185D02*
X185172312Y-185179042D01*
X185172312Y-185179042D02*
X185172312Y-185321900D01*
X185172312Y-185321900D02*
X185100883Y-185464757D01*
X185100883Y-185464757D02*
X185029455Y-185536185D01*
X185029455Y-185536185D02*
X184886597Y-185607614D01*
X184886597Y-185607614D02*
X184386597Y-185607614D01*
X186600883Y-186393328D02*
X185886597Y-186393328D01*
X185886597Y-186393328D02*
X185886597Y-184893328D01*
X187100883Y-185607614D02*
X187600883Y-185607614D01*
X187815169Y-186393328D02*
X187100883Y-186393328D01*
X187100883Y-186393328D02*
X187100883Y-184893328D01*
X187100883Y-184893328D02*
X187815169Y-184893328D01*
X188458026Y-186393328D02*
X188458026Y-184893328D01*
X188600884Y-185821900D02*
X189029455Y-186393328D01*
X189029455Y-185393328D02*
X188458026Y-185964757D01*
X190243741Y-186321900D02*
X190100884Y-186393328D01*
X190100884Y-186393328D02*
X189815170Y-186393328D01*
X189815170Y-186393328D02*
X189672312Y-186321900D01*
X189672312Y-186321900D02*
X189600884Y-186179042D01*
X189600884Y-186179042D02*
X189600884Y-185607614D01*
X189600884Y-185607614D02*
X189672312Y-185464757D01*
X189672312Y-185464757D02*
X189815170Y-185393328D01*
X189815170Y-185393328D02*
X190100884Y-185393328D01*
X190100884Y-185393328D02*
X190243741Y-185464757D01*
X190243741Y-185464757D02*
X190315170Y-185607614D01*
X190315170Y-185607614D02*
X190315170Y-185750471D01*
X190315170Y-185750471D02*
X189600884Y-185893328D01*
X190815169Y-185393328D02*
X191172312Y-186393328D01*
X191529455Y-185393328D02*
X191172312Y-186393328D01*
X191172312Y-186393328D02*
X191029455Y-186750471D01*
X191029455Y-186750471D02*
X190958026Y-186821900D01*
X190958026Y-186821900D02*
X190815169Y-186893328D01*
X192100883Y-186393328D02*
X192100883Y-184893328D01*
X192100883Y-185464757D02*
X192243741Y-185393328D01*
X192243741Y-185393328D02*
X192529455Y-185393328D01*
X192529455Y-185393328D02*
X192672312Y-185464757D01*
X192672312Y-185464757D02*
X192743741Y-185536185D01*
X192743741Y-185536185D02*
X192815169Y-185679042D01*
X192815169Y-185679042D02*
X192815169Y-186107614D01*
X192815169Y-186107614D02*
X192743741Y-186250471D01*
X192743741Y-186250471D02*
X192672312Y-186321900D01*
X192672312Y-186321900D02*
X192529455Y-186393328D01*
X192529455Y-186393328D02*
X192243741Y-186393328D01*
X192243741Y-186393328D02*
X192100883Y-186321900D01*
X193672312Y-186393328D02*
X193529455Y-186321900D01*
X193529455Y-186321900D02*
X193458026Y-186250471D01*
X193458026Y-186250471D02*
X193386598Y-186107614D01*
X193386598Y-186107614D02*
X193386598Y-185679042D01*
X193386598Y-185679042D02*
X193458026Y-185536185D01*
X193458026Y-185536185D02*
X193529455Y-185464757D01*
X193529455Y-185464757D02*
X193672312Y-185393328D01*
X193672312Y-185393328D02*
X193886598Y-185393328D01*
X193886598Y-185393328D02*
X194029455Y-185464757D01*
X194029455Y-185464757D02*
X194100884Y-185536185D01*
X194100884Y-185536185D02*
X194172312Y-185679042D01*
X194172312Y-185679042D02*
X194172312Y-186107614D01*
X194172312Y-186107614D02*
X194100884Y-186250471D01*
X194100884Y-186250471D02*
X194029455Y-186321900D01*
X194029455Y-186321900D02*
X193886598Y-186393328D01*
X193886598Y-186393328D02*
X193672312Y-186393328D01*
X195458027Y-186393328D02*
X195458027Y-185607614D01*
X195458027Y-185607614D02*
X195386598Y-185464757D01*
X195386598Y-185464757D02*
X195243741Y-185393328D01*
X195243741Y-185393328D02*
X194958027Y-185393328D01*
X194958027Y-185393328D02*
X194815169Y-185464757D01*
X195458027Y-186321900D02*
X195315169Y-186393328D01*
X195315169Y-186393328D02*
X194958027Y-186393328D01*
X194958027Y-186393328D02*
X194815169Y-186321900D01*
X194815169Y-186321900D02*
X194743741Y-186179042D01*
X194743741Y-186179042D02*
X194743741Y-186036185D01*
X194743741Y-186036185D02*
X194815169Y-185893328D01*
X194815169Y-185893328D02*
X194958027Y-185821900D01*
X194958027Y-185821900D02*
X195315169Y-185821900D01*
X195315169Y-185821900D02*
X195458027Y-185750471D01*
X196172312Y-186393328D02*
X196172312Y-185393328D01*
X196172312Y-185679042D02*
X196243741Y-185536185D01*
X196243741Y-185536185D02*
X196315170Y-185464757D01*
X196315170Y-185464757D02*
X196458027Y-185393328D01*
X196458027Y-185393328D02*
X196600884Y-185393328D01*
X197743741Y-186393328D02*
X197743741Y-184893328D01*
X197743741Y-186321900D02*
X197600883Y-186393328D01*
X197600883Y-186393328D02*
X197315169Y-186393328D01*
X197315169Y-186393328D02*
X197172312Y-186321900D01*
X197172312Y-186321900D02*
X197100883Y-186250471D01*
X197100883Y-186250471D02*
X197029455Y-186107614D01*
X197029455Y-186107614D02*
X197029455Y-185679042D01*
X197029455Y-185679042D02*
X197100883Y-185536185D01*
X197100883Y-185536185D02*
X197172312Y-185464757D01*
X197172312Y-185464757D02*
X197315169Y-185393328D01*
X197315169Y-185393328D02*
X197600883Y-185393328D01*
X197600883Y-185393328D02*
X197743741Y-185464757D01*
X198458026Y-186250471D02*
X198529455Y-186321900D01*
X198529455Y-186321900D02*
X198458026Y-186393328D01*
X198458026Y-186393328D02*
X198386598Y-186321900D01*
X198386598Y-186321900D02*
X198458026Y-186250471D01*
X198458026Y-186250471D02*
X198458026Y-186393328D01*
X199172312Y-186393328D02*
X199172312Y-184893328D01*
X199315170Y-185821900D02*
X199743741Y-186393328D01*
X199743741Y-185393328D02*
X199172312Y-185964757D01*
X200386598Y-186393328D02*
X200386598Y-185393328D01*
X200386598Y-184893328D02*
X200315170Y-184964757D01*
X200315170Y-184964757D02*
X200386598Y-185036185D01*
X200386598Y-185036185D02*
X200458027Y-184964757D01*
X200458027Y-184964757D02*
X200386598Y-184893328D01*
X200386598Y-184893328D02*
X200386598Y-185036185D01*
X201743742Y-186321900D02*
X201600884Y-186393328D01*
X201600884Y-186393328D02*
X201315170Y-186393328D01*
X201315170Y-186393328D02*
X201172313Y-186321900D01*
X201172313Y-186321900D02*
X201100884Y-186250471D01*
X201100884Y-186250471D02*
X201029456Y-186107614D01*
X201029456Y-186107614D02*
X201029456Y-185679042D01*
X201029456Y-185679042D02*
X201100884Y-185536185D01*
X201100884Y-185536185D02*
X201172313Y-185464757D01*
X201172313Y-185464757D02*
X201315170Y-185393328D01*
X201315170Y-185393328D02*
X201600884Y-185393328D01*
X201600884Y-185393328D02*
X201743742Y-185464757D01*
X203029456Y-186393328D02*
X203029456Y-185607614D01*
X203029456Y-185607614D02*
X202958027Y-185464757D01*
X202958027Y-185464757D02*
X202815170Y-185393328D01*
X202815170Y-185393328D02*
X202529456Y-185393328D01*
X202529456Y-185393328D02*
X202386598Y-185464757D01*
X203029456Y-186321900D02*
X202886598Y-186393328D01*
X202886598Y-186393328D02*
X202529456Y-186393328D01*
X202529456Y-186393328D02*
X202386598Y-186321900D01*
X202386598Y-186321900D02*
X202315170Y-186179042D01*
X202315170Y-186179042D02*
X202315170Y-186036185D01*
X202315170Y-186036185D02*
X202386598Y-185893328D01*
X202386598Y-185893328D02*
X202529456Y-185821900D01*
X202529456Y-185821900D02*
X202886598Y-185821900D01*
X202886598Y-185821900D02*
X203029456Y-185750471D01*
X204386599Y-186393328D02*
X204386599Y-184893328D01*
X204386599Y-186321900D02*
X204243741Y-186393328D01*
X204243741Y-186393328D02*
X203958027Y-186393328D01*
X203958027Y-186393328D02*
X203815170Y-186321900D01*
X203815170Y-186321900D02*
X203743741Y-186250471D01*
X203743741Y-186250471D02*
X203672313Y-186107614D01*
X203672313Y-186107614D02*
X203672313Y-185679042D01*
X203672313Y-185679042D02*
X203743741Y-185536185D01*
X203743741Y-185536185D02*
X203815170Y-185464757D01*
X203815170Y-185464757D02*
X203958027Y-185393328D01*
X203958027Y-185393328D02*
X204243741Y-185393328D01*
X204243741Y-185393328D02*
X204386599Y-185464757D01*
X204743742Y-186536185D02*
X205886599Y-186536185D01*
X206243741Y-185393328D02*
X206243741Y-186893328D01*
X206243741Y-185464757D02*
X206386599Y-185393328D01*
X206386599Y-185393328D02*
X206672313Y-185393328D01*
X206672313Y-185393328D02*
X206815170Y-185464757D01*
X206815170Y-185464757D02*
X206886599Y-185536185D01*
X206886599Y-185536185D02*
X206958027Y-185679042D01*
X206958027Y-185679042D02*
X206958027Y-186107614D01*
X206958027Y-186107614D02*
X206886599Y-186250471D01*
X206886599Y-186250471D02*
X206815170Y-186321900D01*
X206815170Y-186321900D02*
X206672313Y-186393328D01*
X206672313Y-186393328D02*
X206386599Y-186393328D01*
X206386599Y-186393328D02*
X206243741Y-186321900D01*
X208243742Y-186321900D02*
X208100884Y-186393328D01*
X208100884Y-186393328D02*
X207815170Y-186393328D01*
X207815170Y-186393328D02*
X207672313Y-186321900D01*
X207672313Y-186321900D02*
X207600884Y-186250471D01*
X207600884Y-186250471D02*
X207529456Y-186107614D01*
X207529456Y-186107614D02*
X207529456Y-185679042D01*
X207529456Y-185679042D02*
X207600884Y-185536185D01*
X207600884Y-185536185D02*
X207672313Y-185464757D01*
X207672313Y-185464757D02*
X207815170Y-185393328D01*
X207815170Y-185393328D02*
X208100884Y-185393328D01*
X208100884Y-185393328D02*
X208243742Y-185464757D01*
X208886598Y-186393328D02*
X208886598Y-184893328D01*
X208886598Y-185464757D02*
X209029456Y-185393328D01*
X209029456Y-185393328D02*
X209315170Y-185393328D01*
X209315170Y-185393328D02*
X209458027Y-185464757D01*
X209458027Y-185464757D02*
X209529456Y-185536185D01*
X209529456Y-185536185D02*
X209600884Y-185679042D01*
X209600884Y-185679042D02*
X209600884Y-186107614D01*
X209600884Y-186107614D02*
X209529456Y-186250471D01*
X209529456Y-186250471D02*
X209458027Y-186321900D01*
X209458027Y-186321900D02*
X209315170Y-186393328D01*
X209315170Y-186393328D02*
X209029456Y-186393328D01*
X209029456Y-186393328D02*
X208886598Y-186321900D01*
X177002200Y-181507200D02*
X285002200Y-181507200D01*
X178386598Y-183621900D02*
X178600884Y-183693328D01*
X178600884Y-183693328D02*
X178958026Y-183693328D01*
X178958026Y-183693328D02*
X179100884Y-183621900D01*
X179100884Y-183621900D02*
X179172312Y-183550471D01*
X179172312Y-183550471D02*
X179243741Y-183407614D01*
X179243741Y-183407614D02*
X179243741Y-183264757D01*
X179243741Y-183264757D02*
X179172312Y-183121900D01*
X179172312Y-183121900D02*
X179100884Y-183050471D01*
X179100884Y-183050471D02*
X178958026Y-182979042D01*
X178958026Y-182979042D02*
X178672312Y-182907614D01*
X178672312Y-182907614D02*
X178529455Y-182836185D01*
X178529455Y-182836185D02*
X178458026Y-182764757D01*
X178458026Y-182764757D02*
X178386598Y-182621900D01*
X178386598Y-182621900D02*
X178386598Y-182479042D01*
X178386598Y-182479042D02*
X178458026Y-182336185D01*
X178458026Y-182336185D02*
X178529455Y-182264757D01*
X178529455Y-182264757D02*
X178672312Y-182193328D01*
X178672312Y-182193328D02*
X179029455Y-182193328D01*
X179029455Y-182193328D02*
X179243741Y-182264757D01*
X179886597Y-183693328D02*
X179886597Y-182193328D01*
X180529455Y-183693328D02*
X180529455Y-182907614D01*
X180529455Y-182907614D02*
X180458026Y-182764757D01*
X180458026Y-182764757D02*
X180315169Y-182693328D01*
X180315169Y-182693328D02*
X180100883Y-182693328D01*
X180100883Y-182693328D02*
X179958026Y-182764757D01*
X179958026Y-182764757D02*
X179886597Y-182836185D01*
X181815169Y-183621900D02*
X181672312Y-183693328D01*
X181672312Y-183693328D02*
X181386598Y-183693328D01*
X181386598Y-183693328D02*
X181243740Y-183621900D01*
X181243740Y-183621900D02*
X181172312Y-183479042D01*
X181172312Y-183479042D02*
X181172312Y-182907614D01*
X181172312Y-182907614D02*
X181243740Y-182764757D01*
X181243740Y-182764757D02*
X181386598Y-182693328D01*
X181386598Y-182693328D02*
X181672312Y-182693328D01*
X181672312Y-182693328D02*
X181815169Y-182764757D01*
X181815169Y-182764757D02*
X181886598Y-182907614D01*
X181886598Y-182907614D02*
X181886598Y-183050471D01*
X181886598Y-183050471D02*
X181172312Y-183193328D01*
X183100883Y-183621900D02*
X182958026Y-183693328D01*
X182958026Y-183693328D02*
X182672312Y-183693328D01*
X182672312Y-183693328D02*
X182529454Y-183621900D01*
X182529454Y-183621900D02*
X182458026Y-183479042D01*
X182458026Y-183479042D02*
X182458026Y-182907614D01*
X182458026Y-182907614D02*
X182529454Y-182764757D01*
X182529454Y-182764757D02*
X182672312Y-182693328D01*
X182672312Y-182693328D02*
X182958026Y-182693328D01*
X182958026Y-182693328D02*
X183100883Y-182764757D01*
X183100883Y-182764757D02*
X183172312Y-182907614D01*
X183172312Y-182907614D02*
X183172312Y-183050471D01*
X183172312Y-183050471D02*
X182458026Y-183193328D01*
X183600883Y-182693328D02*
X184172311Y-182693328D01*
X183815168Y-182193328D02*
X183815168Y-183479042D01*
X183815168Y-183479042D02*
X183886597Y-183621900D01*
X183886597Y-183621900D02*
X184029454Y-183693328D01*
X184029454Y-183693328D02*
X184172311Y-183693328D01*
X184672311Y-183550471D02*
X184743740Y-183621900D01*
X184743740Y-183621900D02*
X184672311Y-183693328D01*
X184672311Y-183693328D02*
X184600883Y-183621900D01*
X184600883Y-183621900D02*
X184672311Y-183550471D01*
X184672311Y-183550471D02*
X184672311Y-183693328D01*
X184672311Y-182764757D02*
X184743740Y-182836185D01*
X184743740Y-182836185D02*
X184672311Y-182907614D01*
X184672311Y-182907614D02*
X184600883Y-182836185D01*
X184600883Y-182836185D02*
X184672311Y-182764757D01*
X184672311Y-182764757D02*
X184672311Y-182907614D01*
X197002200Y-191507200D02*
X197002200Y-194507200D01*
X261002200Y-191507200D02*
X261002200Y-198007200D01*
X147874819Y-133974714D02*
X146874819Y-133974714D01*
X146874819Y-133974714D02*
X146874819Y-134212809D01*
X146874819Y-134212809D02*
X146922438Y-134355666D01*
X146922438Y-134355666D02*
X147017676Y-134450904D01*
X147017676Y-134450904D02*
X147112914Y-134498523D01*
X147112914Y-134498523D02*
X147303390Y-134546142D01*
X147303390Y-134546142D02*
X147446247Y-134546142D01*
X147446247Y-134546142D02*
X147636723Y-134498523D01*
X147636723Y-134498523D02*
X147731961Y-134450904D01*
X147731961Y-134450904D02*
X147827200Y-134355666D01*
X147827200Y-134355666D02*
X147874819Y-134212809D01*
X147874819Y-134212809D02*
X147874819Y-133974714D01*
X147874819Y-135498523D02*
X147874819Y-134927095D01*
X147874819Y-135212809D02*
X146874819Y-135212809D01*
X146874819Y-135212809D02*
X147017676Y-135117571D01*
X147017676Y-135117571D02*
X147112914Y-135022333D01*
X147112914Y-135022333D02*
X147160533Y-134927095D01*
X146874819Y-136403285D02*
X146874819Y-135927095D01*
X146874819Y-135927095D02*
X147351009Y-135879476D01*
X147351009Y-135879476D02*
X147303390Y-135927095D01*
X147303390Y-135927095D02*
X147255771Y-136022333D01*
X147255771Y-136022333D02*
X147255771Y-136260428D01*
X147255771Y-136260428D02*
X147303390Y-136355666D01*
X147303390Y-136355666D02*
X147351009Y-136403285D01*
X147351009Y-136403285D02*
X147446247Y-136450904D01*
X147446247Y-136450904D02*
X147684342Y-136450904D01*
X147684342Y-136450904D02*
X147779580Y-136403285D01*
X147779580Y-136403285D02*
X147827200Y-136355666D01*
X147827200Y-136355666D02*
X147874819Y-136260428D01*
X147874819Y-136260428D02*
X147874819Y-136022333D01*
X147874819Y-136022333D02*
X147827200Y-135927095D01*
X147827200Y-135927095D02*
X147779580Y-135879476D01*
X147704819Y-138737095D02*
X146704819Y-138737095D01*
X147704819Y-139308523D02*
X147133390Y-138879952D01*
X146704819Y-139308523D02*
X147276247Y-138737095D01*
X109933819Y-96096905D02*
X108933819Y-96096905D01*
X108933819Y-96096905D02*
X108933819Y-96335000D01*
X108933819Y-96335000D02*
X108981438Y-96477857D01*
X108981438Y-96477857D02*
X109076676Y-96573095D01*
X109076676Y-96573095D02*
X109171914Y-96620714D01*
X109171914Y-96620714D02*
X109362390Y-96668333D01*
X109362390Y-96668333D02*
X109505247Y-96668333D01*
X109505247Y-96668333D02*
X109695723Y-96620714D01*
X109695723Y-96620714D02*
X109790961Y-96573095D01*
X109790961Y-96573095D02*
X109886200Y-96477857D01*
X109886200Y-96477857D02*
X109933819Y-96335000D01*
X109933819Y-96335000D02*
X109933819Y-96096905D01*
X108933819Y-97001667D02*
X108933819Y-97620714D01*
X108933819Y-97620714D02*
X109314771Y-97287381D01*
X109314771Y-97287381D02*
X109314771Y-97430238D01*
X109314771Y-97430238D02*
X109362390Y-97525476D01*
X109362390Y-97525476D02*
X109410009Y-97573095D01*
X109410009Y-97573095D02*
X109505247Y-97620714D01*
X109505247Y-97620714D02*
X109743342Y-97620714D01*
X109743342Y-97620714D02*
X109838580Y-97573095D01*
X109838580Y-97573095D02*
X109886200Y-97525476D01*
X109886200Y-97525476D02*
X109933819Y-97430238D01*
X109933819Y-97430238D02*
X109933819Y-97144524D01*
X109933819Y-97144524D02*
X109886200Y-97049286D01*
X109886200Y-97049286D02*
X109838580Y-97001667D01*
X109763819Y-100383095D02*
X108763819Y-100383095D01*
X109763819Y-100954523D02*
X109192390Y-100525952D01*
X108763819Y-100954523D02*
X109335247Y-100383095D01*
X109933819Y-115273905D02*
X108933819Y-115273905D01*
X108933819Y-115273905D02*
X108933819Y-115512000D01*
X108933819Y-115512000D02*
X108981438Y-115654857D01*
X108981438Y-115654857D02*
X109076676Y-115750095D01*
X109076676Y-115750095D02*
X109171914Y-115797714D01*
X109171914Y-115797714D02*
X109362390Y-115845333D01*
X109362390Y-115845333D02*
X109505247Y-115845333D01*
X109505247Y-115845333D02*
X109695723Y-115797714D01*
X109695723Y-115797714D02*
X109790961Y-115750095D01*
X109790961Y-115750095D02*
X109886200Y-115654857D01*
X109886200Y-115654857D02*
X109933819Y-115512000D01*
X109933819Y-115512000D02*
X109933819Y-115273905D01*
X109267152Y-116702476D02*
X109933819Y-116702476D01*
X108886200Y-116464381D02*
X109600485Y-116226286D01*
X109600485Y-116226286D02*
X109600485Y-116845333D01*
X109763819Y-119560095D02*
X108763819Y-119560095D01*
X109763819Y-120131523D02*
X109192390Y-119702952D01*
X108763819Y-120131523D02*
X109335247Y-119560095D01*
X163624819Y-83931714D02*
X162624819Y-83931714D01*
X162624819Y-83931714D02*
X162624819Y-84169809D01*
X162624819Y-84169809D02*
X162672438Y-84312666D01*
X162672438Y-84312666D02*
X162767676Y-84407904D01*
X162767676Y-84407904D02*
X162862914Y-84455523D01*
X162862914Y-84455523D02*
X163053390Y-84503142D01*
X163053390Y-84503142D02*
X163196247Y-84503142D01*
X163196247Y-84503142D02*
X163386723Y-84455523D01*
X163386723Y-84455523D02*
X163481961Y-84407904D01*
X163481961Y-84407904D02*
X163577200Y-84312666D01*
X163577200Y-84312666D02*
X163624819Y-84169809D01*
X163624819Y-84169809D02*
X163624819Y-83931714D01*
X163624819Y-85455523D02*
X163624819Y-84884095D01*
X163624819Y-85169809D02*
X162624819Y-85169809D01*
X162624819Y-85169809D02*
X162767676Y-85074571D01*
X162767676Y-85074571D02*
X162862914Y-84979333D01*
X162862914Y-84979333D02*
X162910533Y-84884095D01*
X162624819Y-85788857D02*
X162624819Y-86455523D01*
X162624819Y-86455523D02*
X163624819Y-86026952D01*
X163794819Y-81074095D02*
X162794819Y-81074095D01*
X163794819Y-81645523D02*
X163223390Y-81216952D01*
X162794819Y-81645523D02*
X163366247Y-81074095D01*
X163624819Y-122290714D02*
X162624819Y-122290714D01*
X162624819Y-122290714D02*
X162624819Y-122528809D01*
X162624819Y-122528809D02*
X162672438Y-122671666D01*
X162672438Y-122671666D02*
X162767676Y-122766904D01*
X162767676Y-122766904D02*
X162862914Y-122814523D01*
X162862914Y-122814523D02*
X163053390Y-122862142D01*
X163053390Y-122862142D02*
X163196247Y-122862142D01*
X163196247Y-122862142D02*
X163386723Y-122814523D01*
X163386723Y-122814523D02*
X163481961Y-122766904D01*
X163481961Y-122766904D02*
X163577200Y-122671666D01*
X163577200Y-122671666D02*
X163624819Y-122528809D01*
X163624819Y-122528809D02*
X163624819Y-122290714D01*
X163624819Y-123814523D02*
X163624819Y-123243095D01*
X163624819Y-123528809D02*
X162624819Y-123528809D01*
X162624819Y-123528809D02*
X162767676Y-123433571D01*
X162767676Y-123433571D02*
X162862914Y-123338333D01*
X162862914Y-123338333D02*
X162910533Y-123243095D01*
X163053390Y-124385952D02*
X163005771Y-124290714D01*
X163005771Y-124290714D02*
X162958152Y-124243095D01*
X162958152Y-124243095D02*
X162862914Y-124195476D01*
X162862914Y-124195476D02*
X162815295Y-124195476D01*
X162815295Y-124195476D02*
X162720057Y-124243095D01*
X162720057Y-124243095D02*
X162672438Y-124290714D01*
X162672438Y-124290714D02*
X162624819Y-124385952D01*
X162624819Y-124385952D02*
X162624819Y-124576428D01*
X162624819Y-124576428D02*
X162672438Y-124671666D01*
X162672438Y-124671666D02*
X162720057Y-124719285D01*
X162720057Y-124719285D02*
X162815295Y-124766904D01*
X162815295Y-124766904D02*
X162862914Y-124766904D01*
X162862914Y-124766904D02*
X162958152Y-124719285D01*
X162958152Y-124719285D02*
X163005771Y-124671666D01*
X163005771Y-124671666D02*
X163053390Y-124576428D01*
X163053390Y-124576428D02*
X163053390Y-124385952D01*
X163053390Y-124385952D02*
X163101009Y-124290714D01*
X163101009Y-124290714D02*
X163148628Y-124243095D01*
X163148628Y-124243095D02*
X163243866Y-124195476D01*
X163243866Y-124195476D02*
X163434342Y-124195476D01*
X163434342Y-124195476D02*
X163529580Y-124243095D01*
X163529580Y-124243095D02*
X163577200Y-124290714D01*
X163577200Y-124290714D02*
X163624819Y-124385952D01*
X163624819Y-124385952D02*
X163624819Y-124576428D01*
X163624819Y-124576428D02*
X163577200Y-124671666D01*
X163577200Y-124671666D02*
X163529580Y-124719285D01*
X163529580Y-124719285D02*
X163434342Y-124766904D01*
X163434342Y-124766904D02*
X163243866Y-124766904D01*
X163243866Y-124766904D02*
X163148628Y-124719285D01*
X163148628Y-124719285D02*
X163101009Y-124671666D01*
X163101009Y-124671666D02*
X163053390Y-124576428D01*
X163794819Y-119433095D02*
X162794819Y-119433095D01*
X163794819Y-120004523D02*
X163223390Y-119575952D01*
X162794819Y-120004523D02*
X163366247Y-119433095D01*
X147874819Y-76443714D02*
X146874819Y-76443714D01*
X146874819Y-76443714D02*
X146874819Y-76681809D01*
X146874819Y-76681809D02*
X146922438Y-76824666D01*
X146922438Y-76824666D02*
X147017676Y-76919904D01*
X147017676Y-76919904D02*
X147112914Y-76967523D01*
X147112914Y-76967523D02*
X147303390Y-77015142D01*
X147303390Y-77015142D02*
X147446247Y-77015142D01*
X147446247Y-77015142D02*
X147636723Y-76967523D01*
X147636723Y-76967523D02*
X147731961Y-76919904D01*
X147731961Y-76919904D02*
X147827200Y-76824666D01*
X147827200Y-76824666D02*
X147874819Y-76681809D01*
X147874819Y-76681809D02*
X147874819Y-76443714D01*
X147874819Y-77967523D02*
X147874819Y-77396095D01*
X147874819Y-77681809D02*
X146874819Y-77681809D01*
X146874819Y-77681809D02*
X147017676Y-77586571D01*
X147017676Y-77586571D02*
X147112914Y-77491333D01*
X147112914Y-77491333D02*
X147160533Y-77396095D01*
X146970057Y-78348476D02*
X146922438Y-78396095D01*
X146922438Y-78396095D02*
X146874819Y-78491333D01*
X146874819Y-78491333D02*
X146874819Y-78729428D01*
X146874819Y-78729428D02*
X146922438Y-78824666D01*
X146922438Y-78824666D02*
X146970057Y-78872285D01*
X146970057Y-78872285D02*
X147065295Y-78919904D01*
X147065295Y-78919904D02*
X147160533Y-78919904D01*
X147160533Y-78919904D02*
X147303390Y-78872285D01*
X147303390Y-78872285D02*
X147874819Y-78300857D01*
X147874819Y-78300857D02*
X147874819Y-78919904D01*
X147704819Y-81206095D02*
X146704819Y-81206095D01*
X147704819Y-81777523D02*
X147133390Y-81348952D01*
X146704819Y-81777523D02*
X147276247Y-81206095D01*
X129110819Y-96096905D02*
X128110819Y-96096905D01*
X128110819Y-96096905D02*
X128110819Y-96335000D01*
X128110819Y-96335000D02*
X128158438Y-96477857D01*
X128158438Y-96477857D02*
X128253676Y-96573095D01*
X128253676Y-96573095D02*
X128348914Y-96620714D01*
X128348914Y-96620714D02*
X128539390Y-96668333D01*
X128539390Y-96668333D02*
X128682247Y-96668333D01*
X128682247Y-96668333D02*
X128872723Y-96620714D01*
X128872723Y-96620714D02*
X128967961Y-96573095D01*
X128967961Y-96573095D02*
X129063200Y-96477857D01*
X129063200Y-96477857D02*
X129110819Y-96335000D01*
X129110819Y-96335000D02*
X129110819Y-96096905D01*
X128539390Y-97239762D02*
X128491771Y-97144524D01*
X128491771Y-97144524D02*
X128444152Y-97096905D01*
X128444152Y-97096905D02*
X128348914Y-97049286D01*
X128348914Y-97049286D02*
X128301295Y-97049286D01*
X128301295Y-97049286D02*
X128206057Y-97096905D01*
X128206057Y-97096905D02*
X128158438Y-97144524D01*
X128158438Y-97144524D02*
X128110819Y-97239762D01*
X128110819Y-97239762D02*
X128110819Y-97430238D01*
X128110819Y-97430238D02*
X128158438Y-97525476D01*
X128158438Y-97525476D02*
X128206057Y-97573095D01*
X128206057Y-97573095D02*
X128301295Y-97620714D01*
X128301295Y-97620714D02*
X128348914Y-97620714D01*
X128348914Y-97620714D02*
X128444152Y-97573095D01*
X128444152Y-97573095D02*
X128491771Y-97525476D01*
X128491771Y-97525476D02*
X128539390Y-97430238D01*
X128539390Y-97430238D02*
X128539390Y-97239762D01*
X128539390Y-97239762D02*
X128587009Y-97144524D01*
X128587009Y-97144524D02*
X128634628Y-97096905D01*
X128634628Y-97096905D02*
X128729866Y-97049286D01*
X128729866Y-97049286D02*
X128920342Y-97049286D01*
X128920342Y-97049286D02*
X129015580Y-97096905D01*
X129015580Y-97096905D02*
X129063200Y-97144524D01*
X129063200Y-97144524D02*
X129110819Y-97239762D01*
X129110819Y-97239762D02*
X129110819Y-97430238D01*
X129110819Y-97430238D02*
X129063200Y-97525476D01*
X129063200Y-97525476D02*
X129015580Y-97573095D01*
X129015580Y-97573095D02*
X128920342Y-97620714D01*
X128920342Y-97620714D02*
X128729866Y-97620714D01*
X128729866Y-97620714D02*
X128634628Y-97573095D01*
X128634628Y-97573095D02*
X128587009Y-97525476D01*
X128587009Y-97525476D02*
X128539390Y-97430238D01*
X128940819Y-100383095D02*
X127940819Y-100383095D01*
X128940819Y-100954523D02*
X128369390Y-100525952D01*
X127940819Y-100954523D02*
X128512247Y-100383095D01*
X147874819Y-114797714D02*
X146874819Y-114797714D01*
X146874819Y-114797714D02*
X146874819Y-115035809D01*
X146874819Y-115035809D02*
X146922438Y-115178666D01*
X146922438Y-115178666D02*
X147017676Y-115273904D01*
X147017676Y-115273904D02*
X147112914Y-115321523D01*
X147112914Y-115321523D02*
X147303390Y-115369142D01*
X147303390Y-115369142D02*
X147446247Y-115369142D01*
X147446247Y-115369142D02*
X147636723Y-115321523D01*
X147636723Y-115321523D02*
X147731961Y-115273904D01*
X147731961Y-115273904D02*
X147827200Y-115178666D01*
X147827200Y-115178666D02*
X147874819Y-115035809D01*
X147874819Y-115035809D02*
X147874819Y-114797714D01*
X147874819Y-116321523D02*
X147874819Y-115750095D01*
X147874819Y-116035809D02*
X146874819Y-116035809D01*
X146874819Y-116035809D02*
X147017676Y-115940571D01*
X147017676Y-115940571D02*
X147112914Y-115845333D01*
X147112914Y-115845333D02*
X147160533Y-115750095D01*
X147208152Y-117178666D02*
X147874819Y-117178666D01*
X146827200Y-116940571D02*
X147541485Y-116702476D01*
X147541485Y-116702476D02*
X147541485Y-117321523D01*
X147704819Y-119560095D02*
X146704819Y-119560095D01*
X147704819Y-120131523D02*
X147133390Y-119702952D01*
X146704819Y-120131523D02*
X147276247Y-119560095D01*
X109933819Y-134450905D02*
X108933819Y-134450905D01*
X108933819Y-134450905D02*
X108933819Y-134689000D01*
X108933819Y-134689000D02*
X108981438Y-134831857D01*
X108981438Y-134831857D02*
X109076676Y-134927095D01*
X109076676Y-134927095D02*
X109171914Y-134974714D01*
X109171914Y-134974714D02*
X109362390Y-135022333D01*
X109362390Y-135022333D02*
X109505247Y-135022333D01*
X109505247Y-135022333D02*
X109695723Y-134974714D01*
X109695723Y-134974714D02*
X109790961Y-134927095D01*
X109790961Y-134927095D02*
X109886200Y-134831857D01*
X109886200Y-134831857D02*
X109933819Y-134689000D01*
X109933819Y-134689000D02*
X109933819Y-134450905D01*
X108933819Y-135927095D02*
X108933819Y-135450905D01*
X108933819Y-135450905D02*
X109410009Y-135403286D01*
X109410009Y-135403286D02*
X109362390Y-135450905D01*
X109362390Y-135450905D02*
X109314771Y-135546143D01*
X109314771Y-135546143D02*
X109314771Y-135784238D01*
X109314771Y-135784238D02*
X109362390Y-135879476D01*
X109362390Y-135879476D02*
X109410009Y-135927095D01*
X109410009Y-135927095D02*
X109505247Y-135974714D01*
X109505247Y-135974714D02*
X109743342Y-135974714D01*
X109743342Y-135974714D02*
X109838580Y-135927095D01*
X109838580Y-135927095D02*
X109886200Y-135879476D01*
X109886200Y-135879476D02*
X109933819Y-135784238D01*
X109933819Y-135784238D02*
X109933819Y-135546143D01*
X109933819Y-135546143D02*
X109886200Y-135450905D01*
X109886200Y-135450905D02*
X109838580Y-135403286D01*
X109763819Y-138737095D02*
X108763819Y-138737095D01*
X109763819Y-139308523D02*
X109192390Y-138879952D01*
X108763819Y-139308523D02*
X109335247Y-138737095D01*
X148287819Y-57266714D02*
X147287819Y-57266714D01*
X147287819Y-57266714D02*
X147287819Y-57504809D01*
X147287819Y-57504809D02*
X147335438Y-57647666D01*
X147335438Y-57647666D02*
X147430676Y-57742904D01*
X147430676Y-57742904D02*
X147525914Y-57790523D01*
X147525914Y-57790523D02*
X147716390Y-57838142D01*
X147716390Y-57838142D02*
X147859247Y-57838142D01*
X147859247Y-57838142D02*
X148049723Y-57790523D01*
X148049723Y-57790523D02*
X148144961Y-57742904D01*
X148144961Y-57742904D02*
X148240200Y-57647666D01*
X148240200Y-57647666D02*
X148287819Y-57504809D01*
X148287819Y-57504809D02*
X148287819Y-57266714D01*
X148287819Y-58790523D02*
X148287819Y-58219095D01*
X148287819Y-58504809D02*
X147287819Y-58504809D01*
X147287819Y-58504809D02*
X147430676Y-58409571D01*
X147430676Y-58409571D02*
X147525914Y-58314333D01*
X147525914Y-58314333D02*
X147573533Y-58219095D01*
X148287819Y-59742904D02*
X148287819Y-59171476D01*
X148287819Y-59457190D02*
X147287819Y-59457190D01*
X147287819Y-59457190D02*
X147430676Y-59361952D01*
X147430676Y-59361952D02*
X147525914Y-59266714D01*
X147525914Y-59266714D02*
X147573533Y-59171476D01*
X148117819Y-62029095D02*
X147117819Y-62029095D01*
X148117819Y-62600523D02*
X147546390Y-62171952D01*
X147117819Y-62600523D02*
X147689247Y-62029095D01*
X128983819Y-57742905D02*
X127983819Y-57742905D01*
X127983819Y-57742905D02*
X127983819Y-57981000D01*
X127983819Y-57981000D02*
X128031438Y-58123857D01*
X128031438Y-58123857D02*
X128126676Y-58219095D01*
X128126676Y-58219095D02*
X128221914Y-58266714D01*
X128221914Y-58266714D02*
X128412390Y-58314333D01*
X128412390Y-58314333D02*
X128555247Y-58314333D01*
X128555247Y-58314333D02*
X128745723Y-58266714D01*
X128745723Y-58266714D02*
X128840961Y-58219095D01*
X128840961Y-58219095D02*
X128936200Y-58123857D01*
X128936200Y-58123857D02*
X128983819Y-57981000D01*
X128983819Y-57981000D02*
X128983819Y-57742905D01*
X127983819Y-59171476D02*
X127983819Y-58981000D01*
X127983819Y-58981000D02*
X128031438Y-58885762D01*
X128031438Y-58885762D02*
X128079057Y-58838143D01*
X128079057Y-58838143D02*
X128221914Y-58742905D01*
X128221914Y-58742905D02*
X128412390Y-58695286D01*
X128412390Y-58695286D02*
X128793342Y-58695286D01*
X128793342Y-58695286D02*
X128888580Y-58742905D01*
X128888580Y-58742905D02*
X128936200Y-58790524D01*
X128936200Y-58790524D02*
X128983819Y-58885762D01*
X128983819Y-58885762D02*
X128983819Y-59076238D01*
X128983819Y-59076238D02*
X128936200Y-59171476D01*
X128936200Y-59171476D02*
X128888580Y-59219095D01*
X128888580Y-59219095D02*
X128793342Y-59266714D01*
X128793342Y-59266714D02*
X128555247Y-59266714D01*
X128555247Y-59266714D02*
X128460009Y-59219095D01*
X128460009Y-59219095D02*
X128412390Y-59171476D01*
X128412390Y-59171476D02*
X128364771Y-59076238D01*
X128364771Y-59076238D02*
X128364771Y-58885762D01*
X128364771Y-58885762D02*
X128412390Y-58790524D01*
X128412390Y-58790524D02*
X128460009Y-58742905D01*
X128460009Y-58742905D02*
X128555247Y-58695286D01*
X128813819Y-62029095D02*
X127813819Y-62029095D01*
X128813819Y-62600523D02*
X128242390Y-62171952D01*
X127813819Y-62600523D02*
X128385247Y-62029095D01*
X129110819Y-133974714D02*
X128110819Y-133974714D01*
X128110819Y-133974714D02*
X128110819Y-134212809D01*
X128110819Y-134212809D02*
X128158438Y-134355666D01*
X128158438Y-134355666D02*
X128253676Y-134450904D01*
X128253676Y-134450904D02*
X128348914Y-134498523D01*
X128348914Y-134498523D02*
X128539390Y-134546142D01*
X128539390Y-134546142D02*
X128682247Y-134546142D01*
X128682247Y-134546142D02*
X128872723Y-134498523D01*
X128872723Y-134498523D02*
X128967961Y-134450904D01*
X128967961Y-134450904D02*
X129063200Y-134355666D01*
X129063200Y-134355666D02*
X129110819Y-134212809D01*
X129110819Y-134212809D02*
X129110819Y-133974714D01*
X129110819Y-135498523D02*
X129110819Y-134927095D01*
X129110819Y-135212809D02*
X128110819Y-135212809D01*
X128110819Y-135212809D02*
X128253676Y-135117571D01*
X128253676Y-135117571D02*
X128348914Y-135022333D01*
X128348914Y-135022333D02*
X128396533Y-134927095D01*
X128110819Y-136117571D02*
X128110819Y-136212809D01*
X128110819Y-136212809D02*
X128158438Y-136308047D01*
X128158438Y-136308047D02*
X128206057Y-136355666D01*
X128206057Y-136355666D02*
X128301295Y-136403285D01*
X128301295Y-136403285D02*
X128491771Y-136450904D01*
X128491771Y-136450904D02*
X128729866Y-136450904D01*
X128729866Y-136450904D02*
X128920342Y-136403285D01*
X128920342Y-136403285D02*
X129015580Y-136355666D01*
X129015580Y-136355666D02*
X129063200Y-136308047D01*
X129063200Y-136308047D02*
X129110819Y-136212809D01*
X129110819Y-136212809D02*
X129110819Y-136117571D01*
X129110819Y-136117571D02*
X129063200Y-136022333D01*
X129063200Y-136022333D02*
X129015580Y-135974714D01*
X129015580Y-135974714D02*
X128920342Y-135927095D01*
X128920342Y-135927095D02*
X128729866Y-135879476D01*
X128729866Y-135879476D02*
X128491771Y-135879476D01*
X128491771Y-135879476D02*
X128301295Y-135927095D01*
X128301295Y-135927095D02*
X128206057Y-135974714D01*
X128206057Y-135974714D02*
X128158438Y-136022333D01*
X128158438Y-136022333D02*
X128110819Y-136117571D01*
X128940819Y-138737095D02*
X127940819Y-138737095D01*
X128940819Y-139308523D02*
X128369390Y-138879952D01*
X127940819Y-139308523D02*
X128512247Y-138737095D01*
X109933819Y-76919905D02*
X108933819Y-76919905D01*
X108933819Y-76919905D02*
X108933819Y-77158000D01*
X108933819Y-77158000D02*
X108981438Y-77300857D01*
X108981438Y-77300857D02*
X109076676Y-77396095D01*
X109076676Y-77396095D02*
X109171914Y-77443714D01*
X109171914Y-77443714D02*
X109362390Y-77491333D01*
X109362390Y-77491333D02*
X109505247Y-77491333D01*
X109505247Y-77491333D02*
X109695723Y-77443714D01*
X109695723Y-77443714D02*
X109790961Y-77396095D01*
X109790961Y-77396095D02*
X109886200Y-77300857D01*
X109886200Y-77300857D02*
X109933819Y-77158000D01*
X109933819Y-77158000D02*
X109933819Y-76919905D01*
X109029057Y-77872286D02*
X108981438Y-77919905D01*
X108981438Y-77919905D02*
X108933819Y-78015143D01*
X108933819Y-78015143D02*
X108933819Y-78253238D01*
X108933819Y-78253238D02*
X108981438Y-78348476D01*
X108981438Y-78348476D02*
X109029057Y-78396095D01*
X109029057Y-78396095D02*
X109124295Y-78443714D01*
X109124295Y-78443714D02*
X109219533Y-78443714D01*
X109219533Y-78443714D02*
X109362390Y-78396095D01*
X109362390Y-78396095D02*
X109933819Y-77824667D01*
X109933819Y-77824667D02*
X109933819Y-78443714D01*
X109763819Y-81206095D02*
X108763819Y-81206095D01*
X109763819Y-81777523D02*
X109192390Y-81348952D01*
X108763819Y-81777523D02*
X109335247Y-81206095D01*
X167337819Y-57266714D02*
X166337819Y-57266714D01*
X166337819Y-57266714D02*
X166337819Y-57504809D01*
X166337819Y-57504809D02*
X166385438Y-57647666D01*
X166385438Y-57647666D02*
X166480676Y-57742904D01*
X166480676Y-57742904D02*
X166575914Y-57790523D01*
X166575914Y-57790523D02*
X166766390Y-57838142D01*
X166766390Y-57838142D02*
X166909247Y-57838142D01*
X166909247Y-57838142D02*
X167099723Y-57790523D01*
X167099723Y-57790523D02*
X167194961Y-57742904D01*
X167194961Y-57742904D02*
X167290200Y-57647666D01*
X167290200Y-57647666D02*
X167337819Y-57504809D01*
X167337819Y-57504809D02*
X167337819Y-57266714D01*
X167337819Y-58790523D02*
X167337819Y-58219095D01*
X167337819Y-58504809D02*
X166337819Y-58504809D01*
X166337819Y-58504809D02*
X166480676Y-58409571D01*
X166480676Y-58409571D02*
X166575914Y-58314333D01*
X166575914Y-58314333D02*
X166623533Y-58219095D01*
X166337819Y-59647666D02*
X166337819Y-59457190D01*
X166337819Y-59457190D02*
X166385438Y-59361952D01*
X166385438Y-59361952D02*
X166433057Y-59314333D01*
X166433057Y-59314333D02*
X166575914Y-59219095D01*
X166575914Y-59219095D02*
X166766390Y-59171476D01*
X166766390Y-59171476D02*
X167147342Y-59171476D01*
X167147342Y-59171476D02*
X167242580Y-59219095D01*
X167242580Y-59219095D02*
X167290200Y-59266714D01*
X167290200Y-59266714D02*
X167337819Y-59361952D01*
X167337819Y-59361952D02*
X167337819Y-59552428D01*
X167337819Y-59552428D02*
X167290200Y-59647666D01*
X167290200Y-59647666D02*
X167242580Y-59695285D01*
X167242580Y-59695285D02*
X167147342Y-59742904D01*
X167147342Y-59742904D02*
X166909247Y-59742904D01*
X166909247Y-59742904D02*
X166814009Y-59695285D01*
X166814009Y-59695285D02*
X166766390Y-59647666D01*
X166766390Y-59647666D02*
X166718771Y-59552428D01*
X166718771Y-59552428D02*
X166718771Y-59361952D01*
X166718771Y-59361952D02*
X166766390Y-59266714D01*
X166766390Y-59266714D02*
X166814009Y-59219095D01*
X166814009Y-59219095D02*
X166909247Y-59171476D01*
X167167819Y-62029095D02*
X166167819Y-62029095D01*
X167167819Y-62600523D02*
X166596390Y-62171952D01*
X166167819Y-62600523D02*
X166739247Y-62029095D01*
X129364819Y-76919905D02*
X128364819Y-76919905D01*
X128364819Y-76919905D02*
X128364819Y-77158000D01*
X128364819Y-77158000D02*
X128412438Y-77300857D01*
X128412438Y-77300857D02*
X128507676Y-77396095D01*
X128507676Y-77396095D02*
X128602914Y-77443714D01*
X128602914Y-77443714D02*
X128793390Y-77491333D01*
X128793390Y-77491333D02*
X128936247Y-77491333D01*
X128936247Y-77491333D02*
X129126723Y-77443714D01*
X129126723Y-77443714D02*
X129221961Y-77396095D01*
X129221961Y-77396095D02*
X129317200Y-77300857D01*
X129317200Y-77300857D02*
X129364819Y-77158000D01*
X129364819Y-77158000D02*
X129364819Y-76919905D01*
X128364819Y-77824667D02*
X128364819Y-78491333D01*
X128364819Y-78491333D02*
X129364819Y-78062762D01*
X129194819Y-81206095D02*
X128194819Y-81206095D01*
X129194819Y-81777523D02*
X128623390Y-81348952D01*
X128194819Y-81777523D02*
X128766247Y-81206095D01*
X109806819Y-57742905D02*
X108806819Y-57742905D01*
X108806819Y-57742905D02*
X108806819Y-57981000D01*
X108806819Y-57981000D02*
X108854438Y-58123857D01*
X108854438Y-58123857D02*
X108949676Y-58219095D01*
X108949676Y-58219095D02*
X109044914Y-58266714D01*
X109044914Y-58266714D02*
X109235390Y-58314333D01*
X109235390Y-58314333D02*
X109378247Y-58314333D01*
X109378247Y-58314333D02*
X109568723Y-58266714D01*
X109568723Y-58266714D02*
X109663961Y-58219095D01*
X109663961Y-58219095D02*
X109759200Y-58123857D01*
X109759200Y-58123857D02*
X109806819Y-57981000D01*
X109806819Y-57981000D02*
X109806819Y-57742905D01*
X109806819Y-59266714D02*
X109806819Y-58695286D01*
X109806819Y-58981000D02*
X108806819Y-58981000D01*
X108806819Y-58981000D02*
X108949676Y-58885762D01*
X108949676Y-58885762D02*
X109044914Y-58790524D01*
X109044914Y-58790524D02*
X109092533Y-58695286D01*
X109636819Y-62029095D02*
X108636819Y-62029095D01*
X109636819Y-62600523D02*
X109065390Y-62171952D01*
X108636819Y-62600523D02*
X109208247Y-62029095D01*
D11*
X131371337Y-35767573D02*
X131514195Y-35696144D01*
X131514195Y-35696144D02*
X131728480Y-35696144D01*
X131728480Y-35696144D02*
X131942766Y-35767573D01*
X131942766Y-35767573D02*
X132085623Y-35910430D01*
X132085623Y-35910430D02*
X132157052Y-36053287D01*
X132157052Y-36053287D02*
X132228480Y-36339001D01*
X132228480Y-36339001D02*
X132228480Y-36553287D01*
X132228480Y-36553287D02*
X132157052Y-36839001D01*
X132157052Y-36839001D02*
X132085623Y-36981858D01*
X132085623Y-36981858D02*
X131942766Y-37124716D01*
X131942766Y-37124716D02*
X131728480Y-37196144D01*
X131728480Y-37196144D02*
X131585623Y-37196144D01*
X131585623Y-37196144D02*
X131371337Y-37124716D01*
X131371337Y-37124716D02*
X131299909Y-37053287D01*
X131299909Y-37053287D02*
X131299909Y-36553287D01*
X131299909Y-36553287D02*
X131585623Y-36553287D01*
X130442766Y-35696144D02*
X130442766Y-36053287D01*
X130799909Y-35910430D02*
X130442766Y-36053287D01*
X130442766Y-36053287D02*
X130085623Y-35910430D01*
X130657052Y-36339001D02*
X130442766Y-36053287D01*
X130442766Y-36053287D02*
X130228480Y-36339001D01*
X129299909Y-35696144D02*
X129299909Y-36053287D01*
X129657052Y-35910430D02*
X129299909Y-36053287D01*
X129299909Y-36053287D02*
X128942766Y-35910430D01*
X129514195Y-36339001D02*
X129299909Y-36053287D01*
X129299909Y-36053287D02*
X129085623Y-36339001D01*
X128157052Y-35696144D02*
X128157052Y-36053287D01*
X128514195Y-35910430D02*
X128157052Y-36053287D01*
X128157052Y-36053287D02*
X127799909Y-35910430D01*
X128371338Y-36339001D02*
X128157052Y-36053287D01*
X128157052Y-36053287D02*
X127942766Y-36339001D01*
D10*
X129110819Y-115273905D02*
X128110819Y-115273905D01*
X128110819Y-115273905D02*
X128110819Y-115512000D01*
X128110819Y-115512000D02*
X128158438Y-115654857D01*
X128158438Y-115654857D02*
X128253676Y-115750095D01*
X128253676Y-115750095D02*
X128348914Y-115797714D01*
X128348914Y-115797714D02*
X128539390Y-115845333D01*
X128539390Y-115845333D02*
X128682247Y-115845333D01*
X128682247Y-115845333D02*
X128872723Y-115797714D01*
X128872723Y-115797714D02*
X128967961Y-115750095D01*
X128967961Y-115750095D02*
X129063200Y-115654857D01*
X129063200Y-115654857D02*
X129110819Y-115512000D01*
X129110819Y-115512000D02*
X129110819Y-115273905D01*
X129110819Y-116321524D02*
X129110819Y-116512000D01*
X129110819Y-116512000D02*
X129063200Y-116607238D01*
X129063200Y-116607238D02*
X129015580Y-116654857D01*
X129015580Y-116654857D02*
X128872723Y-116750095D01*
X128872723Y-116750095D02*
X128682247Y-116797714D01*
X128682247Y-116797714D02*
X128301295Y-116797714D01*
X128301295Y-116797714D02*
X128206057Y-116750095D01*
X128206057Y-116750095D02*
X128158438Y-116702476D01*
X128158438Y-116702476D02*
X128110819Y-116607238D01*
X128110819Y-116607238D02*
X128110819Y-116416762D01*
X128110819Y-116416762D02*
X128158438Y-116321524D01*
X128158438Y-116321524D02*
X128206057Y-116273905D01*
X128206057Y-116273905D02*
X128301295Y-116226286D01*
X128301295Y-116226286D02*
X128539390Y-116226286D01*
X128539390Y-116226286D02*
X128634628Y-116273905D01*
X128634628Y-116273905D02*
X128682247Y-116321524D01*
X128682247Y-116321524D02*
X128729866Y-116416762D01*
X128729866Y-116416762D02*
X128729866Y-116607238D01*
X128729866Y-116607238D02*
X128682247Y-116702476D01*
X128682247Y-116702476D02*
X128634628Y-116750095D01*
X128634628Y-116750095D02*
X128539390Y-116797714D01*
X128940819Y-119560095D02*
X127940819Y-119560095D01*
X128940819Y-120131523D02*
X128369390Y-119702952D01*
X127940819Y-120131523D02*
X128512247Y-119560095D01*
X147874819Y-95595714D02*
X146874819Y-95595714D01*
X146874819Y-95595714D02*
X146874819Y-95833809D01*
X146874819Y-95833809D02*
X146922438Y-95976666D01*
X146922438Y-95976666D02*
X147017676Y-96071904D01*
X147017676Y-96071904D02*
X147112914Y-96119523D01*
X147112914Y-96119523D02*
X147303390Y-96167142D01*
X147303390Y-96167142D02*
X147446247Y-96167142D01*
X147446247Y-96167142D02*
X147636723Y-96119523D01*
X147636723Y-96119523D02*
X147731961Y-96071904D01*
X147731961Y-96071904D02*
X147827200Y-95976666D01*
X147827200Y-95976666D02*
X147874819Y-95833809D01*
X147874819Y-95833809D02*
X147874819Y-95595714D01*
X147874819Y-97119523D02*
X147874819Y-96548095D01*
X147874819Y-96833809D02*
X146874819Y-96833809D01*
X146874819Y-96833809D02*
X147017676Y-96738571D01*
X147017676Y-96738571D02*
X147112914Y-96643333D01*
X147112914Y-96643333D02*
X147160533Y-96548095D01*
X146874819Y-97452857D02*
X146874819Y-98071904D01*
X146874819Y-98071904D02*
X147255771Y-97738571D01*
X147255771Y-97738571D02*
X147255771Y-97881428D01*
X147255771Y-97881428D02*
X147303390Y-97976666D01*
X147303390Y-97976666D02*
X147351009Y-98024285D01*
X147351009Y-98024285D02*
X147446247Y-98071904D01*
X147446247Y-98071904D02*
X147684342Y-98071904D01*
X147684342Y-98071904D02*
X147779580Y-98024285D01*
X147779580Y-98024285D02*
X147827200Y-97976666D01*
X147827200Y-97976666D02*
X147874819Y-97881428D01*
X147874819Y-97881428D02*
X147874819Y-97595714D01*
X147874819Y-97595714D02*
X147827200Y-97500476D01*
X147827200Y-97500476D02*
X147779580Y-97452857D01*
X147704819Y-100358095D02*
X146704819Y-100358095D01*
X147704819Y-100929523D02*
X147133390Y-100500952D01*
X146704819Y-100929523D02*
X147276247Y-100358095D01*
%TO.C,D15*%
D13*
X144580000Y-133549000D02*
X146420000Y-133549000D01*
X146420000Y-136829000D01*
X144580000Y-136829000D01*
X144580000Y-133549000D01*
X146420000Y-136373000D02*
X144580000Y-136373000D01*
X146420000Y-136253000D02*
X144580000Y-136253000D01*
X146420000Y-136133000D02*
X144580000Y-136133000D01*
X145500000Y-138009000D02*
X145500000Y-136829000D01*
X145500000Y-132369000D02*
X145500000Y-133549000D01*
%TO.C,D3*%
X107559000Y-94015000D02*
X107559000Y-95195000D01*
X107559000Y-99655000D02*
X107559000Y-98475000D01*
X108479000Y-97779000D02*
X106639000Y-97779000D01*
X108479000Y-97899000D02*
X106639000Y-97899000D01*
X108479000Y-98019000D02*
X106639000Y-98019000D01*
X106639000Y-95195000D02*
X108479000Y-95195000D01*
X108479000Y-98475000D01*
X106639000Y-98475000D01*
X106639000Y-95195000D01*
%TO.C,D4*%
X107559000Y-113192000D02*
X107559000Y-114372000D01*
X107559000Y-118832000D02*
X107559000Y-117652000D01*
X108479000Y-116956000D02*
X106639000Y-116956000D01*
X108479000Y-117076000D02*
X106639000Y-117076000D01*
X108479000Y-117196000D02*
X106639000Y-117196000D01*
X106639000Y-114372000D02*
X108479000Y-114372000D01*
X108479000Y-117652000D01*
X106639000Y-117652000D01*
X106639000Y-114372000D01*
%TO.C,D17*%
X164170000Y-83962000D02*
X166010000Y-83962000D01*
X164170000Y-84082000D02*
X166010000Y-84082000D01*
X164170000Y-84202000D02*
X166010000Y-84202000D01*
X165090000Y-82326000D02*
X165090000Y-83506000D01*
X165090000Y-87966000D02*
X165090000Y-86786000D01*
X164170000Y-83506000D02*
X166010000Y-83506000D01*
X166010000Y-86786000D01*
X164170000Y-86786000D01*
X164170000Y-83506000D01*
%TO.C,D18*%
X164170000Y-122321000D02*
X166010000Y-122321000D01*
X164170000Y-122441000D02*
X166010000Y-122441000D01*
X164170000Y-122561000D02*
X166010000Y-122561000D01*
X165090000Y-120685000D02*
X165090000Y-121865000D01*
X165090000Y-126325000D02*
X165090000Y-125145000D01*
X164170000Y-121865000D02*
X166010000Y-121865000D01*
X166010000Y-125145000D01*
X164170000Y-125145000D01*
X164170000Y-121865000D01*
%TO.C,D12*%
X145500000Y-74838000D02*
X145500000Y-76018000D01*
X145500000Y-80478000D02*
X145500000Y-79298000D01*
X146420000Y-78602000D02*
X144580000Y-78602000D01*
X146420000Y-78722000D02*
X144580000Y-78722000D01*
X146420000Y-78842000D02*
X144580000Y-78842000D01*
X144580000Y-76018000D02*
X146420000Y-76018000D01*
X146420000Y-79298000D01*
X144580000Y-79298000D01*
X144580000Y-76018000D01*
%TO.C,D8*%
X126736000Y-94015000D02*
X126736000Y-95195000D01*
X126736000Y-99655000D02*
X126736000Y-98475000D01*
X127656000Y-97779000D02*
X125816000Y-97779000D01*
X127656000Y-97899000D02*
X125816000Y-97899000D01*
X127656000Y-98019000D02*
X125816000Y-98019000D01*
X125816000Y-95195000D02*
X127656000Y-95195000D01*
X127656000Y-98475000D01*
X125816000Y-98475000D01*
X125816000Y-95195000D01*
%TO.C,D14*%
X145500000Y-113192000D02*
X145500000Y-114372000D01*
X145500000Y-118832000D02*
X145500000Y-117652000D01*
X146420000Y-116956000D02*
X144580000Y-116956000D01*
X146420000Y-117076000D02*
X144580000Y-117076000D01*
X146420000Y-117196000D02*
X144580000Y-117196000D01*
X144580000Y-114372000D02*
X146420000Y-114372000D01*
X146420000Y-117652000D01*
X144580000Y-117652000D01*
X144580000Y-114372000D01*
%TO.C,D5*%
X107559000Y-132369000D02*
X107559000Y-133549000D01*
X107559000Y-138009000D02*
X107559000Y-136829000D01*
X108479000Y-136133000D02*
X106639000Y-136133000D01*
X108479000Y-136253000D02*
X106639000Y-136253000D01*
X108479000Y-136373000D02*
X106639000Y-136373000D01*
X106639000Y-133549000D02*
X108479000Y-133549000D01*
X108479000Y-136829000D01*
X106639000Y-136829000D01*
X106639000Y-133549000D01*
%TO.C,D11*%
X145913000Y-55661000D02*
X145913000Y-56841000D01*
X145913000Y-61301000D02*
X145913000Y-60121000D01*
X146833000Y-59425000D02*
X144993000Y-59425000D01*
X146833000Y-59545000D02*
X144993000Y-59545000D01*
X146833000Y-59665000D02*
X144993000Y-59665000D01*
X144993000Y-56841000D02*
X146833000Y-56841000D01*
X146833000Y-60121000D01*
X144993000Y-60121000D01*
X144993000Y-56841000D01*
%TO.C,D6*%
X126609000Y-55661000D02*
X126609000Y-56841000D01*
X126609000Y-61301000D02*
X126609000Y-60121000D01*
X127529000Y-59425000D02*
X125689000Y-59425000D01*
X127529000Y-59545000D02*
X125689000Y-59545000D01*
X127529000Y-59665000D02*
X125689000Y-59665000D01*
X125689000Y-56841000D02*
X127529000Y-56841000D01*
X127529000Y-60121000D01*
X125689000Y-60121000D01*
X125689000Y-56841000D01*
%TO.C,D10*%
X126736000Y-132369000D02*
X126736000Y-133549000D01*
X126736000Y-138009000D02*
X126736000Y-136829000D01*
X127656000Y-136133000D02*
X125816000Y-136133000D01*
X127656000Y-136253000D02*
X125816000Y-136253000D01*
X127656000Y-136373000D02*
X125816000Y-136373000D01*
X125816000Y-133549000D02*
X127656000Y-133549000D01*
X127656000Y-136829000D01*
X125816000Y-136829000D01*
X125816000Y-133549000D01*
%TO.C,D2*%
X107559000Y-74838000D02*
X107559000Y-76018000D01*
X107559000Y-80478000D02*
X107559000Y-79298000D01*
X108479000Y-78602000D02*
X106639000Y-78602000D01*
X108479000Y-78722000D02*
X106639000Y-78722000D01*
X108479000Y-78842000D02*
X106639000Y-78842000D01*
X106639000Y-76018000D02*
X108479000Y-76018000D01*
X108479000Y-79298000D01*
X106639000Y-79298000D01*
X106639000Y-76018000D01*
%TO.C,D16*%
X164963000Y-55661000D02*
X164963000Y-56841000D01*
X164963000Y-61301000D02*
X164963000Y-60121000D01*
X165883000Y-59425000D02*
X164043000Y-59425000D01*
X165883000Y-59545000D02*
X164043000Y-59545000D01*
X165883000Y-59665000D02*
X164043000Y-59665000D01*
X164043000Y-56841000D02*
X165883000Y-56841000D01*
X165883000Y-60121000D01*
X164043000Y-60121000D01*
X164043000Y-56841000D01*
%TO.C,D7*%
X126990000Y-74838000D02*
X126990000Y-76018000D01*
X126990000Y-80478000D02*
X126990000Y-79298000D01*
X127910000Y-78602000D02*
X126070000Y-78602000D01*
X127910000Y-78722000D02*
X126070000Y-78722000D01*
X127910000Y-78842000D02*
X126070000Y-78842000D01*
X126070000Y-76018000D02*
X127910000Y-76018000D01*
X127910000Y-79298000D01*
X126070000Y-79298000D01*
X126070000Y-76018000D01*
%TO.C,D1*%
X107432000Y-55661000D02*
X107432000Y-56841000D01*
X107432000Y-61301000D02*
X107432000Y-60121000D01*
X108352000Y-59425000D02*
X106512000Y-59425000D01*
X108352000Y-59545000D02*
X106512000Y-59545000D01*
X108352000Y-59665000D02*
X106512000Y-59665000D01*
X106512000Y-56841000D02*
X108352000Y-56841000D01*
X108352000Y-60121000D01*
X106512000Y-60121000D01*
X106512000Y-56841000D01*
D14*
%TO.C,G\u002A\u002A\u002A*%
G36*
X125346207Y-36988186D02*
G01*
X125189417Y-37144976D01*
X125032627Y-36988186D01*
X125189417Y-36831396D01*
X125346207Y-36988186D01*
G37*
G36*
X125973367Y-36988186D02*
G01*
X125816577Y-37144976D01*
X125659787Y-36988186D01*
X125816577Y-36831396D01*
X125973367Y-36988186D01*
G37*
G36*
X138830158Y-37301766D02*
G01*
X138673367Y-37458556D01*
X138516577Y-37301766D01*
X138673367Y-37144976D01*
X138830158Y-37301766D01*
G37*
G36*
X126496001Y-37563083D02*
G01*
X126545060Y-37657402D01*
X126286948Y-37772136D01*
X126120939Y-37749506D01*
X126077894Y-37563083D01*
X126123855Y-37525553D01*
X126496001Y-37563083D01*
G37*
G36*
X137889417Y-36517815D02*
G01*
X137866786Y-36683824D01*
X137680363Y-36726869D01*
X137642834Y-36680908D01*
X137680363Y-36308762D01*
X137774683Y-36259703D01*
X137889417Y-36517815D01*
G37*
G36*
X138516577Y-36517815D02*
G01*
X138493947Y-36683824D01*
X138307524Y-36726869D01*
X138269994Y-36680908D01*
X138307524Y-36308762D01*
X138401843Y-36259703D01*
X138516577Y-36517815D01*
G37*
G36*
X125421160Y-37781249D02*
G01*
X125659787Y-38085717D01*
X125650675Y-38160670D01*
X125346207Y-38399297D01*
X125271253Y-38390185D01*
X125032627Y-38085717D01*
X125041739Y-38010763D01*
X125346207Y-37772136D01*
X125421160Y-37781249D01*
G37*
G36*
X128556963Y-36526928D02*
G01*
X128795590Y-36831396D01*
X128786477Y-36906349D01*
X128482009Y-37144976D01*
X128407056Y-37135864D01*
X128168429Y-36831396D01*
X128177541Y-36756442D01*
X128482009Y-36517815D01*
X128556963Y-36526928D01*
G37*
G36*
X134270710Y-35630142D02*
G01*
X134440034Y-36047445D01*
X134404656Y-36263829D01*
X134126454Y-36517815D01*
X133982198Y-36464748D01*
X133812874Y-36047445D01*
X133848252Y-35831061D01*
X134126454Y-35577075D01*
X134270710Y-35630142D01*
G37*
G36*
X137964370Y-37154088D02*
G01*
X138202997Y-37458556D01*
X138193885Y-37533510D01*
X137889417Y-37772136D01*
X137814463Y-37763024D01*
X137575837Y-37458556D01*
X137584949Y-37383603D01*
X137889417Y-37144976D01*
X137964370Y-37154088D01*
G37*
G36*
X133000204Y-36761248D02*
G01*
X132766065Y-36993549D01*
X132088182Y-37234953D01*
X132009116Y-37253934D01*
X131334952Y-37395842D01*
X131019775Y-37365016D01*
X130833861Y-37144976D01*
X130790707Y-37003901D01*
X131050540Y-36795641D01*
X131563969Y-36743962D01*
X132370954Y-36653981D01*
X132741752Y-36638409D01*
X133000204Y-36761248D01*
G37*
G36*
X139984658Y-37645561D02*
G01*
X139762319Y-38733589D01*
X139381231Y-39653618D01*
X129698287Y-39653618D01*
X128584374Y-39652714D01*
X126280851Y-39644797D01*
X124226735Y-39629596D01*
X122497576Y-39608176D01*
X121168924Y-39581601D01*
X120316330Y-39550935D01*
X120015343Y-39517242D01*
X120061009Y-39244299D01*
X120148777Y-39026457D01*
X120620437Y-39026457D01*
X123585567Y-39026457D01*
X126550697Y-39026457D01*
X126760139Y-38072873D01*
X126818911Y-37364810D01*
X126546053Y-36596119D01*
X125962533Y-36243652D01*
X125208433Y-36369577D01*
X124423834Y-37036058D01*
X124350952Y-37125907D01*
X123870218Y-37584962D01*
X123563624Y-37661982D01*
X123529370Y-37569701D01*
X123721923Y-37137618D01*
X124202058Y-36571739D01*
X124809496Y-36042886D01*
X125383960Y-35721882D01*
X125863264Y-35686633D01*
X126618128Y-35900074D01*
X127014349Y-36204873D01*
X127194658Y-36723365D01*
X127176478Y-37642138D01*
X127066379Y-39026457D01*
X133099084Y-39026457D01*
X139131789Y-39026457D01*
X139339601Y-38198470D01*
X139364679Y-38091104D01*
X139401467Y-37039112D01*
X139089412Y-36227442D01*
X138534291Y-35751701D01*
X137841881Y-35707495D01*
X137117959Y-36190431D01*
X136647925Y-36619948D01*
X136224313Y-36831396D01*
X136148917Y-36682198D01*
X136429705Y-36257939D01*
X136684990Y-35949554D01*
X136884440Y-35488834D01*
X136742252Y-35006264D01*
X136206181Y-34382218D01*
X135223985Y-33497067D01*
X135141093Y-33425020D01*
X134310780Y-32644463D01*
X133722615Y-31986735D01*
X133499293Y-31587672D01*
X133495494Y-31515794D01*
X133206369Y-31075856D01*
X132627182Y-30977724D01*
X131998108Y-31271915D01*
X131671142Y-31465693D01*
X130803968Y-31759661D01*
X129736330Y-31968019D01*
X129134887Y-32064848D01*
X127822860Y-32373988D01*
X126728573Y-32746169D01*
X126265405Y-32942741D01*
X125636792Y-33137964D01*
X125196473Y-33065456D01*
X124690301Y-32722230D01*
X124065242Y-32317144D01*
X123578019Y-32134665D01*
X123461638Y-32177052D01*
X123189077Y-32629756D01*
X122993054Y-33399393D01*
X122918081Y-34262348D01*
X123008667Y-34995008D01*
X123044988Y-35152734D01*
X122907594Y-35808748D01*
X122279125Y-36627597D01*
X122096829Y-36826110D01*
X121432240Y-37639157D01*
X120982678Y-38320902D01*
X120620437Y-39026457D01*
X120148777Y-39026457D01*
X120387968Y-38432778D01*
X120935825Y-37448762D01*
X121592644Y-36505947D01*
X121924036Y-36056361D01*
X122395603Y-35069086D01*
X122523985Y-33908051D01*
X122524052Y-33879024D01*
X122660797Y-32719289D01*
X123027923Y-31982132D01*
X123417192Y-31677471D01*
X123830769Y-31693239D01*
X124517429Y-32042420D01*
X124998190Y-32299847D01*
X125518881Y-32446655D01*
X126126383Y-32368331D01*
X127070898Y-32067314D01*
X127591428Y-31906227D01*
X128805850Y-31629792D01*
X129827423Y-31514257D01*
X130790768Y-31363179D01*
X131937783Y-30819062D01*
X132101397Y-30698734D01*
X132663094Y-30346383D01*
X133040880Y-30356417D01*
X133492987Y-30710873D01*
X133912872Y-31186961D01*
X134126454Y-31664252D01*
X134189996Y-31825846D01*
X134637741Y-32309037D01*
X135373159Y-32869381D01*
X135701086Y-33100489D01*
X136550056Y-33818217D01*
X137132151Y-34476260D01*
X137135192Y-34480891D01*
X137581616Y-34976407D01*
X137937507Y-35076983D01*
X138401968Y-35060865D01*
X139023074Y-35440203D01*
X139590607Y-36085304D01*
X139929904Y-36841482D01*
X139943362Y-37039112D01*
X139984658Y-37645561D01*
G37*
%TO.C,D9*%
D13*
X126736000Y-113192000D02*
X126736000Y-114372000D01*
X126736000Y-118832000D02*
X126736000Y-117652000D01*
X127656000Y-116956000D02*
X125816000Y-116956000D01*
X127656000Y-117076000D02*
X125816000Y-117076000D01*
X127656000Y-117196000D02*
X125816000Y-117196000D01*
X125816000Y-114372000D02*
X127656000Y-114372000D01*
X127656000Y-117652000D01*
X125816000Y-117652000D01*
X125816000Y-114372000D01*
%TO.C,D13*%
X145500000Y-93990000D02*
X145500000Y-95170000D01*
X145500000Y-99630000D02*
X145500000Y-98450000D01*
X146420000Y-97754000D02*
X144580000Y-97754000D01*
X146420000Y-97874000D02*
X144580000Y-97874000D01*
X146420000Y-97994000D02*
X144580000Y-97994000D01*
X144580000Y-95170000D02*
X146420000Y-95170000D01*
X146420000Y-98450000D01*
X144580000Y-98450000D01*
X144580000Y-95170000D01*
%TD*%
M02*
